<svg xmlns="http://www.w3.org/2000/svg" width="97.56" height="97.531"><path d="M67.64 24.424v-3.888h-1.76v3.888h-6.35v-3.888h-1.76v3.888H50.7v-3.888h-1.76v3.888h-7.35v-3.888h-1.76v3.888h-7.05v-3.888h-1.76v3.888h-6.28V73.16h48.08V24.424h-5.18zm3.58 47.136H26.34v-33.7h44.88v33.7zm0-35.294H26.34V26.024h4.68v4.053h1.76v-4.053h7.05v4.053h1.76v-4.053h7.34v4.053h1.77v-4.053h7.07v4.053h1.76v-4.053h6.35v4.053h1.76v-4.053h3.58v10.242zm0 0L49.2 47.604h-.04l-2 1.08-.3-1.185 2.51-1.347h1.33V63.27h-1.5V47.604zm4.09 15.666v-1.507h-6.68v1.507h6.68zM48.78 1.294A47.468 47.468 0 111.31 48.762 47.526 47.526 0 0148.78 1.294m0-1.3a48.768 48.768 0 1048.77 48.769A48.772 48.772 0 0048.78-.007z" fill-rule="evenodd"/></svg>