<svg xmlns="http://www.w3.org/2000/svg" width="80.222" height="84.815"><g data-name="иконки новый сайт"><path data-name="Path 61" d="M70.347 71.419H8.8V8.726h62.7v62.693zM63 47.919h.842V32.227H63v15.692zM34.065 34.064a8.564 8.564 0 016.047-2.526 8.256 8.256 0 016.047 2.526 8.564 8.564 0 012.526 6.047 8.256 8.256 0 01-2.526 6.047 8.564 8.564 0 01-6.047 2.526 8.256 8.256 0 01-6.047-2.526 8.5 8.5 0 010-12.095zm-.077 13.013a9.433 9.433 0 006.124 2.3 9.31 9.31 0 006.583-15.922 9.275 9.275 0 00-12.707-.459 9.149 9.149 0 00-3.138 5.741l-.153.919h-5.129l.153-1.225a14.471 14.471 0 0114.391-12.86 14.506 14.506 0 0110.257 24.725 14.55 14.55 0 01-19.9.536 14.166 14.166 0 01-4.746-9.186l-.153-1.225h5.13l.153.919a8.958 8.958 0 003.138 5.741zm-4.746 3.751a15.214 15.214 0 0010.793 4.44 14.967 14.967 0 0010.793-4.516 15.28 15.28 0 004.516-10.793 14.967 14.967 0 00-4.516-10.793 15.214 15.214 0 00-10.793-4.44 14.967 14.967 0 00-10.793 4.516 15.28 15.28 0 00-4.516 10.793 15.608 15.608 0 004.516 10.793zM78.232 79.3H.842V63.611h7.119v8.573h64.3v-64.3h-64.3v8.573H.842V.766H79.38V79.3h-1.148zm-76.318-62h6.047v45.546H.842V17.3zm5.971 67.515h13.166v-4.669h38.121v4.669h13.166v-4.669h7.884V0H0v80.146h7.884v4.669zm.919-1.99v-2.679h11.253V83.9H8.8v-1.072zm52.359-2.679h10.181V83.9H60.09v-3.751z" fill="#25aee5"/></g></svg>