<svg xmlns="http://www.w3.org/2000/svg" width="18.629" height="31"><g data-name="Group 225" transform="translate(-1169 -7455)"><path d="M1175.403 7468.315h2.74v11.285a.4.4 0 00.4.4h4.654a.4.4 0 00.4-.4v-11.232h3.15a.4.4 0 00.4-.357l.478-4.153a.4.4 0 00-.4-.449h-3.628v-2.609c0-.785.423-1.183 1.256-1.183h2.373a.4.4 0 00.4-.4v-3.811a.4.4 0 00-.4-.4h-3.42a6.266 6.266 0 00-4.1 1.544 4.3 4.3 0 00-1.429 3.819v3.039h-2.874a.4.4 0 00-.4.4v4.1a.4.4 0 00.4.407z"/><circle data-name="Ellipse 24" cx="6" cy="6" r="6" transform="translate(1169 7474)" fill="red" opacity=".5"/></g></svg>