<svg xmlns="http://www.w3.org/2000/svg" width="30.79" height="29"><g data-name="Group 224" transform="translate(-777 -7457)"><g data-name="Group 167"><g data-name="Group 166"><path data-name="Path 127" d="M800.3 7457h-10.809a7.5 7.5 0 00-7.491 7.491v10.809a7.5 7.5 0 007.491 7.49H800.3a7.5 7.5 0 007.49-7.49v-10.809a7.5 7.5 0 00-7.49-7.491zm5.477 18.3a5.483 5.483 0 01-5.477 5.475h-10.809a5.483 5.483 0 01-5.476-5.475v-10.809a5.483 5.483 0 015.476-5.476H800.3a5.483 5.483 0 015.477 5.477z" fill="#333"/></g></g><g data-name="Group 169"><g data-name="Group 168"><path data-name="Path 128" d="M794.895 7462.944a6.951 6.951 0 106.951 6.951 6.959 6.959 0 00-6.951-6.951zm0 11.887a4.936 4.936 0 114.936-4.936 4.942 4.942 0 01-4.936 4.936z" fill="#333"/></g></g><g data-name="Group 171"><g data-name="Group 170"><circle data-name="Ellipse 22" cx="1" cy="1" r="1" transform="translate(801 7462)" fill="#333"/></g></g><circle data-name="Ellipse 23" cx="6" cy="6" r="6" transform="translate(777 7474)" fill="red" opacity=".5"/></g></svg>