<svg xmlns="http://www.w3.org/2000/svg" width="97.562" height="97.531"><path d="M26.143 52.285h28.8v-25.44h-28.8v25.44zm2.673-1.374c1.235-4.324 4.036-12 6.456-12a1.645 1.645 0 011.123.576c3.269 3.271 4.979 8.883 5.648 11.426H28.816zm15.137 0c.443-1.529 1.931-6.029 4.052-6.575a1.526 1.526 0 01.34-.041c1.669 0 3.214 3.408 4.454 6.616h-8.846zM27.518 28.168h26.054v21.44c-1.324-3.3-2.863-6.523-5.227-6.523a2.528 2.528 0 00-.638.082c-2.09.535-3.511 3.341-4.34 5.607l-.319.875-.284-.9c-.947-3.054-2.677-7.286-5.515-10.128a2.79 2.79 0 00-1.977-.926c-3.644 0-6.642 9.4-7.707 13.211h-.047V28.168zm0 0l18.6 9.861a3.355 3.355 0 10-3.352-3.357 3.36 3.36 0 003.352 3.357zm0-5.8a2.449 2.449 0 11-2.452 2.447 2.448 2.448 0 012.452-2.447zm0 0l20.925 7.05 1.091-4.109-10.75-2.857v-8.11H23.755v43.489h3.547l-.319 1.19 5.313 1.4c-.211-.024-.427-.055-.643-.077l-.69 1.968 31.743 11.013 11.1-31.691zm-6.4 26.064l-.519-.181 39.955 15.28q.061.9.092 1.8zm5.366-22.192l2.867 1-7.064 20.241a29.419 29.419 0 00-.407-4.038zm-9.2 16.672l-7.45-1.988h7.2c.1.658.18 1.323.252 1.988zm.578-23.376l6.023 1.6-5.524 20.713a24.785 24.785 0 00-.5-3.109v-19.2zm-32.259-10.92h30.935v30.933h8.591V25.523zm3.558 32.308H4.5l14.524 3.862 6.534-24.576-7.7-2.054v-1.369l9.108 2.419-7.96 29.921-29.916-7.966zm33.211 13.855l-29.23-10.2.308-.891 26.492 7.007.3-1.116 2.472.86 8.378-24.01-4.259-1.483.345-1.287 5.4 1.884zM48.781 1.294A47.468 47.468 0 111.313 48.762 47.522 47.522 0 0148.781 1.294m0-1.3A48.768 48.768 0 1097.55 48.763 48.769 48.769 0 0048.781-.007z" fill-rule="evenodd"/></svg>