<svg xmlns="http://www.w3.org/2000/svg" width="81.527" height="89.936"><path data-name="Path 14" d="M79.64 89.13h-6.354V62.766H66.7V49.589H53.524V35.57h8.233V15.799h5.783v6.586h6.6V55.33h6.585v33.8H79.64zm-54.365 0H7.391V63.571h6.593V50.394h12.372v38.734h-1.081zm-16.8.807h73.054V54.53H74.94V21.586h-6.59v-6.592h-7.4v19.769h-7.428V16.641H46.93V3.464h-6.59V0h-.8v3.464h-6.593v13.177h-6.592v24.715h-7.429v-6.593H12.34v-6.592H6.597v39.54H0v22.224h8.472zm4.546-6.425h1.119v-1.133h-1.125zm0-6.594h1.119v-1.134h-1.125zm0-6.592h1.119v-1.134h-1.125zm6.583 13.185h1.136v-1.133h-1.134zm0-6.594h1.136v-1.134h-1.134zm0-6.592h1.136v-1.134h-1.134zm0-6.585h1.136v-1.134h-1.134zm0-6.593h1.136v-1.135h-1.134zm51.8 31.981H53.523V50.393h12.372V63.57h6.591v25.56h-1.081zm-5.671-5.618h1.125v-1.133h-1.125zm0-6.594h1.125v-1.133h-1.125zm0-6.592h1.125v-1.133h-1.125zM59.14 83.509h1.133v-1.133H59.14zm0-6.594h1.133v-1.133H59.14zm0-6.592h1.133V69.19H59.14zm0-6.585h1.133v-1.133H59.14zm0-6.593h1.133v-1.134H59.14zm-7.5 31.985H27.16V17.445h6.593V4.26h12.372v13.185h6.594V89.13zm-18.856-5.618h1.133v-1.133h-1.133zm0-6.594h1.133v-1.136h-1.133zm0-6.592h1.133V69.19h-1.133zm0-6.585h1.133v-1.137h-1.133zm0-6.593h1.133v-1.137h-1.133zm0-6.592h1.133V49.43h-1.133zm0-6.585h1.133V42.83h-1.133zm0-6.592h1.133v-1.137h-1.133zm0-6.594h1.133v-1.129h-1.133zm0-6.583h1.133v-1.137h-1.133zm13.185 59.31h1.134v-1.133h-1.134zm0-6.594h1.134v-1.137h-1.134zm0-6.592h1.134v-1.137h-1.134zm0-6.585h1.134v-1.137h-1.134zm0-6.593h1.134V56.01h-1.134zm0-6.592h1.134V49.43h-1.134zm0-6.585h1.134V42.83h-1.134zm0-6.592h1.134v-1.138h-1.134zm0-6.594h1.134v-1.129h-1.134zm0-6.583h1.134v-1.137h-1.134zm-6.593 59.31h1.133v-1.133h-1.133zm0-6.594h1.133v-1.137h-1.133zm0-6.592h1.133v-1.137h-1.133zm0-6.585h1.133v-1.138h-1.133zm0-6.593h1.133V56.01h-1.133zm0-6.592h1.133V49.43h-1.133zm0-6.585h1.133V42.83h-1.133zm0-6.592h1.133v-1.138h-1.133zm0-6.594h1.133v-1.13h-1.133zm0-6.583h1.133v-1.138h-1.133zm0-6.593h1.133v-1.138h-1.133zm0-6.586h1.133V9.886h-1.133zm-27.28 51.74h-4.7v-33.79h4.139v6.593h6.592v6.584h8.234v7.435H13.177v13.178zM5.511 89.13H.806V68.513h5.787V89.13z" fill="#000913"/></svg>