<svg xmlns="http://www.w3.org/2000/svg" width="95.367" height="90.668"><path data-name="Path 13" d="M35.637 26.145h1.125v-1.126h-1.125zM21.908 12.488h2.668v-.8h-2.668zm-15.692 0h10.069v-.8H6.216zm56-9.873h6.474v-.806h-6.474zM0 25.986h6.474v-.8H0zm94.576 64.682h.791v-5.9h-5.258V24.851h-6.913v-6.577H69.374v6.578h-6.123v-6.578h-4.934v-6.585h-4.933V5.105h-6.922V0h-.8v5.105H38.75v6.583h-4.934v6.585h-4.934v26.335H8.47v40.157H3.196v5.9h.807v-5.1h90.572v5.1zm-66.773-5.9H9.277V45.4h19.607v39.365zm-5.993-5.947h1.133v-1.129H21.81zm-6.589 0h1.134v-1.129h-1.134zm6.589-6.585h1.133v-1.13H21.81zm-6.589 0h1.134v-1.13h-1.134zm6.589-6.585h1.133v-1.129H21.81zm-6.589 0h1.134v-1.129h-1.134zm6.589-6.577h1.133v-1.137H21.81zm-6.589 0h1.134v-1.137h-1.134zm6.589-6.585h1.133v-1.137H21.81zm-6.589 0h1.134v-1.137h-1.134zm67.168-32.331v4.7H70.17v-5.785h12.224zm5.832 64.611H63.252v-59.11h26.051v59.106zm-5.832-7.588h.8V33.254h-.8zm-6.508 0h.8V33.254h-.8zm-6.507 0h.8V33.254h-.8zm-16.8-70.193v4.7H39.555V5.9h13.019v1.085zm4.95 6.585v4.7h-22.9v-5.784h22.9zm3.853 71.2h-31.7V19.074h32.785v65.692h-1.081zm-5.994-5.947h1.125v-1.133h-1.125zm-6.589 0h1.126v-1.133h-1.126zm-6.589 0h1.126v-1.133h-1.126zm-6.572 0h1.125v-1.133h-1.125zm19.749-6.585h1.125v-1.134h-1.125zm-6.589 0h1.126v-1.134h-1.126zm-6.589 0h1.126v-1.134h-1.126zm-6.572 0h1.125v-1.134h-1.125zm19.749-6.585h1.125v-1.133h-1.125zm-6.589 0h1.126v-1.133h-1.126zm-6.589 0h1.126v-1.133h-1.126zm-6.572 0h1.125v-1.133h-1.125zm19.749-6.577h1.125v-1.141H55.38zm-6.589 0h1.126v-1.141h-1.126zm-6.589 0h1.126v-1.141h-1.126zm-6.572 0h1.125v-1.141H35.63zm19.749-6.585h1.125v-1.141h-1.125zm-6.589 0h1.126v-1.141H48.79zm-6.589 0h1.126v-1.141h-1.126zm-6.572 0h1.125v-1.141h-1.125zm19.749-6.584h1.125v-1.133h-1.125zm-6.589 0h1.126v-1.133h-1.126zm-6.589 0h1.126v-1.133H42.2zm-6.572 0h1.125v-1.133h-1.125zm19.749-6.585h1.125v-1.134h-1.125zm-6.589 0h1.126v-1.134h-1.126zm-6.589 0h1.126v-1.134h-1.126zm-6.572 0h1.125v-1.134h-1.125zm19.749-6.585h1.125v-1.134h-1.125zm-6.589 0h1.126v-1.134h-1.126zm-6.589 0h1.126v-1.134h-1.126zm-6.572 0h1.125v-1.134h-1.125zm19.749-6.586H56.5V25.02h-1.125zm-6.589 0h1.126V25.02h-1.126zm-6.589 0h1.126V25.02h-1.126z" fill="#000913"/></svg>