<svg xmlns="http://www.w3.org/2000/svg" width="36.087" height="36"><g data-name="Group 97" transform="translate(-392 -2343)"><circle data-name="Ellipse 16" cx="7.5" cy="7.5" r="7.5" transform="translate(392 2364)" fill="red" opacity=".489"/><g data-name="calendar (2)" fill="#333"><path data-name="Path 69" d="M427.55 2345.149h-3.761v-1.612a.537.537 0 00-.537-.537h-3.761a.537.537 0 00-.537.537v1.612h-11.82v-1.612a.537.537 0 00-.534-.537h-3.765a.537.537 0 00-.535.537v1.612h-3.763a.537.537 0 00-.537.537v29.014a.537.537 0 00.537.537h29.013a.537.537 0 00.537-.537v-29.014a.537.537 0 00-.537-.537zm-7.522-1.074h2.686v3.225h-2.686v-3.225zm-16.655 0h2.686v3.225h-2.686v-3.225zm-4.3 2.149h3.227v1.611a.537.537 0 00.537.537h3.763a.537.537 0 00.537-.537v-1.611h11.82v1.611a.537.537 0 00.537.537h3.761a.537.537 0 00.537-.537v-1.611h3.224v4.835h-27.941zm0 27.938v-22.028h27.94v22.028z"/><path data-name="Path 70" d="M417.341 2355.357h-14.506v15.581h20.416v-15.581h-5.91zm-3.761 1.075h3.761v3.761h-3.761zm3.761 8.6h-3.761v-3.765h3.761zm-8.6-3.761h3.761v3.761h-3.757zm0-4.835h3.761v3.761h-3.757zm-4.835 0h3.761v3.761h-3.757zm0 4.835h3.761v3.761h-3.757zm3.761 8.6h-3.757v-3.769h3.761zm4.835 0h-3.757v-3.769h3.761zm4.835 0h-3.757v-3.769h3.761zm4.835 0h-3.756v-3.769h3.761zm0-4.835h-3.756v-3.769h3.761zm0-8.6v3.761h-3.756v-3.765z"/></g></g></svg>