<svg xmlns="http://www.w3.org/2000/svg" width="36.692" height="31"><g data-name="Group 99" transform="translate(-392 -2346)"><circle data-name="Ellipse 16" cx="7.5" cy="7.5" r="7.5" transform="translate(392 2362)" fill="red" opacity=".489"/><g data-name="Group 114"><g data-name="Group 113"><path data-name="Path 75" d="M428.18 2361.346h-.512v-1.535a2.558 2.558 0 00-1.535-2.341v-7.89a.512.512 0 00-.307-.469 2.025 2.025 0 00.307-1.066 2.046 2.046 0 00-4.092 0 2.025 2.025 0 00.284 1.023h-17.96a2.025 2.025 0 00.284-1.023 2.046 2.046 0 00-4.092 0 2.025 2.025 0 00.307 1.066.512.512 0 00-.307.469v7.89a2.558 2.558 0 00-1.535 2.341v1.535h-.51a.512.512 0 00-.512.511v7.161a.512.512 0 00.512.512h.512v2.558a.512.512 0 00.512.512h2.045a.512.512 0 00.512-.512v-2.558H424.6v2.558a.512.512 0 00.512.512h2.046a.512.512 0 00.512-.512v-2.558h.512a.512.512 0 00.512-.512v-7.161a.512.512 0 00-.514-.511zm-4.092-14.323a1.023 1.023 0 11-1.023 1.023 1.023 1.023 0 011.023-1.023zm-21.484 0a1.023 1.023 0 11-1.023 1.023 1.023 1.023 0 011.019-1.023zm-1.023 3.069h23.53v7.161h-2.06a2.531 2.531 0 00.525-1.535v-1.018a2.561 2.561 0 00-2.558-2.558h-4.092a2.561 2.561 0 00-2.557 2.558v1.023a2.531 2.531 0 00.525 1.535H411.8a2.531 2.531 0 00.525-1.535v-1.023a2.561 2.561 0 00-2.558-2.558h-4.094a2.561 2.561 0 00-2.558 2.558v1.023a2.531 2.531 0 00.525 1.535h-2.059zm20.973 4.6v1.023a1.535 1.535 0 01-1.535 1.535h-4.093a1.535 1.535 0 01-1.535-1.535v-1.015a1.535 1.535 0 011.535-1.535h4.092a1.535 1.535 0 011.535 1.535zm-11.254.008v1.023a1.535 1.535 0 01-1.535 1.535h-4.092a1.535 1.535 0 01-1.535-1.535v-1.023a1.535 1.535 0 011.535-1.535h4.092a1.535 1.535 0 011.535 1.535zm-11.254 5.111a1.535 1.535 0 011.535-1.535h23.53a1.535 1.535 0 011.535 1.535v1.535h-26.6zm1.023 11.765h-1.023v-2.046h1.023zm25.576 0h-1.023v-2.046h1.023zm1.023-3.069h-28.645v-6.138h28.646z" fill="#333"/></g></g><g data-name="Group 116"><g data-name="Group 115"><path data-name="Path 76" d="M402.604 2366.461h-2.046a.512.512 0 100 1.023h2.046a.512.512 0 100-1.023z" fill="#333"/></g></g><g data-name="Group 118"><g data-name="Group 117"><path data-name="Path 77" d="M426.138 2366.461H404.65a.512.512 0 100 1.023h21.488a.512.512 0 100-1.023z" fill="#333"/></g></g></g></svg>