<svg xmlns="http://www.w3.org/2000/svg" width="35.36" height="36"><g data-name="Group 101" transform="translate(-392 -2341)"><circle data-name="Ellipse 16" cx="7.5" cy="7.5" r="7.5" transform="translate(392 2362)" fill="red" opacity=".489"/><g data-name="Group 120"><g data-name="Group 119" fill="#333"><path data-name="Path 87" d="M409.574 2364.352v-15.374a.693.693 0 00-1.386 0v15.374a3.1 3.1 0 101.386 0zm-.693 4.727a1.712 1.712 0 111.712-1.712 1.716 1.716 0 01-1.713 1.713z"/><path data-name="Path 89" d="M412.783 2362.21v-17.328a3.9 3.9 0 00-7.8 0v17.328a6.48 6.48 0 00-2.149 6.987 6.335 6.335 0 0012.1-.007 6.485 6.485 0 00-2.151-6.98zm.811 6.578a4.943 4.943 0 01-9.441.007 5.089 5.089 0 011.913-5.663.691.691 0 00.3-.568v-17.675a2.544 2.544 0 012.516-2.5 2.516 2.516 0 012.5 2.488v17.675a.691.691 0 00.3.568 5.093 5.093 0 011.912 5.668z"/><path data-name="Path 90" d="M426.666 2349.852h-.79a2.637 2.637 0 01-2.2-1.067c-.007-.007-.014-.021-.021-.028a1.738 1.738 0 01.014-2.038l.007-.007a2.543 2.543 0 012.142-1.067h.846a.693.693 0 100-1.386h-.846a3.922 3.922 0 00-3.3 1.691 3.1 3.1 0 00.007 3.6 4.043 4.043 0 003.355 1.684h.783a.69.69 0 100-1.379z"/><path data-name="Path 91" d="M418.619 2341.007a2.327 2.327 0 00-2.329 2.315v.783a2.329 2.329 0 004.658 0v-.783a2.327 2.327 0 00-2.329-2.315zm.943 3.1a.943.943 0 01-1.885 0v-.783a.943.943 0 011.885 0z"/><path data-name="Path 92" d="M401.686 2361.871h-3.993a.693.693 0 100 1.386h3.993a.693.693 0 100-1.386z"/><path data-name="Path 93" d="M401.685 2352.25h-2.419a.693.693 0 100 1.386h2.419a.693.693 0 100-1.386z"/><path data-name="Path 94" d="M401.686 2349.061h-3.993a.693.693 0 100 1.386h3.993a.693.693 0 100-1.386z"/><path data-name="Path 95" d="M401.685 2345.817h-2.419a.693.693 0 100 1.386h2.419a.693.693 0 100-1.386z"/><path data-name="Path 96" d="M401.686 2342.629h-3.993a.693.693 0 000 1.386h3.993a.693.693 0 000-1.386z"/><path data-name="Path 97" d="M401.685 2358.682h-2.419a.693.693 0 100 1.386h2.419a.693.693 0 100-1.386z"/><path data-name="Path 98" d="M401.686 2355.438h-3.993a.693.693 0 100 1.386h3.993a.693.693 0 100-1.386z"/></g></g></g></svg>