<svg xmlns="http://www.w3.org/2000/svg" width="34.998" height="34"><g data-name="Group 100" transform="translate(-392 -2343)"><circle data-name="Ellipse 16" cx="7.5" cy="7.5" r="7.5" transform="translate(392 2362)" fill="red" opacity=".489"/><g fill="#333"><path data-name="Path 78" d="M408.434 2363.822l-.351.079a.586.586 0 00.127 1.158.6.6 0 00.128-.014l.453-.1a5.469 5.469 0 00.728 1.135l-.243.182a.586.586 0 00.7.937l.387-.291a6.044 6.044 0 00.944.614l-.088.5a.587.587 0 00.476.679.6.6 0 00.1.009.586.586 0 00.577-.485l.045-.258a2.436 2.436 0 00.57.072 1.545 1.545 0 001.391-.751 1.445 1.445 0 00-.3-1.82 2.234 2.234 0 00-.1-.077l.082-.076a.588.588 0 00-.8-.861l-.413.382a1.91 1.91 0 01-.94-.854l.408-.306a.586.586 0 00-.7-.937l-.061.046a1.479 1.479 0 00-.885-.743 1.78 1.78 0 00-1.805.412 1.645 1.645 0 00-.43 1.368zm1.272-.555a.613.613 0 01.6-.113c.133.044.207.117.221.218a3.2 3.2 0 002.262 2.72 2.719 2.719 0 01.548.28.273.273 0 01.034.331c-.113.2-.46.216-.9.052a4.528 4.528 0 01-2.773-2.69c-.084-.213-.185-.598.008-.798zm0 0"/><path data-name="Path 79" d="M411.655 2358.178a.586.586 0 00-.829.829l8.093 8.093a11.434 11.434 0 01-16.02-16.025l4.646 4.611a.586.586 0 10.826-.832l-5.107-5.068a.586.586 0 00-.859.035 12.606 12.606 0 0017.77 17.772.587.587 0 00.034-.861zm0 0"/><path data-name="Path 80" d="M422.6 2347.393a14.9 14.9 0 00-10.577-4.393h-.049a15 15 0 00-10.581 25.6A15 15 0 00427 2358.023v-.049a14.9 14.9 0 00-4.4-10.581zm3.221 10.629a13.826 13.826 0 11-13.85-13.85h.047a13.852 13.852 0 0113.8 13.8zm0 0"/><path data-name="Path 81" d="M411.998 2345.391a12.494 12.494 0 00-7.669 2.6.586.586 0 00-.058.88l12.29 12.289.011.012 1.418 1.417 3.135 3.136a.587.587 0 00.415.172h.038a.586.586 0 00.427-.228 12.494 12.494 0 002.6-7.669 12.622 12.622 0 00-12.607-12.609zm5.843 15.39a3.743 3.743 0 00.9-2.992v-.039a2.906 2.906 0 01.022-.688.4.4 0 01.417-.265c.308.024.525.393.581.988a5.789 5.789 0 01-.119 1.871.6.6 0 00-.024.1 5.06 5.06 0 01-.922 1.888zm3.628 3.628l-1.944-1.934a6.238 6.238 0 001.023-1.8l.238.118a.586.586 0 10.521-1.05l-.451-.224a6.883 6.883 0 00.1-1.2h.337a.586.586 0 000-1.172h-.458a1.8 1.8 0 00-1.57-1.516 1.571 1.571 0 00-1.64 1.144 2.248 2.248 0 00-.058.41h-.363a.586.586 0 000 1.172h.377a2.233 2.233 0 01-.571 1.593l-11.424-11.421a11.323 11.323 0 016.411-1.965 11.448 11.448 0 0111.436 11.434 11.323 11.323 0 01-1.965 6.411zm0 0"/><path data-name="Path 82" d="M403.999 2363.546a1.814 1.814 0 00.414.048 1.8 1.8 0 10-.414-.048zm-.2-1.892a.626.626 0 01.608-.483.63.63 0 01.144.017.625.625 0 11-.752.466zm0 0"/><path data-name="Path 83" d="M405.449 2356.051a1.8 1.8 0 10.223 1.358 1.787 1.787 0 00-.223-1.358zm-.918 1.09a.627.627 0 11-.078-.472.62.62 0 01.077.472zm0 0"/><path data-name="Path 84" d="M411.909 2349.002a1.8 1.8 0 101.34 2.161 1.785 1.785 0 00-1.34-2.161zm.2 1.893a.628.628 0 11-.467-.752.622.622 0 01.467.752zm0 0"/><path data-name="Path 85" d="M416.341 2350.949a1.714 1.714 0 10-.784 3.337 1.72 1.72 0 00.4.046 1.714 1.714 0 00.387-3.383zm.135 1.791a.541.541 0 11-.528-.665.55.55 0 01.125.014.541.541 0 01.337.242.535.535 0 01.066.409zm0 0"/><path data-name="Path 86" d="M409.598 2357.517a.586.586 0 00.458-.953l-.007-.008a.586.586 0 10-.915.732l.007.008a.585.585 0 00.457.221zm0 0"/></g></g></svg>