<svg xmlns="http://www.w3.org/2000/svg" width="325" height="349"><defs><clipPath id="a"><path fill="none" d="M0 0h325v349H0z"/></clipPath></defs><g data-name="Repeat Grid 3" opacity=".059" clip-path="url(#a)"><path data-name="Path 185" d="M3 0a3 3 0 11-3 3 3 3 0 013-3zm16 0a3 3 0 11-3 3 3 3 0 013-3zm16 0a3 3 0 11-3 3 3 3 0 013-3zm16 0a3 3 0 11-3 3 3 3 0 013-3zm16 0a3 3 0 11-3 3 3 3 0 013-3zm16 0a3 3 0 11-3 3 3 3 0 013-3zm16 0a3 3 0 11-3 3 3 3 0 013-3zm16 0a3 3 0 11-3 3 3 3 0 013-3zm16 0a3 3 0 11-3 3 3 3 0 013-3zm16 0a3 3 0 11-3 3 3 3 0 013-3zm16 0a3 3 0 11-3 3 3 3 0 013-3zm16 0a3 3 0 11-3 3 3 3 0 013-3zm16 0a3 3 0 11-3 3 3 3 0 013-3zm16 0a3 3 0 11-3 3 3 3 0 013-3zm16 0a3 3 0 11-3 3 3 3 0 013-3zm16 0a3 3 0 11-3 3 3 3 0 013-3zm16 0a3 3 0 11-3 3 3 3 0 013-3zm16 0a3 3 0 11-3 3 3 3 0 013-3zm16 0a3 3 0 11-3 3 3 3 0 013-3zm16 0a3 3 0 11-3 3 3 3 0 013-3zm16 0a3 3 0 11-3 3 3 3 0 013-3zM3 16a3 3 0 11-3 3 3 3 0 013-3zm16 0a3 3 0 11-3 3 3 3 0 013-3zm16 0a3 3 0 11-3 3 3 3 0 013-3zm16 0a3 3 0 11-3 3 3 3 0 013-3zm16 0a3 3 0 11-3 3 3 3 0 013-3zm16 0a3 3 0 11-3 3 3 3 0 013-3zm16 0a3 3 0 11-3 3 3 3 0 013-3zm16 0a3 3 0 11-3 3 3 3 0 013-3zm16 0a3 3 0 11-3 3 3 3 0 013-3zm16 0a3 3 0 11-3 3 3 3 0 013-3zm16 0a3 3 0 11-3 3 3 3 0 013-3zm16 0a3 3 0 11-3 3 3 3 0 013-3zm16 0a3 3 0 11-3 3 3 3 0 013-3zm16 0a3 3 0 11-3 3 3 3 0 013-3zm16 0a3 3 0 11-3 3 3 3 0 013-3zm16 0a3 3 0 11-3 3 3 3 0 013-3zm16 0a3 3 0 11-3 3 3 3 0 013-3zm16 0a3 3 0 11-3 3 3 3 0 013-3zm16 0a3 3 0 11-3 3 3 3 0 013-3zm16 0a3 3 0 11-3 3 3 3 0 013-3zm16 0a3 3 0 11-3 3 3 3 0 013-3zM3 32a3 3 0 11-3 3 3 3 0 013-3zm16 0a3 3 0 11-3 3 3 3 0 013-3zm16 0a3 3 0 11-3 3 3 3 0 013-3zm16 0a3 3 0 11-3 3 3 3 0 013-3zm16 0a3 3 0 11-3 3 3 3 0 013-3zm16 0a3 3 0 11-3 3 3 3 0 013-3zm16 0a3 3 0 11-3 3 3 3 0 013-3zm16 0a3 3 0 11-3 3 3 3 0 013-3zm16 0a3 3 0 11-3 3 3 3 0 013-3zm16 0a3 3 0 11-3 3 3 3 0 013-3zm16 0a3 3 0 11-3 3 3 3 0 013-3zm16 0a3 3 0 11-3 3 3 3 0 013-3zm16 0a3 3 0 11-3 3 3 3 0 013-3zm16 0a3 3 0 11-3 3 3 3 0 013-3zm16 0a3 3 0 11-3 3 3 3 0 013-3zm16 0a3 3 0 11-3 3 3 3 0 013-3zm16 0a3 3 0 11-3 3 3 3 0 013-3zm16 0a3 3 0 11-3 3 3 3 0 013-3zm16 0a3 3 0 11-3 3 3 3 0 013-3zm16 0a3 3 0 11-3 3 3 3 0 013-3zm16 0a3 3 0 11-3 3 3 3 0 013-3zM3 48a3 3 0 11-3 3 3 3 0 013-3zm16 0a3 3 0 11-3 3 3 3 0 013-3zm16 0a3 3 0 11-3 3 3 3 0 013-3zm16 0a3 3 0 11-3 3 3 3 0 013-3zm16 0a3 3 0 11-3 3 3 3 0 013-3zm16 0a3 3 0 11-3 3 3 3 0 013-3zm16 0a3 3 0 11-3 3 3 3 0 013-3zm16 0a3 3 0 11-3 3 3 3 0 013-3zm16 0a3 3 0 11-3 3 3 3 0 013-3zm16 0a3 3 0 11-3 3 3 3 0 013-3zm16 0a3 3 0 11-3 3 3 3 0 013-3zm16 0a3 3 0 11-3 3 3 3 0 013-3zm16 0a3 3 0 11-3 3 3 3 0 013-3zm16 0a3 3 0 11-3 3 3 3 0 013-3zm16 0a3 3 0 11-3 3 3 3 0 013-3zm16 0a3 3 0 11-3 3 3 3 0 013-3zm16 0a3 3 0 11-3 3 3 3 0 013-3zm16 0a3 3 0 11-3 3 3 3 0 013-3zm16 0a3 3 0 11-3 3 3 3 0 013-3zm16 0a3 3 0 11-3 3 3 3 0 013-3zm16 0a3 3 0 11-3 3 3 3 0 013-3zM3 64a3 3 0 11-3 3 3 3 0 013-3zm16 0a3 3 0 11-3 3 3 3 0 013-3zm16 0a3 3 0 11-3 3 3 3 0 013-3zm16 0a3 3 0 11-3 3 3 3 0 013-3zm16 0a3 3 0 11-3 3 3 3 0 013-3zm16 0a3 3 0 11-3 3 3 3 0 013-3zm16 0a3 3 0 11-3 3 3 3 0 013-3zm16 0a3 3 0 11-3 3 3 3 0 013-3zm16 0a3 3 0 11-3 3 3 3 0 013-3zm16 0a3 3 0 11-3 3 3 3 0 013-3zm16 0a3 3 0 11-3 3 3 3 0 013-3zm16 0a3 3 0 11-3 3 3 3 0 013-3zm16 0a3 3 0 11-3 3 3 3 0 013-3zm16 0a3 3 0 11-3 3 3 3 0 013-3zm16 0a3 3 0 11-3 3 3 3 0 013-3zm16 0a3 3 0 11-3 3 3 3 0 013-3zm16 0a3 3 0 11-3 3 3 3 0 013-3zm16 0a3 3 0 11-3 3 3 3 0 013-3zm16 0a3 3 0 11-3 3 3 3 0 013-3zm16 0a3 3 0 11-3 3 3 3 0 013-3zm16 0a3 3 0 11-3 3 3 3 0 013-3zM3 80a3 3 0 11-3 3 3 3 0 013-3zm16 0a3 3 0 11-3 3 3 3 0 013-3zm16 0a3 3 0 11-3 3 3 3 0 013-3zm16 0a3 3 0 11-3 3 3 3 0 013-3zm16 0a3 3 0 11-3 3 3 3 0 013-3zm16 0a3 3 0 11-3 3 3 3 0 013-3zm16 0a3 3 0 11-3 3 3 3 0 013-3zm16 0a3 3 0 11-3 3 3 3 0 013-3zm16 0a3 3 0 11-3 3 3 3 0 013-3zm16 0a3 3 0 11-3 3 3 3 0 013-3zm16 0a3 3 0 11-3 3 3 3 0 013-3zm16 0a3 3 0 11-3 3 3 3 0 013-3zm16 0a3 3 0 11-3 3 3 3 0 013-3zm16 0a3 3 0 11-3 3 3 3 0 013-3zm16 0a3 3 0 11-3 3 3 3 0 013-3zm16 0a3 3 0 11-3 3 3 3 0 013-3zm16 0a3 3 0 11-3 3 3 3 0 013-3zm16 0a3 3 0 11-3 3 3 3 0 013-3zm16 0a3 3 0 11-3 3 3 3 0 013-3zm16 0a3 3 0 11-3 3 3 3 0 013-3zm16 0a3 3 0 11-3 3 3 3 0 013-3zM3 96a3 3 0 11-3 3 3 3 0 013-3zm16 0a3 3 0 11-3 3 3 3 0 013-3zm16 0a3 3 0 11-3 3 3 3 0 013-3zm16 0a3 3 0 11-3 3 3 3 0 013-3zm16 0a3 3 0 11-3 3 3 3 0 013-3zm16 0a3 3 0 11-3 3 3 3 0 013-3zm16 0a3 3 0 11-3 3 3 3 0 013-3zm16 0a3 3 0 11-3 3 3 3 0 013-3zm16 0a3 3 0 11-3 3 3 3 0 013-3zm16 0a3 3 0 11-3 3 3 3 0 013-3zm16 0a3 3 0 11-3 3 3 3 0 013-3zm16 0a3 3 0 11-3 3 3 3 0 013-3zm16 0a3 3 0 11-3 3 3 3 0 013-3zm16 0a3 3 0 11-3 3 3 3 0 013-3zm16 0a3 3 0 11-3 3 3 3 0 013-3zm16 0a3 3 0 11-3 3 3 3 0 013-3zm16 0a3 3 0 11-3 3 3 3 0 013-3zm16 0a3 3 0 11-3 3 3 3 0 013-3zm16 0a3 3 0 11-3 3 3 3 0 013-3zm16 0a3 3 0 11-3 3 3 3 0 013-3zm16 0a3 3 0 11-3 3 3 3 0 013-3zM3 112a3 3 0 11-3 3 3 3 0 013-3zm16 0a3 3 0 11-3 3 3 3 0 013-3zm16 0a3 3 0 11-3 3 3 3 0 013-3zm16 0a3 3 0 11-3 3 3 3 0 013-3zm16 0a3 3 0 11-3 3 3 3 0 013-3zm16 0a3 3 0 11-3 3 3 3 0 013-3zm16 0a3 3 0 11-3 3 3 3 0 013-3zm16 0a3 3 0 11-3 3 3 3 0 013-3zm16 0a3 3 0 11-3 3 3 3 0 013-3zm16 0a3 3 0 11-3 3 3 3 0 013-3zm16 0a3 3 0 11-3 3 3 3 0 013-3zm16 0a3 3 0 11-3 3 3 3 0 013-3zm16 0a3 3 0 11-3 3 3 3 0 013-3zm16 0a3 3 0 11-3 3 3 3 0 013-3zm16 0a3 3 0 11-3 3 3 3 0 013-3zm16 0a3 3 0 11-3 3 3 3 0 013-3zm16 0a3 3 0 11-3 3 3 3 0 013-3zm16 0a3 3 0 11-3 3 3 3 0 013-3zm16 0a3 3 0 11-3 3 3 3 0 013-3zm16 0a3 3 0 11-3 3 3 3 0 013-3zm16 0a3 3 0 11-3 3 3 3 0 013-3zM3 128a3 3 0 11-3 3 3 3 0 013-3zm16 0a3 3 0 11-3 3 3 3 0 013-3zm16 0a3 3 0 11-3 3 3 3 0 013-3zm16 0a3 3 0 11-3 3 3 3 0 013-3zm16 0a3 3 0 11-3 3 3 3 0 013-3zm16 0a3 3 0 11-3 3 3 3 0 013-3zm16 0a3 3 0 11-3 3 3 3 0 013-3zm16 0a3 3 0 11-3 3 3 3 0 013-3zm16 0a3 3 0 11-3 3 3 3 0 013-3zm16 0a3 3 0 11-3 3 3 3 0 013-3zm16 0a3 3 0 11-3 3 3 3 0 013-3zm16 0a3 3 0 11-3 3 3 3 0 013-3zm16 0a3 3 0 11-3 3 3 3 0 013-3zm16 0a3 3 0 11-3 3 3 3 0 013-3zm16 0a3 3 0 11-3 3 3 3 0 013-3zm16 0a3 3 0 11-3 3 3 3 0 013-3zm16 0a3 3 0 11-3 3 3 3 0 013-3zm16 0a3 3 0 11-3 3 3 3 0 013-3zm16 0a3 3 0 11-3 3 3 3 0 013-3zm16 0a3 3 0 11-3 3 3 3 0 013-3zm16 0a3 3 0 11-3 3 3 3 0 013-3zM3 144a3 3 0 11-3 3 3 3 0 013-3zm16 0a3 3 0 11-3 3 3 3 0 013-3zm16 0a3 3 0 11-3 3 3 3 0 013-3zm16 0a3 3 0 11-3 3 3 3 0 013-3zm16 0a3 3 0 11-3 3 3 3 0 013-3zm16 0a3 3 0 11-3 3 3 3 0 013-3zm16 0a3 3 0 11-3 3 3 3 0 013-3zm16 0a3 3 0 11-3 3 3 3 0 013-3zm16 0a3 3 0 11-3 3 3 3 0 013-3zm16 0a3 3 0 11-3 3 3 3 0 013-3zm16 0a3 3 0 11-3 3 3 3 0 013-3zm16 0a3 3 0 11-3 3 3 3 0 013-3zm16 0a3 3 0 11-3 3 3 3 0 013-3zm16 0a3 3 0 11-3 3 3 3 0 013-3zm16 0a3 3 0 11-3 3 3 3 0 013-3zm16 0a3 3 0 11-3 3 3 3 0 013-3zm16 0a3 3 0 11-3 3 3 3 0 013-3zm16 0a3 3 0 11-3 3 3 3 0 013-3zm16 0a3 3 0 11-3 3 3 3 0 013-3zm16 0a3 3 0 11-3 3 3 3 0 013-3zm16 0a3 3 0 11-3 3 3 3 0 013-3zM3 160a3 3 0 11-3 3 3 3 0 013-3zm16 0a3 3 0 11-3 3 3 3 0 013-3zm16 0a3 3 0 11-3 3 3 3 0 013-3zm16 0a3 3 0 11-3 3 3 3 0 013-3zm16 0a3 3 0 11-3 3 3 3 0 013-3zm16 0a3 3 0 11-3 3 3 3 0 013-3zm16 0a3 3 0 11-3 3 3 3 0 013-3zm16 0a3 3 0 11-3 3 3 3 0 013-3zm16 0a3 3 0 11-3 3 3 3 0 013-3zm16 0a3 3 0 11-3 3 3 3 0 013-3zm16 0a3 3 0 11-3 3 3 3 0 013-3zm16 0a3 3 0 11-3 3 3 3 0 013-3zm16 0a3 3 0 11-3 3 3 3 0 013-3zm16 0a3 3 0 11-3 3 3 3 0 013-3zm16 0a3 3 0 11-3 3 3 3 0 013-3zm16 0a3 3 0 11-3 3 3 3 0 013-3zm16 0a3 3 0 11-3 3 3 3 0 013-3zm16 0a3 3 0 11-3 3 3 3 0 013-3zm16 0a3 3 0 11-3 3 3 3 0 013-3zm16 0a3 3 0 11-3 3 3 3 0 013-3zm16 0a3 3 0 11-3 3 3 3 0 013-3zM3 176a3 3 0 11-3 3 3 3 0 013-3zm16 0a3 3 0 11-3 3 3 3 0 013-3zm16 0a3 3 0 11-3 3 3 3 0 013-3zm16 0a3 3 0 11-3 3 3 3 0 013-3zm16 0a3 3 0 11-3 3 3 3 0 013-3zm16 0a3 3 0 11-3 3 3 3 0 013-3zm16 0a3 3 0 11-3 3 3 3 0 013-3zm16 0a3 3 0 11-3 3 3 3 0 013-3zm16 0a3 3 0 11-3 3 3 3 0 013-3zm16 0a3 3 0 11-3 3 3 3 0 013-3zm16 0a3 3 0 11-3 3 3 3 0 013-3zm16 0a3 3 0 11-3 3 3 3 0 013-3zm16 0a3 3 0 11-3 3 3 3 0 013-3zm16 0a3 3 0 11-3 3 3 3 0 013-3zm16 0a3 3 0 11-3 3 3 3 0 013-3zm16 0a3 3 0 11-3 3 3 3 0 013-3zm16 0a3 3 0 11-3 3 3 3 0 013-3zm16 0a3 3 0 11-3 3 3 3 0 013-3zm16 0a3 3 0 11-3 3 3 3 0 013-3zm16 0a3 3 0 11-3 3 3 3 0 013-3zm16 0a3 3 0 11-3 3 3 3 0 013-3zM3 192a3 3 0 11-3 3 3 3 0 013-3zm16 0a3 3 0 11-3 3 3 3 0 013-3zm16 0a3 3 0 11-3 3 3 3 0 013-3zm16 0a3 3 0 11-3 3 3 3 0 013-3zm16 0a3 3 0 11-3 3 3 3 0 013-3zm16 0a3 3 0 11-3 3 3 3 0 013-3zm16 0a3 3 0 11-3 3 3 3 0 013-3zm16 0a3 3 0 11-3 3 3 3 0 013-3zm16 0a3 3 0 11-3 3 3 3 0 013-3zm16 0a3 3 0 11-3 3 3 3 0 013-3zm16 0a3 3 0 11-3 3 3 3 0 013-3zm16 0a3 3 0 11-3 3 3 3 0 013-3zm16 0a3 3 0 11-3 3 3 3 0 013-3zm16 0a3 3 0 11-3 3 3 3 0 013-3zm16 0a3 3 0 11-3 3 3 3 0 013-3zm16 0a3 3 0 11-3 3 3 3 0 013-3zm16 0a3 3 0 11-3 3 3 3 0 013-3zm16 0a3 3 0 11-3 3 3 3 0 013-3zm16 0a3 3 0 11-3 3 3 3 0 013-3zm16 0a3 3 0 11-3 3 3 3 0 013-3zm16 0a3 3 0 11-3 3 3 3 0 013-3zM3 208a3 3 0 11-3 3 3 3 0 013-3zm16 0a3 3 0 11-3 3 3 3 0 013-3zm16 0a3 3 0 11-3 3 3 3 0 013-3zm16 0a3 3 0 11-3 3 3 3 0 013-3zm16 0a3 3 0 11-3 3 3 3 0 013-3zm16 0a3 3 0 11-3 3 3 3 0 013-3zm16 0a3 3 0 11-3 3 3 3 0 013-3zm16 0a3 3 0 11-3 3 3 3 0 013-3zm16 0a3 3 0 11-3 3 3 3 0 013-3zm16 0a3 3 0 11-3 3 3 3 0 013-3zm16 0a3 3 0 11-3 3 3 3 0 013-3zm16 0a3 3 0 11-3 3 3 3 0 013-3zm16 0a3 3 0 11-3 3 3 3 0 013-3zm16 0a3 3 0 11-3 3 3 3 0 013-3zm16 0a3 3 0 11-3 3 3 3 0 013-3zm16 0a3 3 0 11-3 3 3 3 0 013-3zm16 0a3 3 0 11-3 3 3 3 0 013-3zm16 0a3 3 0 11-3 3 3 3 0 013-3zm16 0a3 3 0 11-3 3 3 3 0 013-3zm16 0a3 3 0 11-3 3 3 3 0 013-3zm16 0a3 3 0 11-3 3 3 3 0 013-3zM3 224a3 3 0 11-3 3 3 3 0 013-3zm16 0a3 3 0 11-3 3 3 3 0 013-3zm16 0a3 3 0 11-3 3 3 3 0 013-3zm16 0a3 3 0 11-3 3 3 3 0 013-3zm16 0a3 3 0 11-3 3 3 3 0 013-3zm16 0a3 3 0 11-3 3 3 3 0 013-3zm16 0a3 3 0 11-3 3 3 3 0 013-3zm16 0a3 3 0 11-3 3 3 3 0 013-3zm16 0a3 3 0 11-3 3 3 3 0 013-3zm16 0a3 3 0 11-3 3 3 3 0 013-3zm16 0a3 3 0 11-3 3 3 3 0 013-3zm16 0a3 3 0 11-3 3 3 3 0 013-3zm16 0a3 3 0 11-3 3 3 3 0 013-3zm16 0a3 3 0 11-3 3 3 3 0 013-3zm16 0a3 3 0 11-3 3 3 3 0 013-3zm16 0a3 3 0 11-3 3 3 3 0 013-3zm16 0a3 3 0 11-3 3 3 3 0 013-3zm16 0a3 3 0 11-3 3 3 3 0 013-3zm16 0a3 3 0 11-3 3 3 3 0 013-3zm16 0a3 3 0 11-3 3 3 3 0 013-3zm16 0a3 3 0 11-3 3 3 3 0 013-3zM3 240a3 3 0 11-3 3 3 3 0 013-3zm16 0a3 3 0 11-3 3 3 3 0 013-3zm16 0a3 3 0 11-3 3 3 3 0 013-3zm16 0a3 3 0 11-3 3 3 3 0 013-3zm16 0a3 3 0 11-3 3 3 3 0 013-3zm16 0a3 3 0 11-3 3 3 3 0 013-3zm16 0a3 3 0 11-3 3 3 3 0 013-3zm16 0a3 3 0 11-3 3 3 3 0 013-3zm16 0a3 3 0 11-3 3 3 3 0 013-3zm16 0a3 3 0 11-3 3 3 3 0 013-3zm16 0a3 3 0 11-3 3 3 3 0 013-3zm16 0a3 3 0 11-3 3 3 3 0 013-3zm16 0a3 3 0 11-3 3 3 3 0 013-3zm16 0a3 3 0 11-3 3 3 3 0 013-3zm16 0a3 3 0 11-3 3 3 3 0 013-3zm16 0a3 3 0 11-3 3 3 3 0 013-3zm16 0a3 3 0 11-3 3 3 3 0 013-3zm16 0a3 3 0 11-3 3 3 3 0 013-3zm16 0a3 3 0 11-3 3 3 3 0 013-3zm16 0a3 3 0 11-3 3 3 3 0 013-3zm16 0a3 3 0 11-3 3 3 3 0 013-3zM3 256a3 3 0 11-3 3 3 3 0 013-3zm16 0a3 3 0 11-3 3 3 3 0 013-3zm16 0a3 3 0 11-3 3 3 3 0 013-3zm16 0a3 3 0 11-3 3 3 3 0 013-3zm16 0a3 3 0 11-3 3 3 3 0 013-3zm16 0a3 3 0 11-3 3 3 3 0 013-3zm16 0a3 3 0 11-3 3 3 3 0 013-3zm16 0a3 3 0 11-3 3 3 3 0 013-3zm16 0a3 3 0 11-3 3 3 3 0 013-3zm16 0a3 3 0 11-3 3 3 3 0 013-3zm16 0a3 3 0 11-3 3 3 3 0 013-3zm16 0a3 3 0 11-3 3 3 3 0 013-3zm16 0a3 3 0 11-3 3 3 3 0 013-3zm16 0a3 3 0 11-3 3 3 3 0 013-3zm16 0a3 3 0 11-3 3 3 3 0 013-3zm16 0a3 3 0 11-3 3 3 3 0 013-3zm16 0a3 3 0 11-3 3 3 3 0 013-3zm16 0a3 3 0 11-3 3 3 3 0 013-3zm16 0a3 3 0 11-3 3 3 3 0 013-3zm16 0a3 3 0 11-3 3 3 3 0 013-3zm16 0a3 3 0 11-3 3 3 3 0 013-3zM3 272a3 3 0 11-3 3 3 3 0 013-3zm16 0a3 3 0 11-3 3 3 3 0 013-3zm16 0a3 3 0 11-3 3 3 3 0 013-3zm16 0a3 3 0 11-3 3 3 3 0 013-3zm16 0a3 3 0 11-3 3 3 3 0 013-3zm16 0a3 3 0 11-3 3 3 3 0 013-3zm16 0a3 3 0 11-3 3 3 3 0 013-3zm16 0a3 3 0 11-3 3 3 3 0 013-3zm16 0a3 3 0 11-3 3 3 3 0 013-3zm16 0a3 3 0 11-3 3 3 3 0 013-3zm16 0a3 3 0 11-3 3 3 3 0 013-3zm16 0a3 3 0 11-3 3 3 3 0 013-3zm16 0a3 3 0 11-3 3 3 3 0 013-3zm16 0a3 3 0 11-3 3 3 3 0 013-3zm16 0a3 3 0 11-3 3 3 3 0 013-3zm16 0a3 3 0 11-3 3 3 3 0 013-3zm16 0a3 3 0 11-3 3 3 3 0 013-3zm16 0a3 3 0 11-3 3 3 3 0 013-3zm16 0a3 3 0 11-3 3 3 3 0 013-3zm16 0a3 3 0 11-3 3 3 3 0 013-3zm16 0a3 3 0 11-3 3 3 3 0 013-3zM3 288a3 3 0 11-3 3 3 3 0 013-3zm16 0a3 3 0 11-3 3 3 3 0 013-3zm16 0a3 3 0 11-3 3 3 3 0 013-3zm16 0a3 3 0 11-3 3 3 3 0 013-3zm16 0a3 3 0 11-3 3 3 3 0 013-3zm16 0a3 3 0 11-3 3 3 3 0 013-3zm16 0a3 3 0 11-3 3 3 3 0 013-3zm16 0a3 3 0 11-3 3 3 3 0 013-3zm16 0a3 3 0 11-3 3 3 3 0 013-3zm16 0a3 3 0 11-3 3 3 3 0 013-3zm16 0a3 3 0 11-3 3 3 3 0 013-3zm16 0a3 3 0 11-3 3 3 3 0 013-3zm16 0a3 3 0 11-3 3 3 3 0 013-3zm16 0a3 3 0 11-3 3 3 3 0 013-3zm16 0a3 3 0 11-3 3 3 3 0 013-3zm16 0a3 3 0 11-3 3 3 3 0 013-3zm16 0a3 3 0 11-3 3 3 3 0 013-3zm16 0a3 3 0 11-3 3 3 3 0 013-3zm16 0a3 3 0 11-3 3 3 3 0 013-3zm16 0a3 3 0 11-3 3 3 3 0 013-3zm16 0a3 3 0 11-3 3 3 3 0 013-3zM3 304a3 3 0 11-3 3 3 3 0 013-3zm16 0a3 3 0 11-3 3 3 3 0 013-3zm16 0a3 3 0 11-3 3 3 3 0 013-3zm16 0a3 3 0 11-3 3 3 3 0 013-3zm16 0a3 3 0 11-3 3 3 3 0 013-3zm16 0a3 3 0 11-3 3 3 3 0 013-3zm16 0a3 3 0 11-3 3 3 3 0 013-3zm16 0a3 3 0 11-3 3 3 3 0 013-3zm16 0a3 3 0 11-3 3 3 3 0 013-3zm16 0a3 3 0 11-3 3 3 3 0 013-3zm16 0a3 3 0 11-3 3 3 3 0 013-3zm16 0a3 3 0 11-3 3 3 3 0 013-3zm16 0a3 3 0 11-3 3 3 3 0 013-3zm16 0a3 3 0 11-3 3 3 3 0 013-3zm16 0a3 3 0 11-3 3 3 3 0 013-3zm16 0a3 3 0 11-3 3 3 3 0 013-3zm16 0a3 3 0 11-3 3 3 3 0 013-3zm16 0a3 3 0 11-3 3 3 3 0 013-3zm16 0a3 3 0 11-3 3 3 3 0 013-3zm16 0a3 3 0 11-3 3 3 3 0 013-3zm16 0a3 3 0 11-3 3 3 3 0 013-3zM3 320a3 3 0 11-3 3 3 3 0 013-3zm16 0a3 3 0 11-3 3 3 3 0 013-3zm16 0a3 3 0 11-3 3 3 3 0 013-3zm16 0a3 3 0 11-3 3 3 3 0 013-3zm16 0a3 3 0 11-3 3 3 3 0 013-3zm16 0a3 3 0 11-3 3 3 3 0 013-3zm16 0a3 3 0 11-3 3 3 3 0 013-3zm16 0a3 3 0 11-3 3 3 3 0 013-3zm16 0a3 3 0 11-3 3 3 3 0 013-3zm16 0a3 3 0 11-3 3 3 3 0 013-3zm16 0a3 3 0 11-3 3 3 3 0 013-3zm16 0a3 3 0 11-3 3 3 3 0 013-3zm16 0a3 3 0 11-3 3 3 3 0 013-3zm16 0a3 3 0 11-3 3 3 3 0 013-3zm16 0a3 3 0 11-3 3 3 3 0 013-3zm16 0a3 3 0 11-3 3 3 3 0 013-3zm16 0a3 3 0 11-3 3 3 3 0 013-3zm16 0a3 3 0 11-3 3 3 3 0 013-3zm16 0a3 3 0 11-3 3 3 3 0 013-3zm16 0a3 3 0 11-3 3 3 3 0 013-3zm16 0a3 3 0 11-3 3 3 3 0 013-3zM3 336a3 3 0 11-3 3 3 3 0 013-3zm16 0a3 3 0 11-3 3 3 3 0 013-3zm16 0a3 3 0 11-3 3 3 3 0 013-3zm16 0a3 3 0 11-3 3 3 3 0 013-3zm16 0a3 3 0 11-3 3 3 3 0 013-3zm16 0a3 3 0 11-3 3 3 3 0 013-3zm16 0a3 3 0 11-3 3 3 3 0 013-3zm16 0a3 3 0 11-3 3 3 3 0 013-3zm16 0a3 3 0 11-3 3 3 3 0 013-3zm16 0a3 3 0 11-3 3 3 3 0 013-3zm16 0a3 3 0 11-3 3 3 3 0 013-3zm16 0a3 3 0 11-3 3 3 3 0 013-3zm16 0a3 3 0 11-3 3 3 3 0 013-3zm16 0a3 3 0 11-3 3 3 3 0 013-3zm16 0a3 3 0 11-3 3 3 3 0 013-3zm16 0a3 3 0 11-3 3 3 3 0 013-3zm16 0a3 3 0 11-3 3 3 3 0 013-3zm16 0a3 3 0 11-3 3 3 3 0 013-3zm16 0a3 3 0 11-3 3 3 3 0 013-3zm16 0a3 3 0 11-3 3 3 3 0 013-3zm16 0a3 3 0 11-3 3 3 3 0 013-3z"/></g></svg>