<svg xmlns="http://www.w3.org/2000/svg" width="70.29" height="75.091"><path data-name="Path 235" d="M61.973 31.668H7.365V.71h55.56v30.96zm-28.836 22.7L.7 74.117V32.993l33.772 20.566-1.33.81zm35.011 18.867L35.829 53.553l33.765-20.56v41.123l-1.446-.881zm-32.5-18.961L68.677 74.39H1.617l33.537-20.417.494.3zM8.569 36.952L.992 32.337l5.679-4.1v4.132h56.966v-4.124l5.665 4.091-7.809 4.756H8.8l-.232-.141zm8.909 5.425l-7.524-4.582h50.385l-7.755 4.723H17.708l-.232-.141zm8.911 5.427l-7.516-4.577h32.548l-7.749 4.719H26.62l-.233-.142zm8.264 5.033l-6.869-4.183H42.51l-7.363 4.484-.494-.3zM17.34 16.542h4.133v-.709H17.34v.709zm31.476 0h4.134v-.709h-4.134v.709zm-17.835-4.526a5.881 5.881 0 11-1.734 4.168 5.888 5.888 0 011.734-4.168zm-.508 8.834a6.588 6.588 0 10-1.936-4.666 6.609 6.609 0 001.936 4.666zm21.605 6.386H17.429l-.148-.774a5.964 5.964 0 00-4.7-4.711l-.773-.149V10.776l.773-.15a5.973 5.973 0 004.7-4.713l.148-.773h35.432l.148.773a5.976 5.976 0 004.7 4.713l.773.15v10.827l-.773.149a5.964 5.964 0 00-4.7 4.711l-.148.774zm-35.4.708h36.928v-.358a5.222 5.222 0 011.534-3.7 5.216 5.216 0 013.7-1.533h.347V10.026h-.347a5.249 5.249 0 01-5.237-5.244v-.351H16.681v.351a5.256 5.256 0 01-5.236 5.244H11.1v12.325h.348a5.246 5.246 0 015.236 5.236v.358zM0 75.091h70.29V32.18l-6.655-4.8V0H6.669v27.353L0 32.182v42.909z" fill="#fff"/></svg>