<svg xmlns="http://www.w3.org/2000/svg" width="74.118" height="70.231"><g data-name="Group 120"><path data-name="Path 233" d="M68.5 69.529h-4.022v-4.961h4.971v4.959zM2.69 57.935a6.773 6.773 0 11-1.994 4.8 6.776 6.776 0 011.994-4.8zm18.128-.982a3.869 3.869 0 011.241 2.5l.021.231-.088.215a7.383 7.383 0 00-.415 1.389 7.516 7.516 0 002.055 6.752 7.511 7.511 0 10-.072-10.527l-.835.859-.645-1.012a4.594 4.594 0 00-1.662-1.558 4.579 4.579 0 00-4.394 0 4.608 4.608 0 00-1.664 1.565l-.645 1.017-.838-.864a7.444 7.444 0 00-5.388-2.281 7.5 7.5 0 107.5 7.5 7.552 7.552 0 00-.137-1.435 7.442 7.442 0 00-.411-1.379l-.085-.21.018-.224a3.851 3.851 0 016.441-2.534zm3.31.983a6.768 6.768 0 11-2 4.8 6.779 6.779 0 012-4.8zm23.235-25.22H17.649V17.705h30.667v15.011zm-30.425.7h32.087V17.003H16.938v16.416zm17 16.989h15.081v-.7H33.933v.7zm-17-5.661H49.02v-.7H16.938v.7zm0-5.661H49.02v-.709H16.938v.709zm0-27.042H32.03v-.708H16.938v.708zm29.835 0h11.34v57.485h-17.3v.7h18.006V11.539L47.283 0H7.141v49.534h.709V.702h38.923v11.342zm.709-1.66V1.2l10.126 10.133H47.482v-.952zm21.967 28.877v24.61h-4.974V38.307h4.974v.951zm0-27.028v25.375h-4.974V11.838l2.5-2.48 2.477 2.483v.389zm1.647 52.34h3.019V38.908h-.71v24.96h-3.256V11.539l-3.177-3.184-3.189 3.185v58.691h6.366v-5.663z" fill="#fff"/></g></svg>