<svg xmlns="http://www.w3.org/2000/svg" width="305.453" height="64.337"><path data-name="Path 24" d="M68.847 22.851A7.147 7.147 0 0173.394 9.3a28.305 28.305 0 11-36.047 36.052A7.147 7.147 0 0150.894 40.8a14.021 14.021 0 1017.953-17.949zm-16.7 1l.081-.075.044-.041.106-.094.023-.02.113-.1.019-.016.124-.1.008-.006a7.1 7.1 0 011-.658h.006l.14-.074.022-.011.129-.064.033-.016.117-.055.053-.024.1-.043.07-.03.086-.035.088-.035.061-.023.121-.044.032-.011.14-.047.02-.006.147-.042a7.1 7.1 0 01.835-.193l.167-.026.162-.021h.024l.148-.016h.026l.142-.012h.06l.111-.007h.698l.111.007h.06l.142.012h.026l.148.016h.024l.162.021.167.026a7.094 7.094 0 01.835.193l.154.048.02.006.14.047.032.011.121.044.061.023.088.035.086.035.07.03.1.043.053.024.117.055.033.016.129.064.022.011.14.074h.006a7.108 7.108 0 011 .658l.008.006.124.1.019.016.113.1.023.02.106.094.044.041.081.075a4.892 4.892 0 01.249.249l.075.081.041.044.094.106.02.023.1.113.016.019c.033.04.065.08.1.12l.011.013q.051.065.1.132a7.1 7.1 0 01.555.866v.006l.074.14.011.022.064.128.017.036.053.113.025.056.042.1.033.079.03.074.038.1.022.058.045.123.01.028.048.142.006.019q.025.078.048.157a7.112 7.112 0 01.194.838q.014.084.026.169.012.081.022.163v.022l.016.149v.026c0 .047.008.094.012.142v.06c0 .037 0 .074.007.111s0 .068 0 .1v.598c0 .032 0 .074-.007.111v.06c0 .047-.008.094-.012.14v.027q-.007.074-.016.147v.024l-.021.162q-.012.084-.026.167a7.1 7.1 0 01-.193.835q-.023.078-.048.154l-.006.02-.047.14-.011.032-.043.119-.024.063-.036.091-.032.079-.031.074-.044.1-.023.051-.055.117-.016.033-.065.131-.01.019-.075.143a7.122 7.122 0 01-.659 1l-.006.008-.1.124-.016.019-.1.113-.02.023-.094.106-.041.044-.075.081c-.04.043-.082.085-.123.126l-.126.123-.081.075-.044.041-.106.094-.023.02-.113.1-.019.016-.124.1-.008.006a7.1 7.1 0 01-1 .658h-.006l-.14.074-.022.011-.129.064-.033.016-.093.062-.053.024-.1.043-.07.03-.086.035-.088.035-.061.023-.121.044-.032.011-.14.047-.02.006-.154.048a7.1 7.1 0 01-.835.193l-.167.026-.162.021h-.024l-.148.016h-.026l-.142.012h-.06l-.111.007h-.698l-.111-.007h-.06l-.142-.012h-.026l-.148-.016h-.024l-.162-.021-.167-.026a7.094 7.094 0 01-.835-.193l-.154-.048-.02-.006-.14-.047-.032-.011-.121-.044-.061-.023-.088-.035-.086-.035-.07-.03-.1-.043-.053-.024-.117-.055-.033-.016-.129-.064-.022-.011-.14-.074h-.006a7.113 7.113 0 01-1-.658l-.008-.006-.124-.1-.019-.016-.113-.1-.023-.02-.106-.094-.044-.041-.081-.075c-.043-.04-.085-.082-.126-.123l-.123-.126-.075-.081-.041-.044-.094-.106-.02-.023-.1-.113-.016-.019q-.051-.061-.1-.124l-.006-.008a7.109 7.109 0 01-.659-1q-.039-.071-.075-.143l-.01-.019-.065-.131-.016-.033-.055-.117-.023-.051-.044-.1-.029-.068-.036-.088-.034-.086-.025-.065-.043-.119-.011-.032-.047-.14-.006-.02-.048-.154a7.1 7.1 0 01-.21-.841q-.014-.083-.026-.167-.012-.081-.021-.162v-.024q-.009-.073-.016-.147v-.027l-.012-.14v-.06c0-.037 0-.074-.007-.111s0-.068 0-.1v-.598c0-.032 0-.074.007-.111v-.06c0-.047.008-.095.012-.142v-.026c0-.05.01-.1.016-.149v-.022q.01-.082.022-.163.012-.085.026-.169a7.083 7.083 0 01.194-.838q.023-.079.048-.157l.006-.019.048-.142.01-.028.045-.123.023-.06.035-.091.034-.083.03-.073.042-.1.025-.056.053-.113.017-.036.064-.128.011-.022.074-.14v-.006a7.085 7.085 0 01.555-.866l.1-.132.011-.013.1-.12.016-.019.1-.113.02-.023.094-.106.041-.044.075-.081c.04-.043.082-.085.123-.126l.126-.123zM53.789 0a4.263 4.263 0 104.263 4.263A4.263 4.263 0 0053.789 0zM4.263 21.484a4.263 4.263 0 104.267 4.262 4.263 4.263 0 00-4.263-4.263zM15.004 7.865A7.14 7.14 0 1022.144 15a7.14 7.14 0 00-7.14-7.135zm28.043 0A7.14 7.14 0 0035.907 15c0 5.141-2.6 6.881-6.881 6.881a7.14 7.14 0 107.14 7.14c0-4.279 1.733-6.881 6.881-6.881a7.14 7.14 0 000-14.28z" fill="#25aee5" fill-rule="evenodd"/><path data-name="Path 25" d="M120.656 42.111a9.231 9.231 0 01-12.555.012 8.662 8.662 0 01.031-12.285 9.237 9.237 0 0112.555-.012 8.662 8.662 0 01-.031 12.285zm-9.469-2.746a4.417 4.417 0 003.23 1.348 4.351 4.351 0 003.211-1.336 5.054 5.054 0 00-.027-6.791 4.416 4.416 0 00-3.227-1.35 4.368 4.368 0 00-3.215 1.336 5.057 5.057 0 00.027 6.793zm18.406 4.939h-3.531a.306.306 0 01-.3-.307V27.95a.305.305 0 01.3-.3h6.555a6.8 6.8 0 014.68 1.594 5.658 5.658 0 011.773 4.3 5.5 5.5 0 01-1.855 4.32 7.465 7.465 0 01-4.941 1.625h-2.375v4.508a.306.306 0 01-.305.306zm.3-12.861v4.295h2.492a2.709 2.709 0 001.824-.6 2.048 2.048 0 00.668-1.574 1.957 1.957 0 00-.641-1.559 2.947 2.947 0 00-1.922-.566zm23.7 12.861h-12.219a.308.308 0 01-.3-.307V27.95a.308.308 0 01.3-.3h12.105a.305.305 0 01.3.3v3.141a.306.306 0 01-.3.307h-8.293v2.643h7.258a.306.306 0 01.309.307v3.141a.3.3 0 01-.309.3h-7.258v2.76h8.406a.3.3 0 01.3.3v3.141a.3.3 0 01-.298.313zm6.625 0h-3.484a.308.308 0 01-.3-.307V27.95a.308.308 0 01.3-.3h3.258a.307.307 0 01.242.121l6.969 9.16v-8.977a.308.308 0 01.3-.3h3.484a.306.306 0 01.309.3v16.047a.306.306 0 01-.309.307h-3a.3.3 0 01-.242-.121l-7.227-9.482v9.3a.3.3 0 01-.299.298zm20.91-5.434h-7.062a.309.309 0 01-.309-.307v-3.346a.309.309 0 01.309-.307h7.063a.306.306 0 01.3.307v3.346a.306.306 0 01-.3.306zm6.6 5.434h-3.527a.309.309 0 01-.309-.307V27.95a.308.308 0 01.309-.3h12.215a.306.306 0 01.309.3v3.211a.306.306 0 01-.309.3h-8.379v2.8h7.348a.306.306 0 01.309.3v3.209a.306.306 0 01-.309.307h-7.348v5.906a.306.306 0 01-.311.32zm15.2 0h-3.531a.3.3 0 01-.3-.307V27.95a.3.3 0 01.3-.3h3.531a.308.308 0 01.3.3v16.047a.308.308 0 01-.298.306zm7.492 0h-3.484a.308.308 0 01-.3-.307V27.95a.308.308 0 01.3-.3h3.258a.3.3 0 01.242.121l6.969 9.16v-8.977a.308.308 0 01.309-.3h3.48a.306.306 0 01.309.3v16.047a.306.306 0 01-.309.307h-3a.307.307 0 01-.242-.121l-7.227-9.482v9.3a.3.3 0 01-.303.298zm16.852 0h-3.6a.361.361 0 01-.117-.025.309.309 0 01-.164-.4l6.875-16.141a.3.3 0 01.289-.207h3.25a.3.3 0 01.281.186l6.871 16.143a.324.324 0 01.035.139.309.309 0 01-.309.307h-3.691a.305.305 0 01-.281-.191l-1.391-3.408h-6.375l-1.383 3.395a.309.309 0 01-.289.201zm4.859-11.422l-1.68 4.094h3.359zm14.512 11.422h-3.484a.309.309 0 01-.309-.307V27.95a.308.308 0 01.309-.3h3.254a.3.3 0 01.242.121l6.969 9.16v-8.977a.308.308 0 01.309-.3h3.484a.308.308 0 01.309.3v16.047a.309.309 0 01-.309.307h-3a.313.313 0 01-.242-.121l-7.219-9.482v9.3a.309.309 0 01-.312.298zm26.1-.455a9.628 9.628 0 01-3.953.73 8.461 8.461 0 01-6.078-2.471 8.757 8.757 0 0110.027-13.951 9.508 9.508 0 012.613 1.914.3.3 0 01.016.418l-2.109 2.436a.31.31 0 01-.434.02 7.3 7.3 0 00-1.762-1.264 4.863 4.863 0 00-2.156-.445 4.135 4.135 0 00-3.09 1.344 5.2 5.2 0 000 6.8 4.123 4.123 0 003.086 1.336 4.834 4.834 0 002.188-.477 8.023 8.023 0 001.82-1.324.307.307 0 01.43.02l2.25 2.406a.3.3 0 010 .416 8.553 8.553 0 01-2.848 2.1zm17.664.455h-12.219a.306.306 0 01-.3-.307V27.95a.305.305 0 01.3-.3h12.105a.305.305 0 01.3.3v3.141a.306.306 0 01-.3.307H282v2.643h7.258a.3.3 0 01.3.307v3.141a.3.3 0 01-.3.3H282v2.76h8.406a.305.305 0 01.3.3v3.141a.306.306 0 01-.3.313zm13.359-1.191a6.914 6.914 0 01-4.508 1.42 10.681 10.681 0 01-3.773-.686 10.3 10.3 0 01-3.227-1.945l-.008-.008a.308.308 0 01-.039-.43l2.086-2.5a.308.308 0 01.43-.041 9.068 9.068 0 002.172 1.377 6.11 6.11 0 002.426.5 2.785 2.785 0 001.535-.361 1.033 1.033 0 00.477-.891.912.912 0 00-.477-.844 9 9 0 00-2.5-.9l-.031-.006a10.736 10.736 0 01-3.98-1.631 4.232 4.232 0 01-1.566-3.615 4.784 4.784 0 011.664-3.723 6.437 6.437 0 014.258-1.422 10.094 10.094 0 013.3.531 9.438 9.438 0 012.859 1.578.307.307 0 01.055.41l-1.832 2.66a.308.308 0 01-.426.076 10.093 10.093 0 00-2.047-1.127 5.385 5.385 0 00-1.953-.4 2.322 2.322 0 00-1.328.33.962.962 0 00-.43.807.951.951 0 00.547.922 11.6 11.6 0 002.672.891h.016a9.537 9.537 0 013.891 1.746 4.212 4.212 0 011.43 3.406 4.858 4.858 0 01-1.692 3.874z" fill="#fff"/></svg>