<svg xmlns="http://www.w3.org/2000/svg" width="79.15" height="80.222"><path data-name="Path 62" d="M77.237 79.457H.842v-5.435h77.466v5.435zm-41.8-62.846a5.733 5.733 0 018.267 0 5.782 5.782 0 011.684 4.134 6.118 6.118 0 01-1.684 4.134 5.846 5.846 0 11-8.267-8.267zm-.612 8.88a6.654 6.654 0 009.492 0 6.654 6.654 0 000-9.492 6.712 6.712 0 10-9.492 9.492zm37.2 44.321v3.368h-9.109v-4.516h9.109v1.148zm-9.875-1.914v5.282h-7.884V67.9h-2.6V45.393h2.6v-5.282h7.884v5.282h2.6V67.9zm6.124 0h-2.756V45.393h3.827V67.9zm4.593 0h-2.679V45.393h2.679v-5.282h6.277v-7.042h-6.507L39.575 0 6.506 33.069H0v7.042h6.277v5.282h2.6V67.9h-2.6v5.282H0v7.042h79.15V73.18h-6.277V67.9zm4.363-28.552H.842v-5.435h77.466v5.435zm-26.486 7.119V67.9h-3.827V45.393h3.827v1.072zm-4.593 0V67.9h-2.6v5.282h-7.884V67.9h-2.679V45.393h2.679v-5.282h7.884v5.282h2.6v1.072zm-14.008 0V67.9h-3.827V45.393h3.827v1.072zm-4.593 0V67.9h-2.6v5.282h-7.88V67.9h-2.679V45.393h2.679v-5.282h7.884v5.282h2.6v1.072zm-14.008 0V67.9H9.715V45.393h3.827v1.072zm55.268-13.4H7.578l31.92-31.92 31.92 31.92zm-5.894 10.41v-3.368h9.109v4.516h-9.109v-1.148zm-17.529-3.368h8.038v4.516h-9.109v-4.516zm-18.6 0h8.038v4.516H25.72v-4.516zm-18.6 0h8.038v4.516H7.116v-4.516zm45.24 29.7v3.368h-9.109v-4.516h9.109v1.148zm-18.6 0v3.368H25.72v-4.516h9.109v1.148zm-18.678 0v3.368H7.04v-4.516h9.109v1.148z" fill="#25aee5"/></svg>