<svg version="1.0" xmlns="http://www.w3.org/2000/svg" width="346.667" height="346.667" viewBox="0 0 260 260"><path d="M183.8 47.1c-5.8 1-15.1 3-20.5 4.4-5.4 1.5-13.7 3.5-18.5 4.4l-8.7 1.8-.6-2.8c-.9-4-3.9-6.1-9.3-6.7-4.6-.4-5.2-.2-8.4 3.1-6.8 6.8-13.9 23.9-22.8 55.2-1.7 6.1-3.3 11.7-3.5 12.5-1.1 5.3-9.4 32.7-13.2 44-15.4 45.6-16.4 56.1-6 61.7 3.6 1.9 17.7 2.4 27.8 1 23-3.2 63.6-19.9 75.2-31 9.2-8.7 6.9-15.8-4.9-15.1-6.3.4-12.4 2.7-25.2 9.8-9.6 5.4-26.4 11.8-34.7 13.3-2.2.4-7.1.7-11 .7l-7 .1-.1-5.5c-.1-5.4 4.2-24.6 6.9-31.2 1.2-2.9 2.1-3.5 7-4.5 5-1 18.1-5.8 27.5-10 6.2-2.7 23.8-9.1 36.3-13.2 12.8-4.2 20.4-8.2 23.3-12.2 2-2.9 2.1-8.3.1-9.9-1.9-1.6-8.9-1.4-15.5.5-3 .9-6.5 1.8-7.7 2.1-2.1.4-18.6 5.5-36.8 11.4-13.2 4.3-23.8 7-24.4 6.4-1.4-1.3 12.9-40.1 16.9-45.9 5.3-7.7 9.7-9.9 34.2-16.9 12.3-3.5 24.1-6.7 26.3-7.1 2.2-.4 4.9-.9 6-1.1 11.2-2 25.5-4.4 25.9-4.4.3 0 2.1-1.4 4.1-3.1 5.7-5.1 4.5-10.1-3.2-12.7-4.8-1.6-23.4-1.1-35.5.9z"/></svg>