<svg xmlns="http://www.w3.org/2000/svg" width="144.7" height="42.5"><g data-name="Group 104" fill="#afb0af"><path data-name="Path 156" d="M43.3 41.1v-4.5h-2.6v4.5h-1.2v-5.5h4.9v5.5z"/><path data-name="Path 157" d="M46.3 40.5v2h-1V37h1v.5a1.426 1.426 0 011.2-.6 1.881 1.881 0 011.8 2.1c0 1.3-.7 2.1-1.8 2.1q-.6.15-1.2-.6m1.9-1.4a1.062 1.062 0 00-1-1.2 1.193 1.193 0 00-.9.5v1.4a1.624 1.624 0 00.9.5 1.12 1.12 0 001-1.2"/><path data-name="Path 158" d="M49.7 41.1l.9-1.4a1.123 1.123 0 01-.9-1.2 1.288 1.288 0 011.4-1.3h2.4v4h-1v-1.4h-.8l-.8 1.4h-1.2zm2.8-2.3v-.9h-1.2a.457.457 0 00-.5.4c0 .3.2.4.5.4h1.2z"/><path data-name="Path 159" d="M58 41.1v-2.6l-1.1 2.6h-.4l-1.1-2.6v2.6h-1v-4h1.3l1 2.3 1-2.3H59v4z"/><path data-name="Path 160" d="M59.6 39.1a2.049 2.049 0 012.1-2.1 2.049 2.049 0 012.1 2.1 2.049 2.049 0 01-2.1 2.1 2.049 2.049 0 01-2.1-2.1m3.1 0a1.12 1.12 0 00-1-1.2 1.062 1.062 0 00-1 1.2 1.12 1.12 0 001 1.2 1.12 1.12 0 001-1.2"/><path data-name="Path 161" d="M68.8 41.1l-1-1.6-.5.5v1.1h-1v-4h1v1.8l1.5-1.8h1.3l-1.6 1.8 1.6 2.2z"/><path data-name="Path 162" d="M75.5 41.1h-3.2v-4h1.1v3H75v-3h1.1v3h.4v2h-1z"/><path data-name="Path 163" d="M76.7 39.1a1.994 1.994 0 012.1-2.1 2 2 0 012 2.2v.2h-2.9a1.088 1.088 0 001.1.9 1.667 1.667 0 001.1-.4l.5.7a2.272 2.272 0 01-1.6.6 2.106 2.106 0 01-2.3-2.1m2-1.3a1.071 1.071 0 00-1 .9h2a.921.921 0 00-1-.9"/><path data-name="Path 164" d="M80.9 40.3c.3 0 .5-.3.6-1.3l.3-1.9H85v4h-1V38h-1.3l-.1 1.1c-.2 1.4-.7 2-1.7 2z"/><path data-name="Path 165" d="M85.8 41.1v-4h1.1v2.4l1.6-2.4h1.1v4h-1.1v-2.5l-1.7 2.5z"/><path data-name="Path 166" d="M13.2 0c2.8 0 3.7 2 4.4 4 .3.8 7.6 20.7 7.8 21.3a.365.365 0 01-.2.5c-.3.1-4 1.6-4.2 1.6a.365.365 0 01-.5-.2c-.1-.2-1.6-4.5-1.8-5H7.8c-.2.5-1.8 4.8-1.8 5a.365.365 0 01-.5.2c-.2-.1-4-1.6-4.2-1.6a.365.365 0 01-.2-.5C1.4 24.6 8.5 5 8.9 4c.6-2 1.5-4 4.3-4M.4 35.6a.43.43 0 00-.4.4v4.6a.43.43 0 00.4.4h25.5a.43.43 0 00.4-.4V36a.43.43 0 00-.4-.4H.4M13.2 6.5L9.6 17.4h7.3L13.2 6.5z"/><g data-name="Group 103"><path data-name="Path 167" d="M112.5 22.3a1.972 1.972 0 01-2.1 2.2 5.555 5.555 0 01-1.7-.2v-4c.3 0 .9-.1 1.7-.1 1.4 0 2.1.6 2.1 2.1m2.7-.2c0-2.4-1.4-4.1-4.4-4.1a6.931 6.931 0 00-2 .3v-3.5a14.158 14.158 0 012.3-.1 15.648 15.648 0 013 .2l.1-2a24.626 24.626 0 00-4-.4 16.845 16.845 0 00-4.1.6v13a12.6 12.6 0 004.3.8c3.1-.3 4.8-2.1 4.8-4.8"/><path data-name="Path 168" d="M84.2 21.4c0 1.8-.7 3-1.9 3a2.954 2.954 0 01-1.3-.2v-5.4a2.876 2.876 0 011.5-.3c1.1-.1 1.7.9 1.7 2.9m-9 0q0-3 1.8-3a3.06 3.06 0 011.5.3v5.4a3.178 3.178 0 01-1.3.2c-1.5 0-2-1.1-2-2.9m5.8 8.2v-3.5a3.906 3.906 0 002.1.5c2.2 0 3.8-1.8 3.8-5.1 0-3.6-1.6-5.1-4.2-5.1a3.808 3.808 0 00-1.6.3v-4.2h-2.6v4.2a2.877 2.877 0 00-1.6-.3c-2.6 0-4.2 1.6-4.2 5.2 0 3.3 1.5 5.1 3.8 5.1a3.906 3.906 0 002.1-.5v3.5H81"/><path data-name="Path 169" d="M59 26.3v-7.7a6.631 6.631 0 00-1.3-.1 7.6 7.6 0 00-1.4.1v3.6c0 2.9-.8 3.8-2.9 4.4l-.7-1.5a2.551 2.551 0 00.9-1.2 7.269 7.269 0 00.2-2.1v-4.9a13.2 13.2 0 013.9-.6 13.2 13.2 0 013.9.6v9.5H59z"/><path data-name="Path 170" d="M93.2 24.3a3.645 3.645 0 01-1.4.2c-.9 0-1.5-.4-1.5-1.3 0-1 .7-1.3 1.9-1.3a1.948 1.948 0 01.8.1v.7c.1.7.1 1.2.2 1.6m3.3 1.1a4.462 4.462 0 01-.9-3v-2.7a4.432 4.432 0 00-.5-2.5c-.5-.7-1.4-1.1-3-1.1a11.95 11.95 0 00-3.3.4l.4 1.9a16.808 16.808 0 012-.2c1.7 0 1.9.3 1.9 1.5v.5a5.062 5.062 0 00-1.3-.2c-2.6 0-4 1.3-4 3.3a2.937 2.937 0 003.2 3 5.413 5.413 0 001.9-.3 2.774 2.774 0 00.9-.5 2.158 2.158 0 001 .8z"/><path data-name="Path 171" d="M121.5 24.3a3.645 3.645 0 01-1.4.2c-.9 0-1.4-.4-1.4-1.3 0-1 .7-1.3 1.9-1.3a1.948 1.948 0 01.8.1v.7a7.115 7.115 0 00.1 1.6m3.3 1.1a4.462 4.462 0 01-.9-3v-2.7a4.432 4.432 0 00-.5-2.5c-.5-.7-1.4-1.1-3-1.1a11.95 11.95 0 00-3.3.4l.4 1.9a16.808 16.808 0 012-.2c1.7 0 1.9.3 1.9 1.5v.5a5.062 5.062 0 00-1.3-.2c-2.6 0-4 1.3-4 3.3a2.937 2.937 0 003.2 3 5.413 5.413 0 001.9-.3 2.774 2.774 0 00.9-.5 2.158 2.158 0 001 .8z"/><path data-name="Path 172" d="M68.8 22.9c0 1-.3 1.6-1.6 1.6a2.345 2.345 0 01-1.1-.2v-2.8a8.9 8.9 0 011.1-.2c1.2.1 1.6.7 1.6 1.6m-5.3-6.5v9.4a10.21 10.21 0 003.8.7c2.7 0 4.2-1.4 4.2-3.8 0-2.1-1.3-3.4-3.7-3.4a11.154 11.154 0 00-1.7.2v-3.2h-2.6z"/><path data-name="Path 173" d="M131.6 26.3v-4h-2.9v4h-2.6v-9.8h2.6v3.7h2.9v-3.7h2.6v9.8z"/><path data-name="Path 174" d="M141.9 26.3s-.9-2.1-1.3-3.1c-.4-.8-.5-1-1.3-1h-.4v4h-2.6v-9.8h2.6v3.7h.4c.7 0 .8-.2 1-.8a9.145 9.145 0 01.7-1.4 2.327 2.327 0 01.7-1.1 2.286 2.286 0 011.4-.6h1.2l-.1 1.8a.734.734 0 00-.6.1c-.3.2-.4.4-.8 1.4-.5 1-.9 1.3-1.4 1.4a2.073 2.073 0 011.5 1.5c.3.7 1.8 3.7 1.8 3.7h-2.8z"/><path data-name="Path 175" d="M49 26.3h3l-4.5-13.8a4.672 4.672 0 00-1.7-.3 3.654 3.654 0 00-1.5.3l-4.8 13.8h2.9l.9-2.7h4.9c.4 1.5.8 2.7.8 2.7m-5-5s.8-2.8.9-3.2c.3-1.1.8-2.9.8-2.9h.1s.5 1.8.8 2.9c.1.4.9 3.2.9 3.2z"/><path data-name="Path 176" d="M102.5 21.4a1.666 1.666 0 01-1.6 1.7 1.685 1.685 0 01-1.7-1.7 1.686 1.686 0 011.7-1.7 1.6 1.6 0 011.6 1.7"/></g></g></svg>