<svg xmlns="http://www.w3.org/2000/svg" width="111.408" height="29.028"><g data-name="4PqOMV"><g data-name="Group 141"><path data-name="Path 256" d="M13.72 16.043a8.527 8.527 0 00-1.672-1.323 5.5 5.5 0 00-5.268-.216 4.838 4.838 0 00-2.363 2.288 6.162 6.162 0 00-.012 5.791 5.443 5.443 0 007.389 2.245 8.1 8.1 0 001.872-1.41c.206.052.277.225.384.352.505.6.995 1.216 1.507 1.811.175.2.216.339.015.564a7.924 7.924 0 01-6.067 2.83 9.822 9.822 0 01-5.388-1.427 8.35 8.35 0 01-3.952-6.013 10.33 10.33 0 01.46-5.415 8.427 8.427 0 016.071-5.347 8.933 8.933 0 015.9.287 8.313 8.313 0 012.995 2.236c.1.118.224.219.074.4-.648.771-1.291 1.55-1.945 2.347z" fill="#afb0af"/><path data-name="Path 257" d="M36.035 24.693a.19.19 0 01.038.211c-.248.98-.5 1.959-.743 2.94a.566.566 0 01-.329.377 5.587 5.587 0 01-3.905.571 3.952 3.952 0 01-3.085-3.38 6.372 6.372 0 01-.111-1.354v-9.374c0-.649.054-.575-.6-.578-.716 0-1.432-.009-2.147 0-.26 0-.376-.06-.371-.348.016-.89.014-1.781 0-2.671 0-.277.1-.362.365-.357.75.013 1.5.006 2.252 0 .5 0 .5 0 .5-.522 0-.925.006-1.85 0-2.775a.475.475 0 01.273-.5c1.082-.564 2.153-1.148 3.243-1.732.143.188.085.384.086.563.006 1.432 0 2.863 0 4.294 0 .1.009.21 0 .314-.027.272.086.372.361.365.593-.015 1.187 0 1.78 0 .419 0 .838.009 1.257 0 .236-.007.348.054.344.319q-.019 1.361 0 2.723c0 .249-.076.335-.329.333-.925-.011-1.85 0-2.775 0-.122 0-.245.006-.367 0-.207-.009-.277.1-.27.29v8.955a5.927 5.927 0 00.068.991 1.425 1.425 0 001.427 1.279 4.549 4.549 0 002.315-.547c.247-.126.483-.262.723-.387z" fill="#afb0af"/><path data-name="Path 258" d="M49.597 13.284c.314-.281.568-.491.8-.721a6.971 6.971 0 013.451-1.969 5.515 5.515 0 016.395 2.98 10.736 10.736 0 011.036 3.654 17.081 17.081 0 01-.284 5.928 9.687 9.687 0 01-1.524 3.473 5.8 5.8 0 01-8.257 1.19 9.315 9.315 0 01-1.178-1.112 1.388 1.388 0 00-.441-.4v1.454c0 .885 0 .885-.871.885-.314 0-.628-.006-.942 0-.2 0-.294-.069-.283-.273.007-.122 0-.244 0-.366q0-11.15-.013-22.3a.875.875 0 01.556-.924c.5-.241.97-.541 1.51-.847a15.948 15.948 0 01.041 1.893c.011.611 0 1.221 0 1.832v5.625zm9.718 6.333c0-.366.02-.734 0-1.1a9.773 9.773 0 00-.888-3.793 4.2 4.2 0 00-5.009-2.338 6.606 6.606 0 00-3.692 2.506.705.705 0 00-.125.491v8.584a.99.99 0 00.2.628 5.892 5.892 0 005.3 2.6 3.606 3.606 0 002.705-1.394 5.783 5.783 0 001-2 13.917 13.917 0 00.509-4.184z" fill="#afb0af"/><path data-name="Path 259" d="M110.32 10.833a1.432 1.432 0 01-.338.576c-1.27 1.751-2.538 3.5-3.826 5.241a.7.7 0 00-.077.842q2.544 5.248 5.058 10.51c.089.184.167.374.272.61-.729.061-1.4.025-2.073.024-.228 0-.251-.219-.322-.366-.572-1.2-1.136-2.394-1.7-3.592q-1.274-2.7-2.55-5.39a.863.863 0 00-.211-.358c-.148.008-.184.141-.25.233-.965 1.347-1.922 2.7-2.892 4.044a1.155 1.155 0 00-.234.723c.01 1.413.006 2.827 0 4.24 0 .466-.005.469-.449.472s-.907-.007-1.361 0c-.228.006-.319-.087-.3-.308.007-.1 0-.209 0-.314q0-11.176-.009-22.352a.807.807 0 01.494-.856c.528-.255 1.027-.572 1.62-.909v16.86c.228-.04.26-.195.329-.3 2.061-3.155 4.27-6.209 6.384-9.327a.62.62 0 01.6-.31c.604.021 1.21.007 1.835.007z" fill="#afb0af"/><path data-name="Path 260" d="M75.034 26.129c-.311.3-.559.532-.8.772a6.957 6.957 0 01-3.258 1.9 7.057 7.057 0 01-4.023-.149 4.4 4.4 0 01-2.881-2.894 7.021 7.021 0 01-.2-3.771 4.787 4.787 0 012.667-3.368 8.518 8.518 0 014.478-.811 8.759 8.759 0 013.752 1.035.22.22 0 00.216.039c.095-.079.052-.209.049-.32a27.019 27.019 0 00-.081-3.189 3.428 3.428 0 00-3.393-3.162 9.143 9.143 0 00-4.861.985 22.56 22.56 0 01-.469.23c-.013.006-.032 0-.08 0-.262-.452-.44-.962-.674-1.446-.112-.231.075-.269.206-.333a11 11 0 012.361-.839 11.888 11.888 0 015.086-.166 4.571 4.571 0 013.915 4.183 9.369 9.369 0 01.089 1.3v12.252c.005.167-.056.262-.239.261h-1.623c-.23 0-.236-.15-.236-.317v-1.675zm0-3.592c0-.505-.03-1.013.01-1.515a.652.652 0 00-.45-.714 9.22 9.22 0 00-5.86-.721 3.363 3.363 0 00-2.872 2.749 5.5 5.5 0 00-.031 1.771 3.363 3.363 0 003.317 3.213 6.325 6.325 0 005.72-2.631.79.79 0 00.169-.531c-.008-.54-.003-1.08-.003-1.62z" fill="#afb0af"/><path data-name="Path 261" d="M15.468 7.709c3.9-5.15 8.978-7.846 15.433-7.7a17.113 17.113 0 019.174 3 17.524 17.524 0 014.875 4.81h-.491c-1.1 0-2.2-.017-3.3.01a.975.975 0 01-.765-.345 14.237 14.237 0 00-7.2-3.925 14.145 14.145 0 00-12.162 3 11.7 11.7 0 00-1.16 1.056.579.579 0 01-.452.208c-1.256-.008-2.512-.007-3.768-.01-.025-.009-.053-.036-.184-.104z" fill="#e0e0e0"/><path data-name="Path 262" d="M83.534 13.463a1.321 1.321 0 00.4-.465 5.665 5.665 0 015.612-2.509 6.479 6.479 0 011.131.2 4.977 4.977 0 013.349 2.923 8.486 8.486 0 01.7 3.095c.042.958.037 1.919.039 2.878q.007 4.24 0 8.48c0 .671.006.568-.552.573-.419 0-.838-.007-1.256 0-.224.005-.323-.079-.305-.306.009-.121 0-.244 0-.366v-9.893a10.553 10.553 0 00-.331-2.8 5.061 5.061 0 00-.447-1.114 3.4 3.4 0 00-2.044-1.687 5.337 5.337 0 00-2.69-.117 4.035 4.035 0 00-2.878 2.3 7.781 7.781 0 00-.719 3.505c-.011 3.281 0 6.561-.005 9.841 0 .723.069.626-.65.633-.366 0-.734-.014-1.1.005-.284.015-.375-.109-.348-.37a2.523 2.523 0 000-.261V11.466c0-.712-.084-.627.65-.633.384 0 .768.01 1.152 0 .234-.008.3.094.3.311-.013.751-.008 1.497-.008 2.319z" fill="#afb0af"/><path data-name="Path 263" d="M21.565 19.681v8.323c0 .122-.006.245 0 .366.011.2-.081.276-.28.275-1.03-.005-2.059-.008-3.089 0-.259 0-.343-.106-.322-.344.008-.087 0-.174 0-.262v-16.7a2.174 2.174 0 000-.262c-.034-.281.1-.359.362-.356.959.011 1.919 0 2.879.005.442 0 .447.006.448.47v6.962z" fill="#afb0af"/><path data-name="Path 264" d="M38.97 19.703v-8.324c0-.122.006-.245 0-.366-.01-.192.055-.286.266-.285q1.57.009 3.141 0c.2 0 .293.069.28.275-.008.122 0 .244 0 .366v16.648c0 .689.069.624-.609.626h-2.67c-.4 0-.4-.008-.406-.406v-4.764z" fill="#afb0af"/></g></g></svg>