<svg xmlns="http://www.w3.org/2000/svg" width="103.5" height="27.754"><g data-name="Group 102" fill="#afb0af"><path data-name="Path 152" d="M0 .454v27.2h27.2V.454zm26.4 26.5H.7v-25.7h25.7z"/><path data-name="Path 153" d="M6.4 12.054l1.3-1.1v-2.4l.8.6v3.1l1.6 1.6-8 7.9 3.3 3.4 7.8-8 8.1 8.1 3.4-3.4-8-8 1.5-1.5v-3.2l1-.8v2.5l1.2 1 3.7-3.7 1.2.9c.7-2.6-3.4-8.5-6.8-5.3l-3.9 3.9.8 1-2 2-1.9-1.9 1-.9-4.3-4.2c-3.2-2.7-6.6 1.4-6.7 5.4l1.2-1z"/><path data-name="Path 154" d="M18.7 3.854l-3.9 3.9.8 1-2 2-1.9-1.9 1-.9-4.3-4.2c-3.2-2.7-6.6 1.4-6.7 5.4l1.2-1 3.6 3.9 1.3-1.1v-2.4l.8.6v3.1l1.6 1.6-8 7.9 3.3 3.4 7.8-8 8.1 8.1 3.4-3.4-8-8 1.5-1.5v-3.2l1-.8v2.5l1.2 1 3.7-3.7 1.2.9c.8-2.5-3.3-8.5-6.7-5.2z"/><path data-name="Path 155" d="M34.1 3.754v2.4h1a1.249 1.249 0 000-2.4zm-2.8-2.4v10.7h2.9v-3.5l2.5 3.5h3.4l-3-4.3a3.334 3.334 0 00-1.5-6.4zm13.3 5.4a1.605 1.605 0 011.7 1.6 1.666 1.666 0 01-1.7 1.6 1.666 1.666 0 01-1.7-1.6 1.666 1.666 0 011.7-1.6zm-.6-2.4a3.771 3.771 0 012.1.7v-.4h2.8v7.4H46v-.5a3.771 3.771 0 01-2.1.7 3.909 3.909 0 01-3.8-4 3.9 3.9 0 013.9-3.9zm6.5.3h3v7.4h-3v-7.4zm1.5-4.2a1.58 1.58 0 011.6 1.6 1.58 1.58 0 01-1.6 1.6 1.58 1.58 0 01-1.6-1.6 1.58 1.58 0 011.6-1.6zm22.8 4.2h3v7.4h-3v-7.4zm1.5-4.2a1.58 1.58 0 011.6 1.6 1.58 1.58 0 01-1.6 1.6 1.58 1.58 0 01-1.6-1.6 1.58 1.58 0 011.6-1.6zM54 4.654v2.4h1v5.1h2.9v-5.1h2.7v5.1h3v-5.1h1.9v-2.3h-2v-1.7c0-.6 1.4-.9 1.9-.4v-2.4c-2.8-.9-5 .7-5 3.1v1.3h-2.6v-1.6c0-.6 1.2-.9 1.9-.4v-2.4c-2.4-.7-5 .5-4.9 3.1v1.3zm15.8 7.6c2.6 0 3.5-1.1 4.1-2.6h-2.6a1.507 1.507 0 01-2.8-.8H74c0-3-1.6-4.4-4.2-4.4a3.941 3.941 0 00-4.2 4 4.023 4.023 0 004.2 3.8zm-.9-5.2c0-.9 2-.9 2.1 0zm21.4 5.2c2.6 0 3.5-1.1 4.1-2.6h-2.6a1.507 1.507 0 01-2.8-.8h5.5c0-3-1.6-4.4-4.2-4.4a3.941 3.941 0 00-4.2 4 3.961 3.961 0 004.2 3.8zm-1-5.2c0-.9 2-.9 2.1 0zm-4-2.3l-.9 1.8c-1.1-.3-2.2-.3-2.2 0 0 .2-.1.5 1.6.8 2.6.4 2.4 5.2-2 4.9a6.634 6.634 0 01-3-.9l1-1.9c1.4.7 2.7 1.1 2.8.4.1-.8-1.4-.5-2.4-1.2-1.7-1-.7-4.2 2-4.3a10.557 10.557 0 013.1.4zm10.3-.1v7.4h2.8v-4.5c.1-1.1 2.3-1.3 2.3 0v4.5h2.8v-4.7c-.1-2.6-2.8-3.9-5.3-2.2v-.6h-2.6zm-62.7 12l-1.9 11h5.3c3.6 0 5.1-4.5 2.5-6 2.2-2 1.1-5.1-1.3-5.1l-4.6.1zm2.2 6.6l-.4 1.8h1.2c1.4.1 1.2-1.8.4-1.8zm.6-4l-.3 1.5h.4c1.1.1 1.8-1.5.4-1.5zm4.4 8.4h3.2l1-1.9h3.6l.5 2h3l-2.6-11h-3l-5.7 10.9zm5.2-4.2h2l-.6-2.9-1.4 2.9zm7.1 4.3h3l.8-6.9 4.2 6.9h3.2l1.3-11h-3l-.8 6.9-4.2-6.9h-3.1l-1.4 11zm14.6-11.2l-2.1 11.1H68l.8-4.1 2.8 4.1h4.1l-4-5.8 5.1-5.3h-4l-3.5 3.9.6-3.9z" fill-rule="evenodd"/></g></svg>