<svg xmlns="http://www.w3.org/2000/svg" width="83.984" height="30.139"><g data-name="Group 112"><path data-name="Path 77" d="M24.3 3.979H4.32L5.759 0h19.98zm-.762 1.947H3.558L2.119 9.905h19.98zm-2.117 6.011H1.441L.002 15.916h19.98z" fill="#e0e0e0"/><path data-name="Path 78" d="M71.962 25.991h3.556a3.2 3.2 0 002.794-1.1 3.589 3.589 0 00.677-2.286 3.018 3.018 0 00-1.27-2.709 3.9 3.9 0 00-2.286-.593h-3.556v6.688zm-4.741 4.064V6.265h15.495l-1.355 3.979h-9.4v5.249h3.81c3.048 0 4.656.762 5.842 1.693a7.092 7.092 0 012.371 5.672 6.955 6.955 0 01-2.794 5.926c-1.524 1.016-3.048 1.355-6.18 1.355h-7.794zm-13.715 0V10.244h-6.858V6.265h19.133l-1.355 3.979h-6.1v19.811zM34.457 15.747h2.709a7.347 7.347 0 001.609-.085 2.639 2.639 0 001.778-2.709 2.427 2.427 0 00-1.778-2.625 8.308 8.308 0 00-1.778-.169h-2.54v5.588zm.085 4.064v6.265h3.3a3.607 3.607 0 002.54-.677 3.075 3.075 0 00.931-2.455 3.211 3.211 0 00-.593-2.032c-.677-.847-1.524-1.1-3.048-1.1zm7.62-2.455a11.278 11.278 0 012.2 1.355 5.6 5.6 0 012.032 4.656c0 3.217-1.693 5.588-4.572 6.35a11.8 11.8 0 01-3.471.339h-8.635V6.265h7.62a13.643 13.643 0 013.556.338c2.794.762 4.572 2.625 4.572 5.672a5.429 5.429 0 01-1.524 3.895 10.466 10.466 0 01-1.779 1.185z" fill="#afb0af"/></g></svg>