<svg xmlns="http://www.w3.org/2000/svg" width="64.747" height="79.714"><path data-name="Path 237" d="M31.7 62.688l-4.833-4.935-7.317 2.9-2.745-7.378-7.866-.33.492-7.85-7.048-3.508 3.648-6.967-5.023-6.071 6.171-4.893-2.117-7.576 7.625-1.956 1.147-7.793 7.767 1.313L25.82.998l6.557 4.358L38.929.998l4.221 6.646 7.763-1.313 1.151 7.793 7.623 1.956-2.119 7.576 6.172 4.893-5.02 6.071 3.65 6.967-7.052 3.508.492 7.85-7.869.33-2.745 7.378-7.313-2.9-5.5 5.627-.679-.693zm-6.816-37.984a2.925 2.925 0 11-.857 2.069 2.921 2.921 0 01.857-2.069zm-.5 4.634a3.63 3.63 0 10-1.062-2.565 3.63 3.63 0 001.062 2.565zm11.341 6.209a2.919 2.919 0 014.136 0 2.924 2.924 0 11-4.135 4.134 2.916 2.916 0 010-4.13zm-.5 4.637a3.629 3.629 0 005.132 0 3.632 3.632 0 10-5.132 0zm-11.131-.213l.5.5L40.651 24.41l-.5-.5-16.06 16.061zm-4.84-20.9a18.533 18.533 0 11-5.443 13.121 18.5 18.5 0 015.443-13.121zm-.5 26.738a19.238 19.238 0 10-5.65-13.617 19.212 19.212 0 005.65 13.617zm-1.815 24.545l3.314 9.359 8.884-18.624 3.238 3.3 3.233-3.3 8.883 18.621 3.631-10.256 10.255 3.634-9.134-19.156 7.321-.309-.509-8.11 7.284-3.617-3.769-7.2 5.177-6.256-6.366-5.047 2.186-7.829-7.876-2.024-1.188-8.036-8.015 1.362L39.133 0l-6.76 4.5L25.607 0l-4.355 6.866-8.016-1.362-1.184 8.036-7.876 2.025 2.188 7.828-6.368 5.047 5.181 6.256-3.766 7.2 7.279 3.616-.509 8.11 7.318.309-9.135 19.156 10.256-3.634.317.9zm-8.21-.576l7.556-15.848 2.847 7.649 7.553-2.991 1.926 1.964-8.258 17.313-3.3-9.313-9.311 3.3.987-2.071zm36.882-8.2l2.846-7.65L57 71.849l-9.311-3.3-3.3 9.314-8.256-17.312 1.925-1.966 7.552 2.99z" fill="#fff"/></svg>