<svg xmlns="http://www.w3.org/2000/svg" width="70.304" height="67.401"><path data-name="Path 238" d="M19.348 43.498h-4.141V32.604H20.3v10.894zm34.8 0h-4.141V32.604H55.1v10.894zm-4.85.7h6.511v-5.773l.877-.072a14.748 14.748 0 005.015-1.316 14.816 14.816 0 008.605-13.485V8.701H50.582V4.413a4.349 4.349 0 00-1.294-3.121 4.35 4.35 0 00-1.422-.957 4.419 4.419 0 00-1.7-.332h-22.03a4.393 4.393 0 00-4.413 4.413v4.288H0v14.852a14.816 14.816 0 0013.628 14.8l.878.071V44.2h6.5v-5.795h28.288V44.2zm0-12.3v5.8h-28.29v-5.8h-6.5v5.832l-1.042-.1a14.047 14.047 0 01-8.612-4.071 14.1 14.1 0 01-4.14-10V9.408h68.888v14.145a14.111 14.111 0 01-4.139 10 14.033 14.033 0 01-8.605 4.071l-1.041.1v-5.832zm-.368-23.2h-28.5V4.41a3.708 3.708 0 01.282-1.413 3.755 3.755 0 01.8-1.2A3.724 3.724 0 0124.136.711h22.033a3.684 3.684 0 012.616 1.086 3.682 3.682 0 011.092 2.618v4.288zm-42.776 58.7h58a6.129 6.129 0 006.152-6.153V39.002h-.708v22.246a5.418 5.418 0 01-.415 2.08 5.439 5.439 0 01-5.029 3.359h-58a5.457 5.457 0 01-2.085-.414 5.4 5.4 0 01-1.763-1.183 5.457 5.457 0 01-1.18-1.763 5.4 5.4 0 01-.416-2.083V39.002H.002v22.246a6.136 6.136 0 006.152 6.153z" fill="#fff"/></svg>