<svg xmlns="http://www.w3.org/2000/svg" width="68.869" height="87.282"><path data-name="Path 7" d="M41.458 71.338l7.61 15.944 4.189-11.822 11.821 4.183-7.47-15.658-.729.349 6.635 13.9-10.749-3.807-3.808 10.749-6.77-14.19zm-7.792-4.778l-5.076-5.191-7.766 3.079-2.91-7.83-8.355-.349.528-8.333-7.484-3.719 3.871-7.4-5.33-6.448 6.552-5.191-2.249-8.051 8.093-2.072 1.216-8.27 8.248 1.4 4.47-7.062 6.966 4.631 6.953-4.633 4.481 7.064 8.237-1.4 1.225 8.269 8.094 2.072-2.248 8.049 6.544 5.192-5.327 6.44 3.877 7.4-7.486 3.719.52 8.333-8.352.352-2.912 7.83-7.764-3.078-5.848 5.976-.769-.786zm-4.781-3.725l5.556 5.663 6.044-6.174 8.035 3.177 3.008-8.1 8.642-.359-.542-8.626 7.745-3.849-4.011-7.658 5.508-6.661-6.772-5.369 2.331-8.324-8.374-2.155-1.262-8.55-8.525 1.446-4.639-7.3-7.194 4.785-7.2-4.784-4.631 7.3-8.525-1.446-1.263 8.55-8.375 2.156 2.323 8.324L0 30.248l5.506 6.66-4 7.658 7.745 3.85-.541 8.626 8.631.359 3.017 8.1 8.027-3.177.5.511zm9.5-20.462l-3.953-2.078-5.893 3.1 1.131-6.559-4.76-4.648 6.578-.949 2.947-5.97 2.944 5.967 6.584.948-4.759 4.65 1.12 6.556-1.934-1.021zm-9.68-4.7l-1.234 7.194 6.961-3.656 6.959 3.655-1.329-7.75 5.633-5.486-7.782-1.133-3.48-7.05-3.48 7.05-7.783 1.133 5.633 5.486-.1.557zm-8.2-17.348a19.658 19.658 0 11-5.776 13.924 19.642 19.642 0 015.776-13.924zm-.561 28.409a20.471 20.471 0 10-6.011-14.485 20.434 20.434 0 006.016 14.481zm-3.976 27.748l3.828 10.8 7.609-15.944-.727-.348-6.772 14.19L16.1 74.431 5.351 78.237l6.633-13.9-.727-.348L3.79 79.643l11.82-4.183.361 1.018z" fill="#25aee5"/></svg>