<svg xmlns="http://www.w3.org/2000/svg" width="92.746" height="82.258"><path data-name="Path 10" d="M88.198 81.453H11.923l19.309-19.312 8.377 8.377 20.129-20.125q15.536 15.528 31.066 31.061h-2.605zM46.052 23.682V12.93h17.131l-3.652-6.464L63.183.001H45.249v24.13L15.157 54.218l.568.568 29.922-29.917 7.027 7.02.572-.573-7.2-7.191v-.444zm0-12.639V.806h15.742l-3.2 5.66 3.2 5.659H46.052zm27.383 22.268h.8v-9.419h-9.422v.805h8.051L39.606 57.949l-8.377-8.377-31.23 31.236.564.563L31.229 50.71l8.377 8.379 33.826-33.825zm-7.193 12.148l22.424 22.417.568-.569-22.422-22.418zm-56.258 36.8h82.764l-33.01-33.01-20.131 20.138-8.375-8.377z" fill="#25aee5"/></svg>