<svg xmlns="http://www.w3.org/2000/svg" width="80.215" height="78.69"><path data-name="Path 9" d="M39.082 73.765L27.5 38.985h25.2L40.1 76.837zM18.361 9.173l5.46 5.46.569-.57-5.46-5.46zm9.753-6.71l2.957 7.14.749-.31-2.958-7.139-.748.311zm27.711 11.6l.569.569 5.46-5.461-.569-.569zm-7.437-4.772l.748.31 2.958-7.14-.748-.31-2.958 7.139zm-8.682-1.574h.8V-.002h-.8zm16.643 31.268h22.327L41.029 76.633q6.265-18.824 12.527-37.648zm5.109-14.83l-8.24 13.717L40.949 22.52h21.49zm-6.5 12.39l8.273-13.772L78.664 38.18H53.976zM40.945 23.823L52.419 38.18H27.78l12.324-15.408zm-3.089.45l-10.872 13.6L17.76 22.52h21.5zm-14 14.712h2.792l12.535 37.646L1.537 38.985zm.464-.8H1.548l15.425-15.409 9.255 15.409zm-24.316.4l40.1 40.111 40.11-40.111L63.32 21.721H16.877L-.001 38.584z" fill="#25aee5"/></svg>