<svg xmlns="http://www.w3.org/2000/svg" width="83.083" height="86.776"><path data-name="Path 12" d="M43.945 23.841h21.209v-.8H43.945zm19.571 31.33h3.111V40.95q0-1.509-.132-3a33.347 33.347 0 00-.392-2.956l-.229-1.272h17.208V0H32.909v7.613l-1.039.043A33.234 33.234 0 00-.001 40.945V55.17h3.879l.245.748a3.712 3.712 0 002.366 2.369l.748.244v3.809a4.992 4.992 0 001.45 3.549 4.975 4.975 0 001.623 1.09 5.025 5.025 0 001.929.378 4.988 4.988 0 005-5.015V47.204a4.992 4.992 0 00-.377-1.921 4.934 4.934 0 00-1.087-1.618 5 5 0 00-7.089 0 4.97 4.97 0 00-1.45 3.541v3.815l-.747.244a3.7 3.7 0 00-2.367 2.363l-.244.747H.79V40.95a32.39 32.39 0 019.518-22.988 32.3 32.3 0 0121.47-9.488l1.128-.052v5.118l-1.027.053a27.232 27.232 0 00-17.173 7.24l.578.576a26.31 26.31 0 0116.482-7l1.141-.065V33.72h4.933v8.468l8.467-8.468h18.72l.174.871q.308 1.537.47 3.166c.107 1.081.162 2.148.162 3.2v13.428h-3.1l-.243-.748a3.688 3.688 0 00-2.352-2.362l-.748-.244v-3.816a5 5 0 00-.377-1.921 4.943 4.943 0 00-1.087-1.618 4.988 4.988 0 00-7.088 0 4.948 4.948 0 00-1.087 1.618 5 5 0 00-.377 1.921v15.138a5.037 5.037 0 005.976 4.927 4.91 4.91 0 00.911-.268l2.1-.845-.666 2.163a20.387 20.387 0 01-17.873 14.3l-1.162.089v-3.318h-6.983a3.69 3.69 0 00-2.606 6.3 3.681 3.681 0 002.608 1.08h6.983v-3.266l1.014-.067a20.865 20.865 0 0013.956-6.58 21.591 21.591 0 005.774-14.522v-3.809l.748-.246a3.687 3.687 0 002.352-2.368l.243-.748h.784zM8.028 50.237v-3.033a4.205 4.205 0 015.82-3.888 4.318 4.318 0 011.373.906l.013.013a4.266 4.266 0 01.9 1.366 4.214 4.214 0 01.318 1.6v15.137a4.223 4.223 0 01-1.226 2.974 4.233 4.233 0 01-4.6.915 4.133 4.133 0 01-1.354-.906 4.2 4.2 0 01-1.246-2.989v-3.809l.748-.245a3.7 3.7 0 002.546-3.515 3.693 3.693 0 00-2.546-3.509l-.748-.244v-.782zm2.5 4.536a2.9 2.9 0 11-.854-2.043 2.891 2.891 0 01.858 2.042zm23.185-22.937V.797h48.575v32.12H45.981l-7.335 7.33v-7.33h-4.933v-1.082zm3.045 54.142h-5.1a2.893 2.893 0 010-5.787h6.177v5.787h-1.082zm21.073-34.712a3.718 3.718 0 00-1.846 1.346 3.686 3.686 0 000 4.324 3.711 3.711 0 001.846 1.349l.748.245v3.812a4.224 4.224 0 01-1.225 2.974 4.193 4.193 0 01-2.967 1.232 4.269 4.269 0 01-1.618-.32 4.115 4.115 0 01-1.369-.91 4.244 4.244 0 01-.9-1.367 4.241 4.241 0 01-.319-1.605V47.208a4.2 4.2 0 01.319-1.6 4.26 4.26 0 01.9-1.365 4.169 4.169 0 011.37-.914 4.243 4.243 0 011.619-.322 4.166 4.166 0 011.6.321 4.34 4.34 0 011.364.907l.013.013a4.253 4.253 0 01.9 1.365 4.2 4.2 0 01.318 1.6v3.819l-.748.244zm4.042 3.507a2.9 2.9 0 01-.846 2.042 2.888 2.888 0 11-4.083-4.086 2.89 2.89 0 014.929 2.043zm-17.932-44.1H53.3v-.8h-9.359zm0 6.584h28.122v-.8H43.941z" fill="#25aee5" fill-rule="evenodd"/></svg>