<svg xmlns="http://www.w3.org/2000/svg" width="84.036" height="72.797"><path data-name="Path 216" d="M55.581 69.25H21.648V25.71h3.289a18.255 18.255 0 0010.066-3.022 18.435 18.435 0 002.764-2.237 20.692 20.692 0 002.641-3.184 21.34 21.34 0 001.982-3.689A21.808 21.808 0 0043.657 9.7a17.489 17.489 0 00.38-3.751 5.1 5.1 0 011.513-3.631 5.038 5.038 0 011.658-1.119 5.123 5.123 0 015.6 1.124 5.107 5.107 0 011.5 3.622V9.4a33.66 33.66 0 01-.972 8.035 33.1 33.1 0 01-1.226 3.9 35.184 35.184 0 01-1.713 3.787.432.432 0 00-.046.2.41.41 0 00.06.194.39.39 0 00.142.14.4.4 0 00.2.048h6.924l-1.217 1.707a5.861 5.861 0 00-.815 1.625 5.934 5.934 0 001.466 6.013c.118.118.207.2.266.256.092.081.186.16.283.235l1.086.85-1.086.849a4.702 4.702 0 00-.548.49 5.93 5.93 0 000 8.406 5.804 5.804 0 00.552.49l1.088.85-1.088.849q-.145.113-.282.235c-.06.053-.148.138-.266.256a5.922 5.922 0 000 8.408c.119.119.208.2.266.256.091.08.186.159.281.235l1.086.85-1.086.85q-.145.113-.281.235a7.348 7.348 0 00-.266.256 5.986 5.986 0 00-1.468 6.008 5.872 5.872 0 00.811 1.622l1.212 1.715h-2.09zM29.454 53.431a17.053 17.053 0 0017-15.951h-.8a16.259 16.259 0 01-16.2 15.149h-1.925v.8h1.925zm28.237 7.054a5.126 5.126 0 013.631-1.506h7.481a5.126 5.126 0 013.631 1.505 5.121 5.121 0 010 7.263 5.112 5.112 0 01-3.633 1.503h-8.563v-.116a5.134 5.134 0 01-2.554-8.659zm0-26a5.139 5.139 0 013.635-8.774h16.763a5.135 5.135 0 013.636 8.774 5.111 5.111 0 01-3.636 1.511H61.326a5.111 5.111 0 01-3.635-1.511zm-36.84-10.442v47.955H.001v.8h21.247a.4.4 0 00.282-.113.4.4 0 00.117-.287V70.05h39.307c2.363.2 5.411.009 7.852.009a5.878 5.878 0 004.207-1.74 5.979 5.979 0 001.4-6.215 5.878 5.878 0 00-1.008-1.766l-.98-1.188 1.453-.516a5.854 5.854 0 001.177-.571 6.032 6.032 0 001.034-.829 5.916 5.916 0 00.39-7.98l-.983-1.19 1.456-.519a5.834 5.834 0 001.173-.573 6.087 6.087 0 001.036-.827 5.937 5.937 0 00.4-7.964l-.983-1.2 1.464-.507a5.89 5.89 0 001.2-.577 6.02 6.02 0 001.054-.842 5.924 5.924 0 000-8.406 5.877 5.877 0 00-4.208-1.74H51.467l.674-1.517c.4-.91.781-1.871 1.125-2.869.337-.978.625-1.948.858-2.894a34.076 34.076 0 00.746-4.072 34.538 34.538 0 00.251-4.156V5.942a5.947 5.947 0 00-.446-2.281 5.85 5.85 0 00-1.287-1.913 5.98 5.98 0 00-6.491-1.3 5.794 5.794 0 00-1.906 1.285l-.009.009a5.856 5.856 0 00-1.747 4.2 16.745 16.745 0 01-.375 3.617 21.106 21.106 0 01-1.206 3.7 20.412 20.412 0 01-1.9 3.537 20.117 20.117 0 01-2.552 3.08 17.461 17.461 0 01-12.261 5.031h-3.289v-2.349a.4.4 0 00-.117-.288.4.4 0 00-.282-.113H.001v.8h20.848v1.082zm35.333 28.985a5.142 5.142 0 015.143-5.143h10.558a5.143 5.143 0 011.972.392 5.133 5.133 0 011.663 8.381 5.132 5.132 0 01-3.631 1.505H61.331a5.132 5.132 0 01-3.631-1.505 5.127 5.127 0 01-1.507-3.631zm1.511-7.452a5.13 5.13 0 010-7.265 5.132 5.132 0 013.631-1.505h13.626a5.166 5.166 0 013.638 1.506 5.147 5.147 0 010 7.264 5.166 5.166 0 01-3.638 1.506H61.326a5.132 5.132 0 01-3.631-1.505z" fill="#fff"/></svg>