<svg xmlns="http://www.w3.org/2000/svg" width="75.749" height="89.808"><path data-name="Path 212" d="M11.675 25.727a37.01 37.01 0 11-10.872 26.2 36.957 36.957 0 0110.872-26.2zm53.718 25.8H43.02l-.206-.824a5.081 5.081 0 00-8.529-2.37 5.084 5.084 0 000 7.191 5.087 5.087 0 008.531-2.368l.206-.824h24.3v-.407a29.475 29.475 0 00-28.363-29.418v.8a28.687 28.687 0 0127.516 27.084l.059 1.137h-1.137zM34.853 48.9a4.271 4.271 0 11-1.261 3.026 4.265 4.265 0 011.261-3.026zm27.013 17.35l1.921 1.107.406-.706-1.919-1.107zM51.494 76.322l1.109 1.921.7-.4-1.103-1.926-.7.4zm-14.019 5.753h.8V79.86h-.8zm-15.024-4.238l.7.4 1.108-1.921-.7-.4zM11.56 66.65l.409.706 1.92-1.106-.41-.707-1.919 1.107zM7.731 52.333h2.207v-.806H7.731zm3.835-15.128l1.915 1.11.409-.7-1.92-1.106-.4.7zm10.886-11.183l1.107 1.916.7-.405-1.106-1.914-.7.4zM3.358 23.283l1.45 1.446.572-.57-1.45-1.451a2.072 2.072 0 01-.451-.674 2.108 2.108 0 010-1.6 2.147 2.147 0 01.441-.673l1.776-1.778a2.122 2.122 0 012.959 0s.009 0 0 0l1.448 1.445.57-.57-1.447-1.447a2.9 2.9 0 00-.947-.635 2.849 2.849 0 00-1.1-.217 2.908 2.908 0 00-1.105.217 3 3 0 00-.951.634l-1.765 1.772a2.844 2.844 0 00-.627.936 2.888 2.888 0 000 2.224 2.845 2.845 0 00.625.936zm67.013.879l.569.573 1.454-1.453a2.894 2.894 0 000-4.1l-1.775-1.776a2.843 2.843 0 00-.939-.631 2.933 2.933 0 00-2.215 0 2.988 2.988 0 00-.946.635l-1.444 1.443.572.573 1.45-1.444a2.106 2.106 0 012.953 0l1.764 1.761a2.093 2.093 0 01.453.68 2.056 2.056 0 01.163.8 2.1 2.1 0 01-.16.8 2.058 2.058 0 01-.461.687zM31.555 1.13a4.287 4.287 0 011.637-.325h9.371a4.276 4.276 0 013.022 1.249 4.37 4.37 0 01.93 1.391 4.25 4.25 0 01-.931 4.658 4.219 4.219 0 01-1.384.933 4.278 4.278 0 01-1.643.327h-4.283v-3.2h-.806v3.2h-4.282a4.273 4.273 0 01-1.642-.327 4.221 4.221 0 01-1.387-.933 4.26 4.26 0 01-.93-4.655 4.365 4.365 0 01.932-1.389 4.22 4.22 0 011.39-.928zm7.8 9.041h3.2a5.022 5.022 0 003.6-1.488 5.067 5.067 0 000-7.189 5.022 5.022 0 00-3.6-1.488h-9.37a5.031 5.031 0 00-3.6 1.488 5.043 5.043 0 00-1.486 3.594 5.036 5.036 0 001.485 3.594 5.035 5.035 0 003.6 1.488h4.281v3.869l-1.041.039a37.8 37.8 0 102.89 0l-1.042-.039v-3.868h1.079z" fill="#fff"/></svg>