<svg xmlns="http://www.w3.org/2000/svg" width="74.807" height="74.794"><path data-name="Path 236" d="M19.106 19.1a17.884 17.884 0 0125.322 0 17.883 17.883 0 010 25.323A17.908 17.908 0 1119.1 19.1zm12.3 44.426h.709v-2.77H31.4v2.77zm-12.123-2.551l.661.274L21 58.687l-.661-.274-1.059 2.562zm-10.226-7l.492.5 1.968-1.961-.5-.5-1.96 1.967zM2.275 43.59l.274.658 2.571-1.061-.273-.66-2.572 1.063zM0 32.117h2.77v-.706H0v.706zm2.274-12.181L4.846 21l.273-.66-2.572-1.063-.273.659zm58.48 12.179h2.776v-.706h-2.776v.706zm-2.338-11.778l.272.656 2.558-1.061-.272-.657-2.558 1.062zm-6.409-9.33l.509.506 1.96-1.963-.5-.5-1.967 1.96zm-9.475-6.166l.649.27 1.069-2.564-.657-.272-1.061 2.566zM31.4 2.769h.71V0h-.71v2.769zm-12.123-.218l1.06 2.565.66-.274-1.06-2.564-.66.273zm-10.227 7l1.961 1.963.5-.5-1.967-1.961-.494.5zm57.655 63.262L50.432 56.547l6.115-6.1 16.286 16.275a4.4 4.4 0 01.931 1.4 4.3 4.3 0 01-.935 4.691 4.32 4.32 0 01-4.714.935 4.233 4.233 0 01-1.4-.941zm1.138 1.6a5 5 0 005.477-1.1 5 5 0 001.085-1.62 5.154 5.154 0 00.393-1.93 4.971 4.971 0 00-1.478-3.558L56.548 49.437l-3.308 3.308-4.445-4.45.6-.669a23.5 23.5 0 004.519-7.347 23.656 23.656 0 00-5.381-25.289 23.75 23.75 0 10-.907 34.414l.67-.605 4.448 4.447-3.307 3.308 16.781 16.77a5.043 5.043 0 001.631 1.1zM22.949 10.488a23.033 23.033 0 11-7.47 37.543 22.966 22.966 0 01.015-32.538 22.905 22.905 0 017.454-5zM18.1 30.81h.712a12.917 12.917 0 013.126-7.532l-.5-.5a13.725 13.725 0 00-2.333 3.751 13.579 13.579 0 00-1 4.283zm.5 14.114a18.6 18.6 0 10-5.459-13.162A18.58 18.58 0 0018.6 44.924z" fill="#fff"/></svg>