<svg xmlns="http://www.w3.org/2000/svg" width="62.535" height="86.471"><path data-name="Path 15" d="M43.868 78.109H17.444l.141-1.2a13.773 13.773 0 0127.356 0l.141 1.2zm-40.979 1.06a3.4 3.4 0 011.3-.258h54.167a3.4 3.4 0 012.385.987 3.379 3.379 0 01.73 3.682 3.4 3.4 0 01-3.119 2.083H4.185a3.414 3.414 0 01-1.3-.258 3.377 3.377 0 01-1.1-.73l-.009-.009a3.374 3.374 0 01-.725-1.1 3.355 3.355 0 010-2.568 3.358 3.358 0 01.72-1.095v-.009a3.353 3.353 0 011.1-.732zm1.3 7.3h54.167a4.18 4.18 0 100-8.361H45.837a14.572 14.572 0 00-29.133 0H4.187a4.179 4.179 0 00-2.959 7.141 4.139 4.139 0 001.35.907 4.208 4.208 0 001.609.313zM2.894 1.06A3.388 3.388 0 014.189.801h54.167a3.372 3.372 0 012.385.99 3.33 3.33 0 01.734 1.094 3.381 3.381 0 01-3.119 4.669H4.189a3.405 3.405 0 01-1.295-.259 3.356 3.356 0 01-1.826-1.829 3.358 3.358 0 010-2.574 3.388 3.388 0 01.725-1.1l.008-.008a3.378 3.378 0 011.09-.723zm1.295 7.3h54.167a4.2 4.2 0 001.6-.311 4.279 4.279 0 001.36-.912 4.212 4.212 0 00.91-1.356 4.173 4.173 0 00-3.87-5.779H4.189a4.183 4.183 0 00-1.608.313 4.136 4.136 0 00-1.352.907 4.211 4.211 0 00-.911 4.563 4.141 4.141 0 00.907 1.348 4.175 4.175 0 001.35.907 4.222 4.222 0 001.61.312zm3.96 67.585v-9.2A23.119 23.119 0 0126.956 44.04l.077-.015a.366.366 0 00.183-.095.4.4 0 00.109-.2l.05-.169a.941.941 0 00.05-.169.937.937 0 000-.3 1.093 1.093 0 00-.038-.157l-.037-.156a.421.421 0 00-.11-.227.409.409 0 00-.211-.115v-.011l-.061-.011v.011A23.121 23.121 0 018.144 19.718v-9.194h-.8v9.194a23.938 23.938 0 0015.8 22.5l2.816 1.016-2.816 1.012a23.929 23.929 0 00-15.8 22.5v9.2h.8zm46.236-65.422v9.194a23.133 23.133 0 01-18.788 22.7l-.108.022a.358.358 0 00-.176.1.392.392 0 00-.107.211l-.061.2a.629.629 0 00-.027.113 1.007 1.007 0 00-.014.168.914.914 0 00.014.166.679.679 0 00.04.132l.06.19a.406.406 0 00.116.2.428.428 0 00.216.112 23.106 23.106 0 0118.836 22.71v9.2h.806v-9.2a23.93 23.93 0 00-15.8-22.5l-2.817-1.014 2.817-1.014a23.933 23.933 0 0015.8-22.505v-9.194h-.806zM19.551 32.328a16.873 16.873 0 01-5.186-11.529l-.02-.5.379-.338a11.838 11.838 0 0116.258.46 12.532 12.532 0 008.939 3.705 12.761 12.761 0 003.278-.424 12.494 12.494 0 003.03-1.249l2.086-1.2-.493 2.356a16.908 16.908 0 01-28.277 8.721zm-.808.334a17.726 17.726 0 0030.252-12.527.394.394 0 00-.064-.22.425.425 0 00-.187-.152.414.414 0 00-.44.093 11.8 11.8 0 01-3.836 2.573 11.8 11.8 0 01-12.9-2.574 12.628 12.628 0 00-17.9 0l-.009.008a.428.428 0 00-.081.124.4.4 0 00-.027.156 17.674 17.674 0 005.2 12.527zM29.69 50.267a2.223 2.223 0 11-.655 1.576 2.227 2.227 0 01.653-1.573zm-.573 3.721a3.036 3.036 0 10-.888-2.145 3.036 3.036 0 00.888 2.145z" fill="#000913"/></svg>