<svg xmlns="http://www.w3.org/2000/svg" width="79.879" height="82.518"><path data-name="Path 16" d="M77.999 63.59H.805V18.926H79.08V63.59zM32.78 10.358h1.134v-.8H32.78zm6.591 0h1.135v-.8h-1.135zm6.594 0h1.134v-.8h-1.134zM32.78 72.964h1.134v-.805H32.78zm6.591 0h1.135v-.805h-1.135zm6.594 0h1.134v-.805h-1.134zm-29.49 6.425h.806v-5.761l1.765 1.448a32.948 32.948 0 0043.467-1.475l-.573-.574a32.144 32.144 0 01-41.82 1.867l-2.462-1.931h6.047v-.805h-7.229v7.23zm39.7-69.03h7.229V3.135h-.8v5.761l-1.766-1.45a32.707 32.707 0 00-9.774-5.539 32.932 32.932 0 00-33.69 7.015l.572.571a32.137 32.137 0 0141.827-1.865l2.463 1.93h-6.053v.8zm-43.806 31.3h7.062v-.8h-7.062zm48.078 0h7.07v-.8h-7.07zm-29.538-9.427a12.751 12.751 0 11-3.749 9.031 12.738 12.738 0 013.749-9.031zM30.34 50.86a13.552 13.552 0 10-3.984-9.6 13.539 13.539 0 003.984 9.6zm34.916 8.124h-51.56l-.143-.921a8.673 8.673 0 00-7.219-7.219l-.921-.141V31.817l.921-.142a8.665 8.665 0 007.219-7.219l.141-.921h52.489l.141.921a8.667 8.667 0 007.219 7.219l.922.142v18.884l-.922.141a8.673 8.673 0 00-7.218 7.219l-.144.921h-.926zm-52.406.8h54.18v-.4a7.842 7.842 0 017.834-7.834h.405V30.971h-.405a7.842 7.842 0 01-7.834-7.834v-.4H12.85v.4a7.841 7.841 0 01-7.833 7.834H4.61v20.576h.407a7.842 7.842 0 017.833 7.834zM0 64.401h79.879v-46.28H0z" fill="#000913"/></svg>