<svg xmlns="http://www.w3.org/2000/svg" width="36.366" height="35"><g data-name="Group 103" transform="translate(-392 -2342)"><circle data-name="Ellipse 16" cx="7.5" cy="7.5" r="7.5" transform="translate(392 2362)" fill="red" opacity=".489"/><g fill="#333"><path data-name="Path 105" d="M423.451 2342h-20.535a4.921 4.921 0 00-4.916 4.916v20.535a4.921 4.921 0 004.916 4.916h20.535a4.921 4.921 0 004.916-4.916v-20.535a4.921 4.921 0 00-4.916-4.916zm-20.535 1.35h20.535a3.57 3.57 0 013.566 3.566v3.937h-5.473a3.577 3.577 0 00-3.554 1.826c-.62.916-1.26 1.863-4.807 1.863s-4.183-.948-4.807-1.864a3.576 3.576 0 00-3.554-1.825h-5.472v-3.937a3.57 3.57 0 013.566-3.566zm20.535 27.667h-20.535a3.57 3.57 0 01-3.566-3.566V2352.2h5.472a2.307 2.307 0 012.436 1.233c.74 1.094 1.662 2.456 5.925 2.456s5.185-1.362 5.925-2.456a2.306 2.306 0 012.436-1.233h5.473v15.251a3.57 3.57 0 01-3.566 3.566z"/><path data-name="Path 106" d="M410.251 2351.365a.675.675 0 00.6.36h4.671a.675.675 0 00.6-.36l2.335-4.426a.675.675 0 00-.114-.787c-.072-.067-1.653-1.646-5.16-1.646s-5.088 1.579-5.153 1.646a.675.675 0 00-.114.787l2.335 4.426zm-.079-4.97l.4 1.509a.675.675 0 101.3-.35l-.414-1.541a8.531 8.531 0 011.041-.134v1.519a.675.675 0 001.35 0v-1.519a8.551 8.551 0 011.041.134l-.414 1.541a.675.675 0 101.3.35l.4-1.509a4.957 4.957 0 01.8.413l-1.882 3.567h-.704l-.578-1.457a.675.675 0 00-1.264.025l-.5 1.432h-.788l-1.887-3.569a4.955 4.955 0 01.8-.414z"/></g></g></svg>