<svg xmlns="http://www.w3.org/2000/svg" width="36.795" height="36"><g data-name="Group 98" transform="translate(-392 -2341)"><circle data-name="Ellipse 16" cx="7.5" cy="7.5" r="7.5" transform="translate(392 2362)" fill="red" opacity=".489"/><g data-name="Group 106"><g data-name="Group 105"><path data-name="Path 71" d="M427.255 2355.371c-.907 0-1.54.4-1.54.983v1.765c-.813-1.606-2.063-2.747-3.593-2.747h-14.37a.513.513 0 00-.513.513v3.084a3.079 3.079 0 10-5.356 2.062 1.5 1.5 0 00-.8.345v-12.985a1.4 1.4 0 00-1.543-1.232 1.4 1.4 0 00-1.54 1.232v22.168a1.4 1.4 0 001.54 1.232 1.4 1.4 0 001.54-1.232v-3.388h24.635v3.636c0 .579.633.983 1.54.983s1.54-.4 1.54-.983v-14.453c0-.579-.633-.983-1.54-.983zm-27.202 15.188c-.006.042-.178.205-.513.205s-.508-.163-.513-.205v-22.168c.005-.042.176-.205.513-.205s.508.163.513.205zm8.212-14.166h13.858c1.936 0 3.411 2.882 3.577 5.646h-17.435zm-1.027 2.576v2.474a1.509 1.509 0 00-.808-.407 3.068 3.068 0 00.808-2.067zm-3.079-2.058a2.053 2.053 0 11-2.053 2.048 2.053 2.053 0 012.053-2.048zm21.556 9.238h-24.636v-3.081a.513.513 0 00.473-.512.5.5 0 01.494-.513h4.145a.5.5 0 01.494.513.513.513 0 00.513.513h18.517zm2.053 4.529a1.505 1.505 0 01-1.026 0v-14.19a1.505 1.505 0 011.026 0z" fill="#333"/></g></g><g data-name="Group 108"><g data-name="Group 107"><path data-name="Path 72" d="M406.794 2352.291l1.865-2.238a.513.513 0 00-.394-.842h-3.08v1.027h1.984l-1.865 2.238a.513.513 0 00.394.842h3.079v-1.026z" fill="#333"/></g></g><g data-name="Group 110"><g data-name="Group 109"><path data-name="Path 73" d="M412.394 2349.725l2.948-3.791a.513.513 0 00-.4-.828h-4.11v1.026h3.056l-2.948 3.791a.513.513 0 00.405.828h4.106v-1.026h-3.056z" fill="#333"/></g></g><g data-name="Group 112"><g data-name="Group 111"><path data-name="Path 74" d="M419.044 2347.159l4-5.338a.513.513 0 00-.41-.821h-4.619v1.026h3.593l-4 5.338a.513.513 0 00.41.821h5.132v-1.026z" fill="#333"/></g></g></g></svg>