<svg xmlns="http://www.w3.org/2000/svg" width="35.924" height="35.672"><g data-name="Group 102" transform="translate(-392 -2343)"><circle data-name="Ellipse 16" cx="7.5" cy="7.5" r="7.5" transform="translate(392 2362)" fill="red" opacity=".489"/><g fill="#333"><path data-name="Path 99" d="M405.921 2367.967c5.752 0 8.92-3.379 8.92-9.515 0-5.744-8.132-14.878-8.478-15.263a.613.613 0 00-.885 0c-.346.385-8.477 9.519-8.477 15.264 0 6.135 3.167 9.514 8.92 9.514zm0-23.475c1.7 2 7.731 9.393 7.731 13.96 0 3.8-1.342 8.326-7.731 8.326s-7.731-4.527-7.731-8.326c0-4.566 6.028-11.961 7.731-13.959zm0 0"/><path data-name="Path 100" d="M422.572 2369.157c3.4 0 5.352-2.27 5.352-6.229 0-3.717-4.717-8.827-4.917-9.043a.613.613 0 00-.871 0c-.2.216-4.917 5.326-4.917 9.043.001 3.959 1.951 6.229 5.353 6.229zm0-13.969c1.147 1.335 4.163 5.1 4.163 7.74 0 3.344-1.4 5.039-4.163 5.039s-4.163-1.7-4.163-5.039c0-2.645 3.015-6.409 4.163-7.74zm0 0"/><path data-name="Path 101" d="M413.8 2366.979c-.152.172-3.717 4.244-3.717 6.935 0 3.023 1.518 4.757 4.163 4.757s4.163-1.734 4.163-4.757c0-2.691-3.565-6.763-3.717-6.935a.614.614 0 00-.892 0zm.446 10.5c-1.973 0-2.973-1.2-2.973-3.568 0-1.616 1.861-4.248 2.973-5.619 1.113 1.368 2.973 4 2.973 5.619.001 2.371-1 3.571-2.973 3.571zm0 0"/><path data-name="Path 102" d="M404.672 2365.583a.58.58 0 00.06 0 .595.595 0 00.06-1.186 4.357 4.357 0 01-3.178-1.622c-1.582-2.062-1.058-5.387-1.053-5.42a.595.595 0 00-1.173-.2c-.026.157-.616 3.857 1.278 6.333a5.5 5.5 0 004.006 2.095zm0 0"/><path data-name="Path 103" d="M421.977 2366.778a4.14 4.14 0 002.909-1.253 3.554 3.554 0 00.651-3.008.595.595 0 00-1.173.2 2.44 2.44 0 01-.382 2.038 2.96 2.96 0 01-2.005.837.595.595 0 000 1.189zm0 0"/><path data-name="Path 104" d="M413.918 2375.166a.682.682 0 01-.328-.986.595.595 0 00-1.064-.532 1.871 1.871 0 00.861 2.585.595.595 0 10.532-1.064zm0 0"/></g></g></svg>