<svg xmlns="http://www.w3.org/2000/svg" width="32.744" height="34"><g data-name="Group 104" transform="translate(-392 -2343)"><circle data-name="Ellipse 16" cx="7.5" cy="7.5" r="7.5" transform="translate(392 2362)" fill="red" opacity=".489"/><g data-name="Group 122"><g data-name="Group 121" fill="#333" transform="translate(394 2343)"><path data-name="Path 107" d="M12.893 0a2.977 2.977 0 00-2.8 1.983H7.438v1.625q-.32.12-.638.266l-1.15-1.15L.741 7.633l1.15 1.15q-.146.319-.267.639H0v6.942h1.624q.12.32.266.638l-1.15 1.15 4.909 4.909 1.15-1.15q.318.145.638.266V23.8h2.48v3.967a2.978 2.978 0 002.975 2.975h17.851v-.992h-.993a1.983 1.983 0 010-3.967h.993V0zM8.43 22.81v-1.34l-.339-.113a9 9 0 01-1.171-.488l-.319-.16-.95.95-3.507-3.507.95-.95-.16-.32a8.867 8.867 0 01-.488-1.171l-.114-.339H.992v-4.959h1.34l.113-.339A9 9 0 012.934 8.9l.16-.319-.95-.95 3.505-3.504.95.95.319-.16a8.867 8.867 0 011.172-.488l.34-.114v-1.34h4.959v1.34l.339.113a9 9 0 011.171.488l.32.16.95-.95 3.506 3.506-.95.95.16.319a8.867 8.867 0 01.488 1.171l.113.34h1.34v4.959h-1.34l-.113.339a9 9 0 01-.488 1.171l-.16.32.95.95-3.506 3.506-.95-.95-.32.16a8.867 8.867 0 01-1.171.488l-.339.113v1.34zM20.194 9.422q-.12-.32-.266-.638l1.15-1.15L18.9 5.455h8.87v8.43h-5.95V9.422zm7.339 20.331h-14.64a1.983 1.983 0 110-3.967h14.642a2.974 2.974 0 000 3.967zm2.219-4.959H12.893a2.958 2.958 0 00-1.983.764V23.8h3.47v-1.623q.32-.12.638-.266l1.15 1.15 4.909-4.909L19.928 17q.145-.318.266-.638h1.624v-1.486h6.942V4.463H17.907l-1.739-1.739-1.15 1.15q-.318-.145-.638-.266V1.983h-3.2a1.977 1.977 0 011.713-.991h16.86z"/><path data-name="Path 108" d="M13.634 18.176a5.964 5.964 0 001.113-.744l.72.72.7-.7-.72-.72a5.981 5.981 0 00.744-1.113l.94.389.38-.916-.937-.388a5.915 5.915 0 00.258-1.315h1.017v-.992h-1.015a5.909 5.909 0 00-.258-1.315l.937-.388-.38-.916-.94.389a5.965 5.965 0 00-.744-1.113l.72-.72-.7-.7-.72.72a5.98 5.98 0 00-1.113-.744l.389-.94-.916-.38-.388.937a5.914 5.914 0 00-1.315-.258V5.95h-.992v1.017a5.909 5.909 0 00-1.315.258l-.388-.937-.916.38.389.94a5.964 5.964 0 00-1.117.742l-.72-.72-.7.7.72.72a5.981 5.981 0 00-.744 1.113l-.94-.389-.38.916.937.388a5.914 5.914 0 00-.258 1.315H3.967v.992h1.017a5.909 5.909 0 00.258 1.315l-.937.388.38.916.94-.389a5.964 5.964 0 00.744 1.113l-.72.72.7.7.72-.72a5.98 5.98 0 001.113.744l-.389.94.916.38.387-.938a5.914 5.914 0 001.315.258v1.017h.992v-1.017a5.914 5.914 0 001.315-.258l.388.937.916-.38zm-2.725-.325a4.959 4.959 0 114.959-4.959 4.964 4.964 0 01-4.959 4.958z"/><path data-name="Rectangle 27" d="M12 27h12v1H12z"/><rect data-name="Rectangle 28" height="1" transform="translate(25 27)"/></g></g></g></svg>