<svg xmlns="http://www.w3.org/2000/svg" width="63.378" height="85.106"><g data-name="иконки новый сайт"><path data-name="Path 213" d="M0 85.106h63.378V5.267h-25.97l-.187-.85a5.686 5.686 0 00-9.081-3.183 5.7 5.7 0 00-2 3.188l-.191.845H-.002zm14.645-14.39H48.71v-.8H14.648zm0-6.588H48.71v-.8H14.648zm0-6.588H48.71v-.8H14.648zm13.091-31.01a5.58 5.58 0 11-1.633 3.946 5.559 5.559 0 011.633-3.946zm-.57 8.455a6.378 6.378 0 10-1.87-4.509 6.373 6.373 0 001.87 4.509zm15.021 15.451H20.112v-5.584a5.571 5.571 0 01.425-2.133 5.637 5.637 0 011.2-1.815l.009-.009a5.688 5.688 0 011.5-1.067 5.51 5.51 0 011.749-.524l.52-.064 6.171 6.177 6.188-6.178.517.065a5.464 5.464 0 011.742.525 5.672 5.672 0 011.486 1.065 5.545 5.545 0 011.652 3.956v5.586h-1.082zm-22.881.8H44.06v-6.385a6.311 6.311 0 00-1.875-4.517v-.009a6.276 6.276 0 00-2.056-1.382 6.393 6.393 0 00-2.452-.482h-.169l-5.821 5.821-5.8-5.821h-.171a6.374 6.374 0 00-6.4 6.391v6.385zM1.888 6.067h17.221v5.454H6.248v67.326h50.863V11.521H44.268V6.067h18.3v78.242H.803V6.067h1.081zM42.379 17.78H19.9V6.067h6.916v-.4a4.865 4.865 0 019.731 0v.4h6.915V17.78h-1.081zm-23.271.8H44.27v-6.26h12.05v65.729H7.056V12.318h12.052v6.26z" fill="#fff"/></g></svg>