<svg xmlns="http://www.w3.org/2000/svg" width="83.202" height="69.334"><path data-name="Path 215" d="M17.93 33.674h-7.625v-8.706h8.706v8.706zm41.58 20.46l4.8 4.8L74.392 48.85l-.566-.565-9.514 9.511-4.238-4.23zM56.041 42.18a15.4 15.4 0 11-4.528 10.908 15.386 15.386 0 014.528-10.908zm-.064 22.877a16.241 16.241 0 1012.375-28.155l-.993-.085V24.161H9.517v29.325h41.164l.085.993a16.223 16.223 0 005.211 10.578zM51.352 48.54a16.13 16.13 0 00-.586 3.155l-.085.993h-2.34v-8.705h5.037l-.83 1.581a16.158 16.158 0 00-1.2 2.977zm4.115-6.933c-.379.38-.738.774-1.07 1.18l-.327.4h-5.729v-8.713h8.691v5.742l-.4.327q-.606.5-1.174 1.068zm6.936-4.121a16.147 16.147 0 00-2.974 1.2l-1.584.832V34.47h8.707v2.345l-.993.084a16.143 16.143 0 00-3.156.585zm4.149-27.794h.8V5.249h8.709v11.057H.805V5.248h8.707v4.443h.806V5.248q28.114-.005 56.229 0zm.8-6.331V.001h-.8V4.44h-56.23V0h-.806v4.44H.001v58.555h46.3v-.8H.81v-45.1h75.256v15.329h.8v-15.32h.01V4.44H67.36V3.358zm-20.9 49.327h-7.609v-8.705h8.691v8.705zm-9.5 0h-7.625v-8.705h8.707v8.705h-1.082zm-9.514 0h-7.625v-8.705h8.706v8.705zm-9.514 0h-7.625v-8.705h8.706v8.705zm28.526-9.51h-7.609V34.47h8.691v8.707zm-9.5 0h-7.624V34.47h8.707v8.707h-1.082zm-9.514 0h-7.625V34.47h8.706v8.707zm-9.515 0h-7.624V34.47h8.706v8.707zm47.537-9.5h-7.617v-8.707h8.707v8.707h-1.082zm-9.514 0h-7.603v-8.707h8.707v8.707h-1.1zm-9.5 0h-7.603v-8.707h8.69v8.707zm-9.5 0H29.32v-8.707h8.707v8.707h-1.082zm-9.514 0h-7.625v-8.707h8.706v8.707z" fill="#fff"/></svg>