<svg xmlns="http://www.w3.org/2000/svg" width="64.693" height="71.076"><path data-name="Path 214" d="M62.773 70.271H.783l.055-1.133a31.508 31.508 0 0123.824-29.065c.082-.023.207-.059.293-.088l.026-.009a1.575 1.575 0 00.8-.587 1.683 1.683 0 00.254-.522l-1.991.527A32.3 32.3 0 00-.003 70.672v.4H64.69v-.4a32.276 32.276 0 00-24.047-31.277l-1.992-.525a1.643 1.643 0 00.251.521 1.523 1.523 0 00.783.578h.016c.146.047.282.086.335.1a31.5 31.5 0 0123.81 29.06l.055 1.133h-1.133zm-23.909-32.79a1.677 1.677 0 00-.267.747l1.874-.854a19.594 19.594 0 10-16.25 0l1.874.854a1.657 1.657 0 00-1.018-1.362 18.764 18.764 0 1120.54-30.562 18.739 18.739 0 01-6 30.559 1.677 1.677 0 00-.746.618z" fill="#fff"/></svg>