<svg xmlns="http://www.w3.org/2000/svg" width="147.4" height="32"><g data-name="Group 105" fill="#afb0af"><path data-name="Path 177" d="M121 15.4h-5.6l.8 1.9h4.4a.9.9 0 01.9.9v.7h-4.2a2.8 2.8 0 00-2.8 2.8v.3a2.8 2.8 0 002.8 2.8h6.6v-6.6a2.883 2.883 0 00-2.9-2.8zm.5 7.5h-3.8a.9.9 0 01-.9-.9v-.3a.9.9 0 01.9-.9h3.8z"/><path data-name="Path 178" d="M133.3 18.9h-4.6v-3.5h-2.3v9.4h2.3v-4h4.6v4h2.4v-9.4h-2.4z"/><path data-name="Path 179" d="M146.8 15.4H144l-2.6 3.5h-.9v-3.5h-2.3v9.4h2.3v-4h.9l3.1 4h2.9l-4.2-5z"/><path data-name="Path 180" d="M108.9 15.4h-3.6v-1.9h5.7l.8-1.9H103v13.2h5.9a3.9 3.9 0 003.9-3.9v-1.7a3.885 3.885 0 00-3.9-3.8zm1.5 5.5a2.006 2.006 0 01-2 2h-3.1v-5.7h3.1a2.006 2.006 0 012 2z"/><path data-name="Path 181" d="M60.7 18.2V22a.9.9 0 01-.9.9h-.3v1.9h.8a2.8 2.8 0 002.8-2.8v-3.8a.9.9 0 01.9-.9h3.3v7.5h2.4v-9.4h-6.1a2.883 2.883 0 00-2.9 2.8z"/><path data-name="Path 182" d="M42.5 17.3h4.3l.8-1.9H42a2.8 2.8 0 00-2.8 2.8V22a2.8 2.8 0 002.8 2.8h5.6l-.8-1.9h-4.3a.9.9 0 01-.9-.9v-3.8a.9.9 0 01.9-.9z"/><path data-name="Path 183" d="M55.4 15.4h-3.8a2.8 2.8 0 00-2.8 2.8V22a2.8 2.8 0 002.8 2.8h3.8a2.8 2.8 0 002.8-2.8v-3.8a2.733 2.733 0 00-2.8-2.8zm.5 6.6a.9.9 0 01-.9.9h-2.8a.9.9 0 01-.9-.9v-3.8a.9.9 0 01.9-.9H55a.9.9 0 01.9.9z"/><path data-name="Path 184" d="M34.5 15.4h-4.3a1.922 1.922 0 012-1.9h3.2l.8-1.9h-4.4a3.9 3.9 0 00-3.9 3.9V22a2.8 2.8 0 002.8 2.8h3.8a2.8 2.8 0 002.8-2.8v-3.8a2.8 2.8 0 00-2.8-2.8zM35 22a.9.9 0 01-.9.9h-2.8a.9.9 0 01-.9-.9v-3.8a.9.9 0 01.9-.9h2.8a.9.9 0 01.9.9V22z"/><path data-name="Path 185" d="M87.7 17.3h2.9v7.5h2.3v-7.5h3.3v-1.9h-9.3z"/><path data-name="Path 186" d="M83.1 15.4h-3.8a2.8 2.8 0 00-2.8 2.8v.7h-2v-3.5h-2.4v9.4h2.4v-4.1h2v1.2a2.8 2.8 0 002.8 2.8h3.8a2.8 2.8 0 002.8-2.8v-3.8a2.845 2.845 0 00-2.8-2.7zm.4 6.6a.9.9 0 01-.9.9h-2.8a.9.9 0 01-.9-.9v-3.8a.9.9 0 01.9-.9h2.8a.9.9 0 01.9.9z"/><path data-name="Path 187" d="M18.9 11.6l-5.3 13.2h2.9l1-2.8h5.7l1 2.8H27l-5.3-13.2zm-.8 8.5l2.2-6 2.2 6z"/><path data-name="Path 188" d="M4.7 24.8H0l5.4 5.4A7.2 7.2 0 009.8 32h4.8l-5.5-5.5a7.462 7.462 0 00-4.4-1.7z"/><path data-name="Path 189" d="M7.4 24.9v-7.8a7.2 7.2 0 00-1.8-4.4L2.3 9.4v7.7a7.2 7.2 0 001.8 4.4z"/><path data-name="Path 190" d="M14.7 4.7V0L9.3 5.5a7.2 7.2 0 00-1.8 4.4v4.8L13 9.2a8.315 8.315 0 001.7-4.5z"/></g></svg>