<svg xmlns="http://www.w3.org/2000/svg" width="134.872" height="19.937"><g data-name="Group 111" fill="#afb0af"><path d="M29.213 1.309v10.542c0 2.36-2.046 4.091-4.72 4.091s-4.72-1.731-4.72-4.091V3.826a2.485 2.485 0 012.518-2.517h.157v10.542a2.115 2.115 0 002.2 2.046 2.115 2.115 0 002.2-2.046V3.669a2.227 2.227 0 012.36-2.36m5.18 3.813c3.619 0 4.248 2.046 4.248 3.3v7.553h-.157a2.588 2.588 0 01-2.518-2.517V8.423c0-.787-.315-1.573-1.731-1.573a3.49 3.49 0 00-1.416.157v8.811h-2.518V5.905a11.816 11.816 0 014.091-.787m7.9.004v8.34a2.42 2.42 0 01-2.36 2.36h-.159v-10.7zm-1.259-3.776a1.387 1.387 0 011.416 1.259 1.387 1.387 0 01-1.416 1.259 1.387 1.387 0 01-1.416-1.259 1.387 1.387 0 011.416-1.259m8.454-.216a7.312 7.312 0 013.3.787v2.518a3.147 3.147 0 00-2.675-1.259c-2.675 0-4.248 2.518-4.248 5.193 0 2.517 1.731 5.35 4.248 5.35a3.052 3.052 0 002.675-1.1v2.517a5.163 5.163 0 01-3.3.944c-4.091 0-6.294-3.776-6.294-7.553 0-3.619 2.2-7.4 6.294-7.4m7.855 3.995a4.353 4.353 0 011.416.157v2.045a2.445 2.445 0 00-2.518-.157v6.294a2.42 2.42 0 01-2.36 2.36h-.157V5.908a7.713 7.713 0 013.619-.787m8.131 3.978c0-2.2-1.416-2.36-2.046-2.36h-.157c-1.416 0-2.046 1.1-2.046 2.99zm2.36 1.416l-6.451.944c.157 1.731 1.1 2.675 2.675 2.675a5.052 5.052 0 003.3-1.1v2.2a8.2 8.2 0 01-3.619.787c-3.147 0-5.035-2.045-5.035-5.507 0-3.3 1.731-5.35 4.563-5.35s4.406 1.888 4.406 5.035m6.864-3.068c-.315 0-.629-.157-.944-.157-2.046 0-2.518 2.046-2.518 3.776 0 2.36.787 3.461 2.36 3.461a2.68 2.68 0 001.1-.157zm2.518-5.822v14.318a23.585 23.585 0 01-3.462.315h-.157c-3.147 0-4.878-1.888-4.878-5.035 0-3.3 1.731-5.35 4.563-5.35a4.353 4.353 0 011.416.157V3.826a2.394 2.394 0 012.518-2.517m3.752 3.813v8.34a2.42 2.42 0 01-2.36 2.36h-.157v-10.7zm-1.259-3.776a1.387 1.387 0 011.416 1.259 1.387 1.387 0 01-1.416 1.259 1.387 1.387 0 01-1.416-1.259 1.387 1.387 0 011.416-1.259m5.705-.037v3.776h1.731V7.13h-1.731v5.665c0 .629.157.944.944.944a.947.947 0 00.629-.157v2.2a4.583 4.583 0 01-1.259.315c-1.888 0-2.99-.944-2.99-2.675V7.128h-1.1V5.083h1.1V3.824a2.73 2.73 0 012.675-2.517m15.804 6.029v8.339a25.807 25.807 0 01-3.619.315h-.472c-4.248 0-7.081-2.675-7.081-7.553 0-4.248 2.675-7.238 6.609-7.238a6.516 6.516 0 013.619.944V4.66a4.6 4.6 0 00-3.3-1.259c-2.675 0-4.248 2.046-4.248 5.35 0 3.776 2.36 5.035 5.192 5.035h.787V9.695h-2.36v-.157a2.083 2.083 0 012.046-2.045m7.509-2.517a4.359 4.359 0 011.416.157v2.046a2.445 2.445 0 00-2.518-.157v6.294a2.42 2.42 0 01-2.36 2.36h-.157V5.763a7.713 7.713 0 013.619-.787m8.28 5.368c0-1.1-.315-3.776-2.2-3.776-2.046 0-2.2 2.832-2.2 3.776 0 .787.157 3.619 2.2 3.619s2.2-2.675 2.2-3.619m2.36 0c0 3.3-1.731 5.35-4.72 5.35-2.832 0-4.72-2.046-4.72-5.35s1.731-5.35 4.72-5.35 4.72 2.046 4.72 5.35m9.01-5.368v10.542a25.75 25.75 0 01-3.462.315h-.629c-2.675 0-4.091-1.259-4.091-3.619v-4.72a2.485 2.485 0 012.518-2.518h.157v7.4a1.411 1.411 0 001.573 1.573 4.359 4.359 0 001.416-.157V7.341a2.455 2.455 0 012.518-2.36"/><path data-name="Path 206" d="M15.8 2.608a.919.919 0 01.6.4 1.1 1.1 0 01-.5 1.3 7.925 7.925 0 011 4 8.493 8.493 0 01-8.5 8.5 8.393 8.393 0 01-5.2-1.8c-.6.4-.8.5-.8.5h-.2a.367.367 0 01-.3-.1c.1 0 .1 0 .2-.1a25.2 25.2 0 002.4-1.7c1.4-1.1 3.9-3 6.1-5 2.5-2.2 4.7-4.3 4.9-4.4a1.147 1.147 0 00.4-1.4c.1-.1 0-.2-.1-.2zm-1.4-.3h-1.8a24.562 24.562 0 00-4.8.4c-.3.1-.4.2-.4.4a1.007 1.007 0 00.1.3s1.3.8 1.4.9.2.2 0 .4l-.1.2s-1.7 2.3-2.5 3.2c-.5.8-3 4.3-4.1 6a8.276 8.276 0 01-2.2-5.7 8.408 8.408 0 018.5-8.4 8.145 8.145 0 015.9 2.3z" fill-rule="evenodd"/><path d="M132.272 10.337c0-2.6-.7-3.8-2.4-3.8a4.254 4.254 0 00-1.1.2v7.3a2.22 2.22 0 00.9.1c2.2.1 2.6-2 2.6-3.8m2.6 0c0 3.3-1.8 5.5-4.6 5.5a4.637 4.637 0 01-1.4-.2v1.9a2.433 2.433 0 01-2.4 2.4h-.1v-14.2h.1a7.447 7.447 0 013.6-.7c2.9-.1 4.8 2 4.8 5.3"/></g></svg>