<svg xmlns="http://www.w3.org/2000/svg" width="147.4" height="33.9"><g data-name="Group 106"><path data-name="Path 192" d="M0 10.7h8.1a40.526 40.526 0 0015.1 15.1v8.1A37.383 37.383 0 010 10.7" fill="#afb0af"/><path data-name="Path 193" d="M23.1 10.7v15.1A41.262 41.262 0 018 10.7z" fill="#c8c7c7"/><path data-name="Path 194" d="M23.1 10.7H8A44.491 44.491 0 013.7.1h8.8a10.48 10.48 0 0110.6 10.6" fill="#afb0af"/><path data-name="Path 195" d="M33.8 21.3v8.8a39.332 39.332 0 01-10.6-4.3V10.7a10.605 10.605 0 0110.6 10.6" fill="#e8e7e7"/><path data-name="Path 196" d="M23.1 0a14.251 14.251 0 0010.7 10.7V0z" fill="#afb0af"/><path data-name="Path 197" d="M64.9 23h-1.3c-1.1 0-1.5.3-1.5 1.1a1 1 0 001.1 1.1 2.289 2.289 0 001.7-.8zm.8 3.4l-.4-.8a4.063 4.063 0 01-2.7 1 2.39 2.39 0 01-2.5-2.4c0-2 1.3-2.5 3.2-2.5h1.6v-.5c0-1-.3-1.5-1.4-1.5a6.83 6.83 0 00-2.2.5l-.5-1.3a10.052 10.052 0 013.1-.7c2.2 0 3 1 3 2.7v5.4h-1.2zm6.1-19.1h-1.3c-1.1 0-1.5.3-1.5 1.1a1 1 0 001.1 1.1 2.289 2.289 0 001.7-.8zm.8 3.5l-.4-.8a4 4 0 01-2.6 1 2.39 2.39 0 01-2.5-2.4c0-2 1.3-2.5 3.2-2.5h1.6v-.5c0-1-.3-1.5-1.4-1.5a6.83 6.83 0 00-2.2.5l-.5-1.3a10.052 10.052 0 013.1-.7c2.2 0 3 1 3 2.7v5.4h-1.3zm32.2-3.5h-1.3c-1.1 0-1.5.3-1.5 1.1a1 1 0 001.1 1.1 2.289 2.289 0 001.7-.8zm.8 3.5l-.4-.8a4 4 0 01-2.6 1 2.39 2.39 0 01-2.5-2.4c0-2 1.3-2.5 3.2-2.5h1.6v-.5c0-1-.3-1.5-1.4-1.5a6.83 6.83 0 00-2.2.5l-.5-1.3a10.052 10.052 0 013.1-.7c2.2 0 3 1 3 2.7v5.4h-1.3zm24.5-6.4v6.4h-2V4.4H126V2.9h6.2v1.5zm7.1 2.9h-1.3c-1.1 0-1.5.3-1.5 1.1a1 1 0 001.1 1.1 2.289 2.289 0 001.7-.8zm.8 3.5l-.4-.8a4 4 0 01-2.6 1 2.39 2.39 0 01-2.5-2.4c0-2 1.3-2.5 3.2-2.5h1.6v-.5c0-1-.3-1.5-1.4-1.5a6.83 6.83 0 00-2.2.5l-.5-1.3a10.052 10.052 0 013.1-.7c2.2 0 3 1 3 2.7v5.4H138zm-47.6-.6a5.857 5.857 0 01-2.7.7c-2.3 0-3.3-1.4-3.3-4 0-2.9 1.4-4.2 3.5-4.2a4.242 4.242 0 012.3.6l-.6 1.3a3.927 3.927 0 00-1.4-.3c-1.2 0-1.8.8-1.8 2.5 0 1.9.5 2.5 1.8 2.5a3.768 3.768 0 001.6-.4zm-7.9 16.2l-2.7-3.7v3.7h-2v-7.9h2v3.4l2.4-3.4h2.2l-2.6 3.6 3 4.4h-2.3zm-8.8 0V23h-2.9v3.4h-2v-7.9h2v3h2.9v-3h2v7.9zm71.7-15.6V4.5h-1.7c0 4.2-1 5.7-2.9 6.6l-.7-1.6c1.4-.9 2-1.4 2-6.7h5.3v7.9h-2zm-22.5 0V5.9l-3.7 4.9h-1.4V2.9h2v4.9l3.6-4.9h1.5v7.9zm-9.1 0V4.5h-3.2v6.3h-1.9V2.9h7.1v7.9zm-16.4 0l-3.7-5v5h-2.1V0h2.1v4.6L97.1 0h2.4l-3.9 5 4.3 5.8zm-16.6 0V7.5h-3.1v3.3h-2V2.9h2v3h3.1v-3h2v7.9zM62.3 4.3a2.006 2.006 0 00-1.8 1v3.6a3.409 3.409 0 001.6.4c1.1 0 1.8-.6 1.8-2.5-.1-1.6-.5-2.5-1.6-2.5m.1 6.6a3.677 3.677 0 01-2-.5v2.9h-2V2.7h1l.7 1.1a3.605 3.605 0 012.7-1.2c1.9 0 3 1.6 3 4 .1 2.7-1.3 4.3-3.4 4.3m-7-9.2v9.1h-2.1V1.7h-3V0h8.1v1.7z" fill="#afb0af"/><path data-name="Path 198" d="M55.2 24.8h-1.6v-3.2h1.3c1.6 0 2 .4 2 1.6s-.6 1.6-1.7 1.6m0-4.8h-1.6v-2.8h4.2v-1.6h-6.3v10.8h3.6c2.2 0 4-1 4-3.3 0-2.2-1.3-3.1-3.9-3.1" fill="#afb0af"/></g></svg>