<svg xmlns="http://www.w3.org/2000/svg" width="146.7" height="38.6"><g data-name="Group 101" fill="#afb0af"><path data-name="Path 138" d="M107.5 8.1h10.7v2.4h-.8a1.335 1.335 0 00-1.4-1.2h-1.9v11h-2.6v-11h-1.9a1.412 1.412 0 00-1.4 1.2h-.8V8.1z"/><path data-name="Path 139" d="M129.9 8.1h1.9v12.2h-2.6v-8.5l-6.4 8.5h-1.9v-9.9a1.524 1.524 0 00-1.2-1.6v-.6h3.8v8.6z"/><path data-name="Path 140" d="M74 20.3h-3.3l-2.4-4.5s-.7-1.4-1.5-1.4h-1v5.9h-2.6v-9.9a1.432 1.432 0 00-1.3-1.5v-.7h3.9v5.1H67a2.125 2.125 0 001.4-1.1c2.1-3.4 1.8-4 2.7-4h2.6V9c-1.8 0-2.3 3.7-4.1 4.8.8.3 1.2 1.1 3 4.5 0 0 .5 1.2 1.4 1.2v.8z"/><path data-name="Path 141" d="M145.9 17.6a6.363 6.363 0 01-5.4 2.8c-3.2 0-6.3-2.5-6.3-5.8v-.7a6.107 6.107 0 016.3-6.1 6.167 6.167 0 016.2 6.2h-9.3v2a3.3 3.3 0 003.5 3.2 5.39 5.39 0 004-1.8zm-8.6-4.7h6.3v-.6a3.222 3.222 0 00-3.2-3.2 3.222 3.222 0 00-3.2 3.2v.6z"/><path data-name="Path 142" d="M85.5 16.1a3.056 3.056 0 01-2.8 3.1h-.3a3.052 3.052 0 01-3-2.3v-5.2a3.126 3.126 0 013-2.6h.5s2.4.1 2.5 3.1v3.9zm-2.4-8.2a4.28 4.28 0 00-3.5 1.5V8h-3.9v.7a1.479 1.479 0 011.2 1.5v15.5h2.6v-6.8a4.374 4.374 0 003.3 1.5 5.765 5.765 0 005.7-6v-.8a5.176 5.176 0 00-5.4-5.7"/><path data-name="Path 143" d="M46.3 16a3.328 3.328 0 01-3.3 3.3 3.2 3.2 0 01-3.3-3.3v-3.9A3.227 3.227 0 0143 9a3.125 3.125 0 013.3 3.2zm-3.4-8.1a6.006 6.006 0 00-6.4 5.9v1c0 2.7 2.6 5.7 6.4 5.7 3.5 0 6.5-2.6 6.5-5.7V14a6.1 6.1 0 00-6.5-6.1"/><path data-name="Path 144" d="M105.7 8.1h-3.9v.7a1.573 1.573 0 011.3 1.6v9.9h2.6z"/><path data-name="Path 145" d="M94.4 19v-5.1h2.3a2.27 2.27 0 012.2 2.4v.5a2.308 2.308 0 01-2.3 2.2h-2.2zm0-6.3V8.1h-3.9v.7a1.377 1.377 0 011.2 1.5v9.9h6c2.3 0 4-1.4 4-3.4v-.6c0-2.2-1.6-3.5-4.1-3.5h-3.2z"/><path data-name="Path 146" d="M49.9 8.1h10.7v2.4h-.8a1.335 1.335 0 00-1.4-1.2h-1.9v11h-2.6v-11H52a1.412 1.412 0 00-1.4 1.2h-.8V8.1z"/><path data-name="Path 147" d="M23.8 14.9a8.979 8.979 0 01-4.7 8.1l-.7.3a1.852 1.852 0 01-.7.2 1.1 1.1 0 01-1-.5 1.645 1.645 0 01-.2-1 1.36 1.36 0 01.6-.8 4.857 4.857 0 002.8-4.4v-5a4.751 4.751 0 00-2.8-4.4 1.067 1.067 0 01-.6-.8 1.163 1.163 0 01.2-1 1.231 1.231 0 011-.5 1.857 1.857 0 01.7.2l.6.3a8.979 8.979 0 014.7 8.1v1.2zm-12.6 6.2a1.36 1.36 0 01.6.8 1.163 1.163 0 01-.2 1 1.231 1.231 0 01-1 .5 1.857 1.857 0 01-.7-.2l-.7-.3a8.979 8.979 0 01-4.7-8.1v-1.4a8.979 8.979 0 014.7-8.1l.7-.3a1.852 1.852 0 01.7-.2 1.1 1.1 0 011 .5 1.645 1.645 0 01.2 1 1.067 1.067 0 01-.6.8 4.857 4.857 0 00-2.8 4.4v5a4.836 4.836 0 002.8 4.6m3-21.1A14.255 14.255 0 000 14.2a14.255 14.255 0 0014.2 14.2 14.255 14.255 0 0014.2-14.2A14.19 14.19 0 0014.2 0"/><path data-name="Path 148" d="M39.4 38.5h-2v-8.1h4.2l.2 1h-3.3v2.3h1c1.7 0 2.8.8 2.8 2.3.1 1.7-1.1 2.5-2.9 2.5m.2-3.8h-1v2.9h.9c1.1 0 1.8-.5 1.8-1.5s-.6-1.4-1.7-1.4"/><path data-name="Path 149" d="M46.8 30.4h1.1l3.1 8-1.1.2-1-2.5h-3.3l-.9 2.4h-1.2zm-.8 4.7h2.6l-1.3-3.4z"/><path data-name="Path 150" d="M58 38.5v-3.7h-4.1v3.7h-1.1v-8.1h1.1v3.4H58v-3.4h1.1v8.1z"/><path data-name="Path 151" d="M66.4 38.6l-3.8-4.2v4.1h-1.1v-8.1h1.1V34l3.4-3.6h1.4l-3.6 3.8 3.8 4.1z"/></g></svg>