<svg xmlns="http://www.w3.org/2000/svg" width="146.6" height="20.6"><g data-name="Group 97"><path data-name="Path 79" d="M94.1 10.2l-4.6-4.4L94 1.7v-.1h-2.1l-4.2 3.9V1.6H86v8.7h1.7V6.2l4.2 4.1h2.3z" fill="#afb0af"/><path data-name="Path 80" d="M36.4 8.8V1.5h-7.2v2.6c0 .5-.1.9-.1 1.4-.1.4-.1.9-.2 1.2a4.4 4.4 0 00-.2 1 5.577 5.577 0 01-.5.8c-.2.2-.3.3-.5.3h-.6v.8l.1 2.4h1.5l.1-1.8H36l.1 1.8h1.5l.2-2.5v-.8h-1.4zM34.7 3v5.8h-4.8a7.64 7.64 0 00.6-2.1 19.753 19.753 0 00.3-3.7z" fill="#afb0af"/><path data-name="Path 81" d="M124.1 8.8V1.5h-7.2v2.6c0 .5-.1.9-.1 1.4-.1.4-.1.9-.2 1.2a4.4 4.4 0 00-.2 1 5.577 5.577 0 01-.5.8c-.2.2-.3.3-.5.3h-.6v.8l.1 2.4h1.5l.1-1.8h7.2l.1 1.8h1.5l.2-2.5v-.8h-1.4zM122.4 3v5.8h-4.8a7.64 7.64 0 00.6-2.1 19.753 19.753 0 00.3-3.7z" fill="#afb0af"/><path data-name="Path 82" d="M38.9 1.6h7.8v1.5h-6.1v2h5.2v1.5h-5.2v2.3h6.3v1.5h-8V1.6z" fill="#afb0af"/><path data-name="Path 83" d="M70.5 3h-3.9V1.5h9.5V3h-3.9v7.3h-1.7V3z" fill="#afb0af"/><path data-name="Path 84" d="M78.7 1.6h1.9l4.2 8.7h-1.7l-.9-2h-5l-.9 2h-1.8zm2.8 5.2l-1.9-3.9-1.9 3.9z" fill="#afb0af"/><path data-name="Path 85" d="M105.5 1.6h7.8v1.5h-6.1v2h5.2v1.5h-5.2v2.3h6.3v1.5h-8z" fill="#afb0af"/><path data-name="Path 86" d="M135.8 10.3h-1.7V3.8l-6.1 6.5h-1.5V1.6h1.6v6.3l5.8-6.3h1.8v8.7z" fill="#afb0af"/><path data-name="Path 87" d="M140.9 3h-3.8V1.5h9.5V3h-3.9v7.3H141l-.1-7.3z" fill="#afb0af"/><path data-name="Path 88" d="M101.1 1.6h-5.4v8.7h1.7V7.4h3.7c1.9 0 3.1-1 3.1-2.8.1-1.8-1.1-3-3.1-3zm.1 4.3h-3.7V3.1h3.7a1.368 1.368 0 011.5 1.5 1.435 1.435 0 01-1.5 1.3z" fill="#afb0af"/><path data-name="Path 89" d="M67.7 7.3c0-1.8-1.2-2.8-3.1-2.8h-3.7V1.6h-1.7v8.7h5.4a2.862 2.862 0 003.1-3zm-1.7 0a1.417 1.417 0 01-1.5 1.5h-3.7V6h3.7A1.321 1.321 0 0166 7.3z" fill="#afb0af"/><path data-name="Path 90" d="M50.1 1.6v1.5a31.191 31.191 0 01-.1 3.3 4.442 4.442 0 01-.5 2c-.1.2-.2.2-.3.3s-.2.1-.4.1h-.6v1.5h.9a2.924 2.924 0 00.9-.2 5.529 5.529 0 00.8-.6 6.659 6.659 0 00.6-1.2 7.973 7.973 0 00.3-1.5c.1-.6.1-1.2.2-1.9V3.1h4v7.3h1.7V1.8h-7.5z" fill="#afb0af"/><path data-name="Path 91" d="M31.9 13.9L29 17.5c-.3.4-.6.8-.8 1.1v-4.7h-1.1v6.5h1l3-3.9a5.542 5.542 0 01.6-.8l.2-.2v5H33V14l-1.1-.1z" fill="#afb0af"/><path data-name="Path 92" d="M34.3 15.6v4.9h.9v-3.9h2.2v3.9h1.1v-4.9z" fill="#afb0af"/><path data-name="Path 93" d="M41.7 15.5a2.262 2.262 0 00-2.3 2.5 2.317 2.317 0 002.3 2.5 2.342 2.342 0 001.7-.7A2.61 2.61 0 0044 18a2.315 2.315 0 00-2.3-2.5zm0 4.1c-.8 0-1.3-.6-1.3-1.6s.5-1.5 1.3-1.5 1.2.6 1.2 1.5c.1 1-.4 1.6-1.2 1.6z" fill="#afb0af"/><path data-name="Path 94" d="M44.6 15.6v1H46v3.9h1v-3.9h1.2l.3-1z" fill="#afb0af"/><path data-name="Path 95" d="M53.1 18.1c0-1.5-.7-2.5-2-2.5a2.23 2.23 0 00-2.1 2.5 2.247 2.247 0 002.3 2.5 4.193 4.193 0 001.6-.4l-.3-.7a2.28 2.28 0 01-1.1.3c-.9 0-1.4-.5-1.4-1.2v-.1h3.1l-.1-.4zm-3.1-.6a.945.945 0 011-1 .9.9 0 011 1v.1l-2-.1z" fill="#afb0af"/><path data-name="Path 96" d="M62.3 15.6v2h-2.1v-2h-1v4.9h1v-2.1h2.1v2.1h1.1v-4.9z" fill="#afb0af"/><path data-name="Path 97" d="M56.8 15.6v2.1a1.7 1.7 0 01-.7.1c-.9 0-1-.2-1-.9v-1.4h-1V17c0 1.1.6 1.6 1.9 1.6a3.865 3.865 0 00.9-.1v1.9h1v-4.8h-1.1z" fill="#afb0af"/><path data-name="Path 98" d="M75.2 20.5v-4.9h-1l-1.9 3.3v-3.3h-.9v4.9h.9l2.1-3.3v3.3z" fill="#afb0af"/><path data-name="Path 99" d="M74.8 13.7h-.6v.1a.7.7 0 01-.8.6.7.7 0 01-.8-.6v-.1H72v.1a1.375 1.375 0 001.5 1.3 1.413 1.413 0 001.3-1.4z" fill="#afb0af"/><path data-name="Path 100" d="M92.9 15.6v2h-2.2v-2h-.9v4.9h.9v-2.1h2.2v2.1h1v-4.9z" fill="#afb0af"/><path data-name="Path 101" d="M81.4 16.5h-1.8v-1.6H83v-1h-4.4v6.5h3a1.846 1.846 0 002.1-1.9c0-1.3-.8-2-2.3-2zm.1 3h-1.9v-2h1.7c1 0 1.4.2 1.4 1-.1.7-.4 1-1.2 1z" fill="#afb0af"/><path data-name="Path 102" d="M66.8 17.3h-1v-1.7h-1v4.8h2.1a1.53 1.53 0 001.7-1.5 1.759 1.759 0 00-1.8-1.6zm-.2 2.3h-.9v-1.4h.8c.6 0 1 .2 1 .7a.808.808 0 01-.9.7z" fill="#afb0af"/><path data-name="Rectangle 99" fill="#afb0af" d="M69 15.6h1v4.8h-1z"/><path data-name="Path 103" d="M96.2 20.5v-2l1.6 2H99L97 18l1.9-2.4h-1.2l-1.5 2v-2h-1v4.9z" fill="#afb0af"/><path data-name="Path 104" d="M86.1 20.5a1.974 1.974 0 001.4-.6l.2.5h.9a4.181 4.181 0 01-.1-1.4v-1.9c0-1.1-.6-1.7-1.9-1.7a4.074 4.074 0 00-1.8.5l.4.7a2.769 2.769 0 011.3-.3.909.909 0 011 .9v.2h-.8a3.268 3.268 0 00-1.2.2 1.435 1.435 0 00-.7 1.3 1.236 1.236 0 001.3 1.6zm-.2-2.1a1.444 1.444 0 01.7-.2h.7v1a1.284 1.284 0 01-1 .4c-.5 0-.7-.2-.7-.7a.55.55 0 01.3-.5z" fill="#afb0af"/><path data-name="Path 105" d="M16.7 10.9H3.5v-.4H0v-.3 10.2h20.4v-9.9h-3.7z" fill="#afb0af"/><path data-name="Path 106" d="M20.4 0H0v10.5h3.5v-.9h13.2v.9h3.7z" fill="#e0e0e0"/></g></svg>