<svg xmlns="http://www.w3.org/2000/svg" width="151.3" height="23.1"><g data-name="Group 100"><path data-name="Path 107" d="M24.4 2.4l-9.8 9.8-4.9-4.9 4.9-4.9H4.8L0 7.3 14.7 22 27.2 9.3h7.5l7-6.9z" fill="#afb0af"/><path data-name="Path 108" d="M16.7 21.8l1.4-1.4 9.7-9.7h13.9l-7 6.9h-4l-4.2 4.2z" fill="#afb0af"/><path data-name="Path 109" d="M18.1 20.4l9.7-9.7h13.9l-7.4 5.4h-4.1l-4.4 4.3z" fill="#e0e0e0"/><path data-name="Path 110" d="M24.4 2.4l-9.8 9.8-4.9-4.9 4.9-4.9H4.8L.6 7.1 14.7 20 26.6 8h7.5l7.6-5.6z" fill="#e0e0e0"/><path data-name="Path 111" d="M18.1 20.4l.2-.2h7.4l4.4-4.4h4.1l7.5-5.1-7.4 5.4h-4.1l-4.4 4.3z" fill="#e0e0e0"/><path data-name="Path 112" d="M34.1 7.8h-7.6L14.7 19.6.8 7.1l4.1-4.7h-.1L.6 7.1 14.7 20 26.6 8h7.5l7.6-5.6z" fill="#e0e0e0"/><g data-name="Group 99" fill="#afb0af"><path data-name="Path 113" d="M48.4 14.8l-.6 2.6.8-.1 2.5-2.6H53l-3.3 3.2 2 3.7h-2l-1.5-3h-.8l-.7 3h-1.5l1.5-6.9h1.7z"/><path data-name="Path 114" d="M57.5 14.8c1.7 0 2.5 1 2.2 2.5a3.343 3.343 0 01-3.4 2.5h-1.4l-.4 1.9h-1.6l1.5-6.9zm-2.3 3.7h1.4a1.658 1.658 0 001.6-1.1c.2-.7-.2-1.1-1-1.1h-1.5z"/><path data-name="Path 115" d="M66.9 14.8l-.3 1.4h-3.7l-.3 1.3h3.3l-.3 1.4h-3.3l-.3 1.5h3.8l-.3 1.4h-5.4l1.5-6.9h5.3z"/><path data-name="Path 116" d="M75.3 14.8l-1.2 5.5h1l-.1.4-.7 2.4h-1.4l.3-1.4h-4.7l-.4 1.4h-1.4l.5-2.4.1-.4h.3a1.069 1.069 0 00.9-.6 11.678 11.678 0 001.4-3.8l.2-1.1h5.2zm-4 1.4a11.457 11.457 0 01-1.6 4.2h2.8l.9-4.2z"/><path data-name="Path 117" d="M79.5 14.8l-1 4.6 4.4-4.6h1.4l-1.5 6.9h-1.5l1-4.4-4.2 4.4h-1.5l1.5-6.9z"/><path data-name="Path 118" d="M94.6 14.8l-.6 2.7h3l.6-2.7h1.6l-1.5 6.9h-1.6l.6-2.8h-3l-.6 2.8h-1.6l1.5-6.9z"/><path data-name="Path 119" d="M102.6 14.8l-.5 2.1h1.3c1.6 0 2.5.9 2.2 2.4a3.16 3.16 0 01-3.2 2.4h-2.9l1.5-6.9zm-1.2 5.6h1.3a1.453 1.453 0 001.5-1c.2-.7-.2-1-1-1H102zm7.5-5.6l-1.5 6.9h-1.6l1.5-6.9z"/><path data-name="Path 120" d="M112.3 14.8l-1 4.6 4.4-4.6h1.4l-1.5 6.9h-1.5l1-4.4-4.2 4.4h-1.5l1.5-6.9z"/><path data-name="Path 121" d="M133.1 14.8l1.3 6.9h-1.7l-.2-1.4h-3l-.8 1.4H127l4.4-6.9zm-2.8 4.2h2l-.3-2.6h-.1z"/><path data-name="Path 122" d="M92 14.8h-6.5l-.3 1.4h2.3l-1.2 5.6h1.6l1.2-5.6h2z"/><path data-name="Path 123" d="M124.5 17.3h-1.6l.2-1.1h3.1l.9-1.4h-5.2l-1.5 6.9h3.1a3.008 3.008 0 003.2-2.2c.3-1.5-.6-2.2-2.2-2.2zm-.7 3.1h-1.6l.4-1.7h1.6q1.05 0 .9.9a1.2 1.2 0 01-1.3.8z"/><path data-name="Path 124" d="M138.8 14.8l-.6 2.7h3l.6-2.7h1.6l-1.5 6.9h-1.6l.6-2.8h-3l-.6 2.8h-1.6l1.5-6.9z"/><path data-name="Path 125" d="M146.7 14.8l-.6 2.6.8-.1 2.5-2.6h1.9l-3.3 3.2 2 3.7h-2l-1.5-3h-.8l-.7 3h-1.5l1.5-6.9h1.7z"/><path data-name="Path 126" d="M112.7 12.4l-.3 1.2h3.6l.9-1.2z"/><g data-name="Group 98"><path data-name="Path 127" d="M51.3 2.4l1.2 3.1 2.6-3.1h1.7l-1.5 6.9h-1.5l1-4.6h-.1l-2.2 2.6h-.8l-1-2.6h-.1l-1 4.6h-1.5l1.5-6.9z"/><path data-name="Path 128" d="M64.9 5.9a4.623 4.623 0 01-4.5 3.6 2.787 2.787 0 01-2.9-3.6A4.623 4.623 0 0162 2.3a2.724 2.724 0 012.9 3.6zm-5.8 0c-.3 1.3.3 2.2 1.6 2.2a2.6 2.6 0 002.6-2.2c.3-1.3-.3-2.2-1.6-2.2a2.575 2.575 0 00-2.6 2.2z"/><path data-name="Path 129" d="M72.1 4.3a2.413 2.413 0 00-1.7-.7 2.694 2.694 0 00-2.7 2.2A1.636 1.636 0 0069.4 8a3.716 3.716 0 002.2-.8l.6 1.1A4.8 4.8 0 0169 9.4c-2.2 0-3.3-1.4-2.9-3.6a4.653 4.653 0 014.6-3.6 3.04 3.04 0 012.5 1z"/><path data-name="Path 130" d="M76.6 2.4L76 5l.8-.1 2.5-2.6h1.9l-3.3 3.2 2 3.7h-2l-1.5-3h-.8l-.7 3h-1.5l1.5-6.9h1.7z"/><path data-name="Path 131" d="M88.6 5.9a4.623 4.623 0 01-4.5 3.6 2.787 2.787 0 01-2.9-3.6 4.623 4.623 0 014.5-3.6c2.2 0 3.3 1.5 2.9 3.6zm-5.8 0c-.3 1.3.3 2.2 1.6 2.2A2.6 2.6 0 0087 5.9c.3-1.3-.3-2.2-1.6-2.2a2.443 2.443 0 00-2.6 2.2z"/><path data-name="Path 132" d="M93.8 2.4c1.5 0 2.2.7 2 1.9a1.7 1.7 0 01-1 1.3v.1a1.352 1.352 0 01.8 1.6 2.839 2.839 0 01-3 2.1h-3.4l1.5-6.9h3.1zm-2.1 2.7h1.6a.994.994 0 001-.7c.1-.5-.1-.7-.7-.7h-1.5zM91.1 8h1.8c.7 0 1.1-.3 1.2-.8s-.2-.8-.9-.8h-1.8z"/><path data-name="Path 133" d="M103.1 4.3a2.413 2.413 0 00-1.7-.7 2.694 2.694 0 00-2.7 2.2 1.636 1.636 0 001.7 2.2 3.716 3.716 0 002.2-.8l.6 1.1a4.8 4.8 0 01-3.2 1.1c-2.2 0-3.3-1.4-2.9-3.6a4.653 4.653 0 014.6-3.6 3.04 3.04 0 012.5 1z"/><path data-name="Path 134" d="M107.3 2.4l-.6 2.6.8-.1 2.5-2.6h1.9l-3.3 3.2 2 3.7h-2l-1.5-3h-.8l-.7 3h-1.5l1.5-6.9h1.7z"/><path data-name="Path 135" d="M115 2.4L114 7l4.4-4.6h1.4l-1.5 6.9h-1.5l1-4.4-4.2 4.4h-1.5l1.5-6.9z"/><path data-name="Path 136" d="M123.1 2.4l-1 4.6 4.4-4.6h1.4l-1.5 6.9h-1.5l1-4.4-4.2 4.4h-1.5l1.5-6.9z"/><path data-name="Path 137" d="M123.5 0l-.3 1.2h3.6l.9-1.2z"/></g></g></g></svg>