<svg xmlns="http://www.w3.org/2000/svg" width="135.999" height="31.424"><g data-name="Group 110"><path data-name="Path 199" d="M42.991 24.49h-4.992l2.311-3.883-5.64-9.985h4.992l2.959 5.917 2.866-5.917h4.9z" fill="#afb0af" fill-rule="evenodd"/><path data-name="Path 200" d="M105.123 24.49h-6.194c-3.421 0-6.1-2.774-6.1-6.749 0-4.438 2.681-7.119 6.1-7.119h6.194v3.421h-3.976c-2.4 0-3.791.74-3.791 3.605 0 2.774 1.387 3.421 3.791 3.421h3.976v3.421z" fill="#afb0af" fill-rule="evenodd"/><path data-name="Path 201" d="M121.206 24.49h-4.53v-9.708l-5.177 9.708h-5.455V10.622h4.438v9.523l5.27-9.523h5.455z" fill="#afb0af" fill-rule="evenodd"/><g data-name="Group 107"><path data-name="Path 202" d="M88.201 10.622h-4.992l-4.808 11.464-4.807-11.464h-5.085L62.684 24.49h4.807l1.109-2.866h5.085l1.109 2.866h7.581l3.606-9.985 3.513 9.985h4.807zm-18.676 7.859l1.479-3.976 1.479 3.976z" fill="#afb0af"/></g><g data-name="Group 108"><path data-name="Path 203" d="M60.095 10.622h-9.338V24.49h4.53v-4.068h4.807c4.715 0 4.715-4.16 4.715-5.085.001-.832.001-4.715-4.714-4.715zm-1.572 6.472h-3.236v-2.958h3.236c.462 0 1.849 0 1.849 1.479a1.572 1.572 0 01-1.849 1.479z" fill="#afb0af"/></g><g data-name="Group 109"><path data-name="Path 204" d="M131.191 15.892h-4.53v-1.756h8.691v-3.421h-13.221v13.868h9.153c4.715 0 4.715-2.774 4.715-4.345s0-4.346-4.808-4.346zm-.74 5.363h-3.791v-2.126h3.791c1.017 0 1.017.74 1.017 1.017.001.369.001 1.109-1.016 1.109z" fill="#afb0af"/></g><path data-name="Path 205" d="M14.423 3.781a1.828 1.828 0 011.017.185l-.093-1.688h1.2a12.965 12.965 0 00.37 1.873 13.849 13.849 0 0110.909 13.406 13.593 13.593 0 01-6.472 11.649c-.092-.093-.185-.277-.37-.462-4.16-5.27-5.177-13.128-5.455-19.877a11.581 11.581 0 001.757.277 29.008 29.008 0 007.489 15.532 9.8 9.8 0 002.127-5.825 9.722 9.722 0 00-2.681-6.564 14.143 14.143 0 00-6.656-3.976 16.2 16.2 0 00-3.7-.462 16.873 16.873 0 00-3.7.462C4.803 9.698.827 13.858.827 18.851a10.334 10.334 0 002.034 5.825A29.008 29.008 0 0010.35 9.144c.555-.093 1.2-.185 1.849-.277-.277 6.841-1.294 14.608-5.455 19.877v-.093c-.185.185-.277.462-.462.555A13.642 13.642 0 01-.005 17.557a13.6 13.6 0 0110.91-13.406c.143-1.171.277-1.873.277-1.873h1.2l-.092 1.688a1.667 1.667 0 01.925-.185V.001h1.2v3.781zm.093 4.992c.185 6.564.555 14.7 2.773 20.247a15.016 15.016 0 00.832 1.757 16.95 16.95 0 01-4.253.647 15.754 15.754 0 01-4.253-.647c.37-.74.647-1.387.925-2.034 2.034-5.455 2.589-13.591 2.681-20.062h.647a1.8 1.8 0 00.647.093z" fill="#afb0af" fill-rule="evenodd"/></g></svg>