<svg version="1.0" xmlns="http://www.w3.org/2000/svg" width="448" height="448" viewBox="0 0 336 336"><path d="M19.6 39.1c.3.5 1.1.6 1.7.2.7-.4.6 0-.2 1-1 1.3-1.7 1.4-3.3.6-1.2-.7-1.8-.7-1.4-.1.3.5-.1 1.3-1 1.6-1.4.5-1.4.9-.3 2.3.8.9 1 1.4.4 1.1-.5-.3-2 1-3.2 2.9-1.3 1.9-1.9 3.2-1.4 2.9.5-.3 1.1.1 1.4.9.4.8.1 1.2-.6.9-.8-.3-1.3.4-1.3 1.6 0 1.1.6 2 1.3 2 1.5 0 1.7 1.2.3 2.6-.6.6-.5 1.5.1 2.4.9 1.2 1 1.1.5-.4s-.4-1.7.7-.7c.8.6 1.3 2.3 1.1 3.7-.2 2.2 0 2.4 1.4 1.2.9-.7 1.4-.8 1-.4-.4.5.4 2 1.8 3.3 2.6 2.3 4 3 3 1.4-.4-.5.3-.7 1.4-.4 1.1.3 2.3.9 2.6 1.4.2.4 1.6.4 3-.1 3.5-1.4 3.8-1.3 2.3.7-1.3 1.7-1.3 1.7.7 0 1.1-.9 2.5-1.4 2.9-1 .5.5.4 0-.3-.9-1.2-1.4-1-1.6.9-1.1 1.8.5 2.1.3 1.6-1-.3-.9-.3-1.6.1-1.6.4.1 1.6.1 2.7 0 1.7-.1 1.8-.3.5-1.1-1.3-.9-.7-1.4 1.3-1.1.4 0 .7-.4.7-1 0-.5.5-.7 1.2-.3.7.4.8.3.4-.5-.4-.6-1.3-.9-1.9-.5-.7.3-.4-.1.6-.9 1.3-1.1 1.5-1.7.6-2.3-.9-.5-.7-1.1.6-2.1 1.4-.9 1.5-1.3.4-1.3-1.2 0-1.2-.2.1-1 1.2-.8 1.2-1 .1-1-1.1 0-1.1-.3 0-1.7.8-.9.9-1.4.3-1-.7.4-1.5 0-1.8-.9-.4-1-.2-1.3.7-.9.6.4-.1-.3-1.6-1.5-2.3-1.9-2.6-2.5-1.5-3.8 1-1.2 1-1.4.1-.8-.8.4-1.3.2-1.3-.5 0-.8-.5-.7-1.7.2-1.1 1-1.4 1-.9.1.4-.6.2-1.2-.3-1.2-.6 0-1.1-.5-1.1-1.1 0-.5.5-.7 1.2-.3.6.4.8.3.5-.3-.4-.5-4.5-1-9.2-1.1-5.1 0-8.3.3-7.9.9z"/><path d="M11.5 47.1c-.4.6-.5 1.2-.2 1.5.2.3.7-.2 1-1.1.7-1.7.1-2-.8-.4zm201.2 32l2.2 2.5-4.5-.1c-2.7-.1-5-.7-5.6-1.6-.8-1.1-.9-1-.4.5.4 1.3.2 1.7-.8 1.3-.7-.3-1.9 0-2.5.6-.9.9-1.4.8-2.1-.3-.7-1-1.2-1.1-1.7-.4-.5.6-1.7 1.4-2.7 1.7-1.5.6-1.7.5-.8-.6.9-1.1.7-1.3-1-1.2-1.1.1-2.9 1.1-3.8 2.2-1.2 1.5-2.1 1.8-3.3 1.2-1-.6-1.8-.5-2.3.2-.5.8-.3.9.6.4.9-.5 1.1-.4.6.4-.4.6-1.3.8-1.9.4-2.1-1.3-3.6-1.1-4.9.5-1.1 1.5-1.1 1.5.3.4 1.4-1 1.8-1 2.2.1.4 1-.4 1.3-2.8 1.2-1.9 0-3.2.2-3 .6.7 1-4.5 3-5.8 2.2-.8-.5-.8-.2.1.9 1 1.3.9 1.5-1.3 1-2-.3-2.4-.1-1.9 1.2.5 1.2.2 1.5-1.2.9-1.3-.5-1.5-.3-.9.7s.4 1.2-.7.8c-1-.4-1.5 0-1.5 1 0 3.3-.3 4.2-1.4 4.2-2 0-3.9 3.3-2.7 4.7.7.9.7 1.3-.1 1.3-.9 0-.9.5 0 2.2 1 1.8.9 2-.5 1.5-2-.8-2 0-.1 2 1.4 1.4 1.4 1.7.1 3.2-1.2 1.3-1.2 2-.2 4 .8 1.3 1.1 3.2.8 4.3-.3 1.2.1 1.8 1.2 1.8.9 0 1.9 1.2 2.2 2.7.8 3 2.6 5.3 4.3 5.3.5 0 1.3.5 1.7 1.2.4.7.3.8-.4.4-1.8-1.1-1.4 0 .5 1.5 1.1 1 1.4 1 .9.1-.4-.6-.2-1.2.3-1.2.6 0 1.1.5 1.1 1.1 0 .5.4.8.9.4.5-.3 1.3 0 1.7.6.4.7.3.9-.4.5-.6-.3-1.3-.2-1.6.3-.3.5 1.5.8 4 .7 2.5-.1 4.8.2 5.1.8.4.5 0 .6-.8.1-1.1-.6-1.2-.5-.1.6.9 1 1.5 1 2.4.1 1.8-1.8 3.2-1.4 1.7.5-1 1.2-1.1 1.5-.1.9.7-.4 1.9-.3 2.6.3.9.8 1.3.7 1.3-.4 0-.8-.5-1.1-1-.8-.6.3-.7.1-.4-.5.4-.5 1.7-.8 2.9-.4 1.6.4 1.9.2 1.4-.9-.4-.8 0-.5.8.5 1.5 1.8 1.6 1.9 1.6.2 0-1.2.5-1.6 1.4-1.3.8.3 2-.1 2.6-.8.9-1.1 1.7-1.2 3-.5s2.1.7 2.5-.1c.4-.6 1.3-.8 2.1-.5.9.3 1.1 0 .7-1.1-.5-1.2-.3-1.4.6-.8.8.4 1.7.2 2.2-.6.6-1 .9-1.1.9-.2 0 .7.7 1.3 1.6 1.3 1.1 0 1.4-.6 1-1.8-.6-1.6-.5-1.6.7 0 1.2 1.5 1.4 1.5 2.3 0 .9-1.3 1.2-1.3 1.9-.2.5.9.4 1.1-.3.6-.7-.4-1.2-.2-1.2.3 0 1.3.3 1.3 2.4.5 1.4-.5 1.4-.9.4-2.3-1.1-1.4-1.1-1.4.4-.3 1.3 1 1.7 1 2.1 0 .4-1.1.6-1 .6 0 .1.7.5 1.1 1 .7.5-.3 1.7.2 2.5 1.1.9.9 1.6 1.1 1.6.4 0-.6.5-.8 1-.5.6.4.8 1.1.5 1.6-1.1 1.6.7.9 2.1-.9 1.2-1.5 1.3-1.5 1.4 0 0 1.2.6 1.5 2.2 1 1.6-.4 1.9-.2 1.4.9-.4.8 0 .5.8-.5 1.3-1.6 1.6-1.7 1.6-.4 0 .9.7 1.9 1.6 2.2.8.3 1.2.2.9-.3-.3-.5 0-1.3.6-1.7.8-.4.9-.3.5.4s0 1.2 1.1 1.3c1 0 1.3.3.6.6-2.5.9-1.3 2.2 1.2 1.3 1.6-.6 2.7-.6 3.1.2.4.7.3.8-.4.4s-1.2-.2-1.2.5c0 .6.8.9 1.9.6 1.5-.3 1.8-.1 1.4 1.1-.5 1.1-.2 1.4 1 .9 1.1-.4 1.7-.1 1.7.8 0 .8.7 1.5 1.6 1.5.9 0 1.2.5.8 1.2-.6 1-.4 1 .7.2 1.1-.9 1.9-.5 3.9 1.9 1.4 1.7 1.8 2.7 1 2.3-.8-.5-.5.2.8 1.6 1.2 1.3 1.9 2.9 1.5 3.3-.5.5-.1.4.9-.3 1.2-1 1.8-1 2.4-.1.4.8.3.9-.4.5s-1.2-.3-1.2.3c0 .5.5 1.1 1 1.3.6.2 1.2 1.3 1.3 2.5.1 1.5.5 1.9 1.3 1.2.8-.6 1.1-.3.9 1.4-.3 2.5 1.9 6.2 3.2 5.4.4-.3.8 1.5.7 3.9 0 3.1.4 4.8 1.5 5.4 1.1.6 1.2.9.3 1-.9 0-1 .5-.2 1.9 1.5 2.9 1.2 3.8-.6 1.5-1.5-1.8-1.5-1.8-.5.3 1.5 2.9 1.4 4.6-.1 3.7-.9-.6-.9-.3 0 .9.8.9 1.1 2.1.7 2.6-.3.6-.1 2 .6 3.2.9 1.7.8 2-.2 1.4-.8-.6-1.1-.4-.6.7.3.9 0 2.1-.6 2.8-.9 1-.9 1.1 0 .6.8-.4 1.1.4.9 2.6-.1 1.7-.9 3.4-1.7 3.6-1.1.3-1.1.1.1-.8 1.2-.9 1.2-1.1.1-.8-1.4.4-1.8 1.7-2.3 7-.2 2.3-.5 2.5-1.8 1.5-.8-.6-1.2-.7-.7-.2.4.4-.1 1.8-1 2.9-1.7 2-1.7 2 .1.6s1.9-1.4.7.8c-.8 1.4-1.8 2.1-2.7 1.8-1.2-.5-1.2-.2-.3 1.5.9 1.7.8 2-.2 1.4-.9-.6-1.1-.3-.6.8.4 1.1.2 1.4-.9 1-.8-.3-1.4.1-1.4 1 0 .8-.8 2.1-1.7 2.8-1.7 1.3-1.7 1.3-.3-.6s1.4-1.9-.3-.6c-1 .8-1.6 2-1.3 2.7.3.8 0 1.1-1 .7-.8-.3-1.4.1-1.4 1.1s-.6 1.3-1.5 1c-1-.4-1.5 0-1.5 1.1 0 1-.5 1.3-1.2.9-.8-.5-.9-.2-.5 1 .6 1.4.3 1.5-1.3.6s-2-.8-2 .6-.2 1.5-1.7.3c-1.1-1-1.4-1-.9-.2.4.8.2 1.3-.4 1.3-.6 0-.9.4-.5.9.3.5 0 1.3-.6 1.7-.7.4-.9.3-.5-.4.4-.6-.1-1-1.3-.9-1.1 0-1.8.4-1.5.8.2.4-.3 1-1.2 1.3-2.4.9-3.1.7-1.4-.4 1.2-.8 1.1-.9-.7-.7-1.1.2-2.8.9-3.7 1.6-.8.7-2.1.9-2.8.5-1-.6-.9-.3.1.9 1.7 2.1.8 2.2-1.3.2-1.4-1.5-5.1-1-4.1.5.5.8-5.9.3-8.5-.7-2.5-1-5.1-1-5.6-.1-.9 1.4-2 .9-3.3-1.5-.6-1.2-.9-1.4-.7-.5.3 1 .1 2-.5 2.3-.5.4-.9.3-.8-.2.1-.4.1-1.5 0-2.3-.1-1.3-.2-1.3-1.1 0-.7 1.2-1 1.2-1 .1 0-.7-.6-1.1-1.5-.8-.8.4-1.7.2-2-.4-.4-.5-1.1-.6-1.7-.3-.7.4-.8.2-.4-.4.5-.8-.3-1.2-2.4-1.2-1.7 0-2.9-.4-2.6-.8.2-.4-.4-.9-1.5-.9-1.2-.1-1.7.3-1.3 1 .5.8.3.8-.7 0-1.7-1.7-3.2-1.7-2.3-.1.6 1 .5 1-.7.1-1.2-1-1.8-1-2.9 0-1 1-1.1.9-.5-.3.8-1.3.6-1.3-.7-.2-1.3 1-1.7 1-2.1 0-.4-1-.6-1-.6.1-.1 1.1-.4 1.1-1.6.1-1.3-1.1-1.4-1-1 .3.4.8.1 1.8-.6 2.3-.8.4-1 .3-.5-.4.4-.7.3-1.2-.2-1.2-.6 0-1.3.7-1.6 1.6-.3.8-1 1.2-1.6.9-.9-.5-1.4.7-1.2 2.6.1.4-.8.5-1.8.2-1.5-.4-2 0-2 1.3s-.3 1.5-.8.7c-.6-.9-1.1-.6-2.1.8-.9 1.5-.9 1.9 0 1.4.7-.5 1-.3.7.6-.3.8-1.2 1.3-2.1 1.3-.9-.1-1.6.1-1.5.5.2 2.2-.3 4.1-1.1 3.6-.5-.3-1.3 0-1.7.6-.4.7-.3.9.3.6.6-.4 1.3-.1 1.5.6.6 1.6-.2 3.8-1.1 3.3-.4-.3-.8.1-.8.9s.4 1.2.8 1c1.5-1 1.7 2.4.2 4.6-.9 1.2-1.2 1.9-.6 1.6.6-.4 1.3 0 1.6.8.4.9.1 1.2-.9.8-1-.4-1.2 0-.8 1.1.3.9 1.1 1.3 1.7.9.6-.4.8 0 .4 1-.3 1-.2 1.7.3 1.7s.7.7.4 1.5c-.4.9 0 1.5.7 1.5 1.1 0 1.1.3-.1 1-1.2.8-1 1 .9 1 2.1 0 2.2.2 1 1.7-1.2 1.4-1.2 1.6 0 .8 1.1-.6 1.3-.3.8 1.5-.4 1.7-.3 2 .6 1.1 1.3-1.3 3.1-1.5 2.3-.2-.3.5.1 1.4.9 2.1.8.7 1.2 1.7.8 2.3-.3.6-.1.7.5.3.6-.4 2.1-.2 3.3.5 1.7.9 2 .8 1.4-.3-.3-.7 0-.5.8.4.8 1 2.2 1.8 3.1 1.8.9 0 1.6.4 1.6 1 0 .5.6 1 1.4 1 .8 0 1.7.6 1.9 1.2.3.8.6.6.6-.5.1-.9.6-1.7 1.2-1.7.5 0 .7.5.3 1.2-.5.7 0 .9 1.4.6 1.2-.3 2.8.1 3.9 1.1 1 .9 2.7 2.3 3.8 3.1 1.8 1.4 1.9 1.4.7-.2-1.2-1.4-.9-1.6 2.5-1.1 2.1.3 5 .5 6.5.6 1.5.1 2.4.5 2.2.9-.3.5-1 .6-1.5.3-.5-.4-.9-.2-.9.4 0 .7 6.4 1 18.9 1 17.7-.1 22.6-.7 20.8-2.6-.5-.4-1.1-.3-1.5.3-.7 1.1-5.6 1.3-6.7.3-.3-.3.7-.5 2.2-.4 1.6.1 3.4-.3 4.1-.8.7-.5 1.5-.7 1.9-.4.3.4 1.2.2 1.9-.4.8-.7 1.4-.7 1.9.1.3.5 1.1 1 1.6 1 .6 0 .7-.5.3-1.1-.4-.8 0-.8 1.5 0 1.8 1 2.2.9 3.1-1.4.5-1.4 1.2-2.5 1.5-2.5.4 0 .3.4 0 1-.3.5-.2 1 .4 1 .5 0 1.2-.6 1.4-1.3.4-.8.6-.8.6 0 .1 1.3 7.1-.5 7.1-1.9 0-.5-1-.3-2.2.3-1.7.8-2 .8-1.2 0 1.5-1.6 5.6-2.3 4.9-.8-.4.7 0 .4.8-.5 1.1-1.4 1.6-1.5 2.6-.5 1 .9 1.1.8.6-.6-.6-1.3-.2-1.7 1.6-1.7 1.2 0 1.9-.3 1.6-.7-.7-.6 3.7-3.3 5.7-3.3 1.7-.1 5.6-3.6 5.6-5.2 0-1.1.2-1.1.9.1.6.9 1.1 1 1.5.2.4-.6 1.1-.9 1.6-.6.4.3.6-.5.2-1.7-.3-1.4-.1-1.9.6-1.4 1.1.7 3.6-2.7 2.6-3.6-.2-.3.7-.4 2.1-.2 2.1.2 2.4 0 1.5-1.1-1-1.2-.8-1.3.9-1 1.2.2 1.9 0 1.6-.6-.4-.5-.1-.9.4-.9.6 0 1.1-.5 1.1-1.1 0-.5-.5-.7-1.2-.3-.7.4-.8.3-.4-.5.4-.6 1.1-.9 1.5-.6.5.2 2.1-.7 3.5-2 1.5-1.4 2.4-2.5 2-2.5-.4 0 .1-.7 1.2-1.6 1-.8 1.3-1.2.5-.8-.9.5-1.2.3-.7-.4.4-.7 1.5-1.2 2.4-1.2 1.4 0 1.5-.2.2-1-1.2-.8-1.2-1 .3-1.6.9-.3 1.4-1 1.1-1.5-.3-.5.6-2 1.9-3.3 1.3-1.3 2.3-3.3 2.2-4.4-.1-1.2.2-1.9.6-1.6.4.2 1 0 1.4-.6.4-.6 1.2-.8 1.8-.4.7.3.3-.2-.7-1-1.8-1.5-1.9-1.6-.2-1.6 1.3 0 1.6-.5 1.2-1.6-.5-1.2-.2-1.5 1-1 1.4.5 1.5.4.4-.9s-1-1.4.2-1c.9.4 1.5 0 1.5-.9 0-.8-.3-1.3-.7-1.1-.3.2-.6-.5-.6-1.5 0-1.4.4-1.6 1.2-.9.8.7 1.5.6 2-.2.4-.8.3-.9-.4-.5-1.7 1-1.5-1 .2-2.6 1-1.1 1.1-1.9.3-3.4-.9-1.6-.8-1.7.5-.7 1.2 1 1.5 1 1.5-.2 0-.8-.4-1.5-.9-1.5s-.6-.5-.3-1c.4-.6 1.1-.7 1.7-.4.6.4.8.2.4-.4-.3-.6-.2-1.3.3-1.7.7-.4.7-1.5 0-3.2-.8-2.3-.8-2.4.6-1.3 2 1.6 1.9.6-.1-1.4-1.4-1.5-1.4-1.6.1-1.6 1.2 0 1.4-.4.5-1.9-.7-1.4-.7-2.2.2-2.7.7-.5.8-.3.3.6-.5.9-.4 1.1.4.6.6-.4.8-1.3.4-1.9-1-1.6-1.1-8.7-.1-9.3.4-.3.8-1 .8-1.5 0-.6-.4-.8-.8-.5-.4.2-.8-.8-.7-2.4 0-1.5.3-2.6.7-2.3.5.2.8 0 .8-.6 0-.5-.6-1.2-1.2-1.4-.9-.4-.9-.6.1-.6 1.2-.1 1.1-.4-.2-1.4-1.3-.9-1.4-1.6-.6-2.7.9-1.3 1-1.2.5.2-.3 1-.1 1.8.4 1.8.6 0 1-.9 1-2s-.4-2-.8-2c-.5 0-.9-2.1-.9-4.8-.2-6.4-.1-6.2-2-6.3-1.5 0-1.5-.2-.3-.7.9-.4 1.5-1.2 1.4-1.7-.4-2.8-1.7-5.5-2.6-5.5-.6 0-.6-.6.1-1.4.9-1.1.9-1.6 0-2.2-.8-.5-.9-.3-.4.6.5.8.4 1.1-.3.7-.5-.4-.8-1.5-.5-2.6.3-1.1-.2-2.1-1.2-2.5-1.1-.4-1.4-1.2-1-2.6.3-1.1.2-2-.3-2-.6 0-1.3-.7-1.6-1.6-.3-.8-.2-1.2.3-.9.5.3 1.3.1 1.6-.5.4-.6.3-1-.2-.9-.4.1-1.4.1-2.2 0-1.1-.1-1.1-.4 0-1.8 1-1.1 1-1.4.2-.9-1.9 1.1-3.6-.3-2.3-1.9.7-.9.6-1.6-.7-2.6-1.7-1.3-1.7-1.3-.3.6s1.4 1.9-.2.6c-2-1.5-2.5-4.7-.6-3.5.7.4.8.3.4-.5-.4-.6-1.2-.9-1.7-.5-.6.3-1.3-.3-1.6-1.5-.3-1.1-1-1.8-1.6-1.4-.5.3-.7.1-.4-.5.4-.5.4-1.7.1-2.6-.5-1.4-.9-1.4-2.2-.4-1.4 1.2-1.4 1-.3-1.1.9-1.6 1-2.1.1-1.6-.7.4-1.3-.1-1.7-1.4-.3-1.2-1-1.8-1.7-1.4-.6.4-.5 0 .2-.9 1.1-1.4 1-1.6-1.1-1.4-1.9.2-2.3-.1-1.9-1.6.2-1-.1-1.8-.7-1.8-.7 0-.9.5-.5 1.2s.3.8-.5.4c-.6-.4-.9-1.1-.6-1.6.3-.5 0-1.8-.7-2.9-1-1.6-1.5-1.8-2.8-.8-.8.6-1.2.8-.8.3.4-.4-.5-1.9-2-3.3-1.5-1.3-2-2.1-1.2-1.7 1 .5 1.2.4.5-.4-.5-.5-1.9-1.2-3-1.4-1.1-.2-1.9-1.1-1.9-1.9.1-.9-.5-1.6-1.2-1.6s-1 .5-.7 1c.4.6.1.7-.6.3-.7-.5-1-1.5-.6-2.3.5-1.4.3-1.4-1.2-.2-1.5 1.3-1.6 1.2-1.1-.9.5-1.9.4-2.1-.8-1.1-1.1.9-1.4.9-1.4-.1 0-.7-.7-1-1.5-.7-.8.4-2.2-.4-3.2-1.6-1-1.2-2.4-2.3-3.1-2.5-.8-.1-2.5-1.5-3.8-3-1.4-1.5-2.3-2.1-1.9-1.5.3.7.2 1.3-.2 1.3-.5 0-1.5-.6-2.2-1.3-1.1-.9-1.2-.9-.7 0s.2 1.1-.9.7c-.9-.4-1.4-1.3-1.1-2 .3-.8.1-1.4-.4-1.4-.6 0-1 .8-1 1.7 0 1.5-.2 1.6-.9.3-.6-.8-.8-1.7-.6-2 .5-.9-3.3-.6-4.1.3-1.5 1.5-2.6.6-1.3-1 1-1.1 1-1.4.2-.9-.7.4-1.3.3-1.3-.3 0-1.1-1.9-.9-3.9.3-1 .6-1.2.5-.7-.2.4-.7.2-1.2-.4-1.2-.6 0-.8-.5-.4-1.2s.3-.8-.4-.4c-.6.4-1 1.2-.8 1.9.1.7.1.9-.2.4-.2-.4-1.3-1.2-2.4-1.8-1.5-.8-1.9-.8-1.4 0 .4.6.2 1.1-.3 1.1-.6 0-1.1-.6-1.1-1.3 0-.8-.4-.7-1 .3-.9 1.4-1.4.7-1.1-1.3.1-.4-.7-.3-1.8.3-2.4 1.2-3.4 1.3-2.7.2.3-.5-.1-.9-.9-.9s-1.2.4-.9.9c.3.4 0 .8-.5.8-.6 0-1.1-.6-1.1-1.4 0-1.5-2.4-1.6-3.7-.1-.4.4-.3.5.4.1.6-.3 1.4-.2 1.8.3.3.6-.4.8-1.7.5-1.3-.3-2.9-.6-3.6-.6-.7-.1-1-.8-.7-1.7.3-.9-.4-.5-1.5.9-1.6 2-1.9 2.1-1.4.5.4-1.1.3-1.7-.1-1.2-.5.4-2 0-3.4-.9l-2.6-1.7 2.2 2.4zm-22.1 5.7c-1.8 1.6-1.8 1.6-.6-.6.6-1.3 1.4-2.1 1.8-1.8.3.4-.2 1.4-1.2 2.4zm75.3 7.5c0 .9-.2.8-.6-.1-.2-.6-1-.9-1.5-.6-.7.4-.8.2-.4-.5.9-1.3 2.6-.5 2.5 1.2zM202 136.4c0 .2-.8 1-1.7 1.7-1.6 1.3-1.7 1.2-.4-.4 1.3-1.6 2.1-2.1 2.1-1.3zm121.5 26.5c.3.5 0 1.3-.6 1.7-.7.4-.9.3-.5-.4.3-.5 0-1.3-.6-1.5-.9-.4-1-.6-.1-.6.6-.1 1.4.3 1.8.8zm.1 51.8c-1 1.1-1.9.7-2.2-1-.2-1.5 0-1.6 1.2-.6.8.6 1.2 1.4 1 1.6zM232 241c0 .5-.5 1-1.1 1-.5 0-.7-.5-.4-1 .3-.6.8-1 1.1-1 .2 0 .4.4.4 1zm67.6 18.8c-1.7 1.6-1.8 1.6-.5-.5.7-1.2 1.5-2 1.8-1.7.3.2-.3 1.2-1.3 2.2zM231 296c0 .5-.5 1-1.1 1-.5 0-.7-.5-.4-1 .3-.6.8-1 1.1-1 .2 0 .4.4.4 1z"/><path d="M221.9 78.7c-1.3 1.6-1.2 1.7.4.4.9-.7 1.7-1.5 1.7-1.7 0-.8-.8-.3-2.1 1.3zm-191.8 7c-.6 1-1.1 1.3-1.1.6 0-.6-1.3-1.1-3-1.1-1.8.1-2.7.5-2.3 1.2.4.6 0 .5-.9-.2-1.1-.9-1.8-1-2.3-.2-.3.5-1.5 1-2.5 1s-2 .4-2.2 1c-.1.5-1.4 1.1-2.8 1.4-1.4.2-2.7.5-2.9.5-.2.1.3.8 1 1.8 1.3 1.5 1.2 1.5-.8.4-1.9-.9-2.2-.9-1.7.3.3.8 0 1.7-.7 2.2-.8.5-1 .3-.5-.7.4-.8 0-.5-.8.5C5.7 95.5 5 97 5 97.8c0 .8-.6 1.2-1.5.9-1.1-.5-1.2-.1-.5 1.8.8 2 .6 2.3-.9 2-1.7-.3-1.9.5-2 8.6-.2 6.7.1 8.9 1.1 8.9s1 .2-.1.9c-1 .7-1.1 1.2-.1 2.7 1 1.6 1.1 1.6.6.1-.3-.9 0-1.7.5-1.7.7 0 .9 1.1.6 2.6-.3 1.9-.1 2.4 1.1 1.9 1.2-.4 1.3-.3.2 1-1 1.3-.9 1.5.9 1.5 1.5 0 2.1.6 2.1 2.1 0 1.1.4 1.7 1 1.4.5-.3 1 .2 1 1.2 0 1.2.3 1.4.8.6.6-.9 1.2-.7 2.2.7.8 1.1 2 2 2.8 2 .7 0 1 .5.6 1.2-.4.6-.3.8.4.4.6-.3 1.4-.2 1.7.4.5.8 1.2.7 2.3-.2.9-.7 1.3-.8.9-.2-.4.7 0 1.7.8 2.4 1.3 1.1 1.4 1 1-.3-.4-.8-.1-1.8.6-2.3.7-.4 1-.3.6.3-1.2 2 1.8 3.4 3.9 1.9 1.5-1.1 2.2-1.2 3.3-.3 1.2 1 1.3.9.7-.2-.7-1-.4-1.2 1.2-.7 1.1.4 2.3.2 2.7-.4.3-.6 1.1-.7 1.7-.4.7.4.8.2.4-.4-.4-.7-.1-1.2.9-1.2s1.3.5.9 1.2c-.5.7-.3.8.5.4.7-.5 1-1.4.7-2.2-.4-1.2-.2-1.2 1.4-.4 1.6.8 1.8.8 1.4-.4-.3-.8 0-1.7.7-2.2.8-.5 1-.3.5.7-.4.8-.1.6.7-.3.8-1 1.7-1.5 2-1.1.6.6 1.1-1.2.8-3 0-.4.5-.7 1.3-.7s1.8-.5 2.2-1.2c.4-.7.3-.8-.4-.4s-1.2.2-1.2-.3c0-.6.7-1.1 1.6-1.1.8 0 1.2-.5.9-1-.4-.6-1.1-.8-1.6-.5-.5.3.1-.9 1.4-2.8 1.2-1.9 2.7-3.2 3.2-2.9.6.3.4-.1-.3-1-.9-1.2-1-2.7-.3-5.7.5-2.3.5-3.9 0-3.5-.8.5-1.3-2-1.1-5.5 0-.8-.7-2-1.5-2.6-.9-.7-1.3-1.7-.9-2.3.4-.8.2-1-.7-.6-.8.3-1.8 0-2.3-.7-.5-.8-.3-1 .5-.4 1 .6 1.1.3.2-1.4-1.2-2.2-2.7-3-1.6-.9.4.7 0 .5-.8-.4-.8-1-1.7-1.5-2.1-1.1-.4.4-.4 0-.1-.9.4-.9.1-1.9-.6-2.4-.8-.4-1-.3-.5.4 1.1 1.9-.5 1.4-2.1-.6-.8-.9-1.2-1.2-.9-.5.4.7-.1 1-1.1.9-.9-.2-1.9-.9-2.1-1.7-.3-1.1-.1-1.1.7.1.6.8 1.1 1 1.1.4s-.8-1.8-1.7-2.5c-1.1-1-1.4-1-.9-.2.4.7.2 1.3-.3 1.3-.6 0-1.1-.5-1.1-1.1 0-.8-.5-.8-1.5.1-1.4 1.1-1.9.7-1.6-1.3.2-1.3-.8-.7-1.8 1zM52.5 102c.3.5.1 1-.4 1-.6 0-1.1-.5-1.1-1 0-.6.2-1 .4-1 .3 0 .8.4 1.1 1zM19 138c0 .5-.2 1-.4 1-.3 0-.8-.5-1.1-1-.3-.6-.1-1 .4-1 .6 0 1.1.4 1.1 1zm89-52.8c-1.2.8-1.1.8.5.3s1.7-.4.8.6c-.8.8-1.6.9-2.5.2-1.3-.9-3.1-.9-8.1 0-1.6.3-2.5.2-2.2-.4.4-.5.1-.9-.4-.9-.6 0-1.1.6-1.1 1.4 0 .8-.5 1.8-1.2 2.2-.7.4-.8.3-.4-.4s.3-1.2-.1-1.2c-.5 0-1.4.9-2.1 2-.6 1.1-1.8 1.7-2.6 1.4-.8-.3-1.6.3-1.9 1.5-.3 1.3-1.1 1.9-2 1.5-1-.3-1.7.3-2.1 2-.4 1.5-1.4 2.6-2.4 2.6-1.5 0-1.5.2-.2 1 1.3.9.7 1.4-1.2 1.1-.5 0-.8.4-.8 1 0 .5-.5.7-1.2.3-.7-.4-.8-.3-.4.5.4.6 1.3.9 1.9.5.7-.3.5 0-.3.8-2.2 1.9-2.3 3.8-.2 3.2 1.5-.5 1.5-.4-.1.6-1.4.9-1.6 1.5-.6 2.6.9 1.1.7 1.6-1.2 2.3-2.2.9-1.2 1.6 1.6 1.2.6-.1.1.6-.9 1.4-1.1.8-1.4 1.5-.7 1.5s1 .7.7 1.7c-.7 2.4 3.7 10.9 5.4 10.5 1.1-.3 1.1 0 0 1.2-1 1.3-1 1.6.4 1.6 1 0 1.4.4 1.1 1-.3.5-.1 1 .5 1s.9.4.5.9c-.3.6.3.8 1.4.6 1.4-.2 1.8.1 1.4 1.1-.3.8 0 1.4.6 1.4s1.1.5 1.1 1.1c0 .5-.6.7-1.2.3-.7-.4-.5.2.5 1.4 1.1 1.1 2.5 1.8 3.3 1.5 1.2-.4 1.2 0 .4 2.1-.7 2-.7 2.5.2 2 .8-.5.9 0 .6 1.4-.4 1.6-.2 2.2 1 2.2 1.5 0 .8 1.4-.9 1.6-2 .3-2.1.4-1.2 1.6.6.7 1.3 2.3 1.6 3.6.4 1.8.3 2.1-.8 1.2-1-.8-1.2-.4-1 2.4.1 1.9-.1 3.5-.4 3.4-1.9-.2-3.1.3-2.7 1.1.3.5-.1 1.1-.9 1.5-.8.3-1.5 1.2-1.5 2 0 .7-.9 1.6-1.9 1.9-1 .2-2.4 1.5-3.1 2.7-1 1.8-1 2.1.2 1.5.7-.3.4.1-.6.9-1.5 1.2-1.6 1.6-.5 1.7.8 0 .4.4-.9 1-1.3.5-2.1 1.3-1.8 1.8.3.5-.1 1.4-.9 2.1-1 .9-1.2 1.7-.5 3s.6 2-.3 2.3c-.9.4-.9.6.1.6.6.1 1.2.6 1.2 1.2s-.7.9-1.5.5c-1.2-.4-1.3-.2-.3 1.4.7 1 1.5 1.7 1.8 1.5.4-.2.7.2.7 1s-.4 1.2-.9.9c-.4-.3-.8 0-.8.5 0 .6.4 1.1.9 1.1.4 0 .7 1.4.5 3.1-.4 2.8-.2 3 1.3 1.8 1.5-1.3 1.5-1.2.4 1-.7 1.3-.9 2.1-.3 1.8.5-.4 1.8.1 2.8.9 1 .9 1.3 1.3.7.9-.8-.4-1.3 0-1.3 1 0 .9.5 1.3 1 1 .9-.6 1.4.7 1.1 2.7 0 .4.5.5 1.3.2.7-.3 1.6.2 2 1.1.4 1 1.2 1.5 2.2 1.1 1.2-.5 1.4-.1.9 1.7-.4 1.5-.3 1.8.3.8.6-.9 1.2-1 1.6-.3.4.6 1.4.8 2.3.5 1-.4 1.4-.2.9.5-.3.6-.1 1.4.5 1.8.7.4.9.3.5-.4-.3-.6-.2-1.3.4-1.7.5-.3 1 .1 1 .9 0 .9.5 1.6 1.1 1.6.5 0 .7-.6.3-1.3-.4-.6.3-.3 1.6.8 2 1.7 2.2 1.7 1.7.3-.4-1.2-.2-1.5.8-1.1.8.3 1.3.8 1.1 1.2-.3.4.4.7 1.5.7s1.8-.5 1.5-1.3c-.3-.7.1-1 .9-.6.8.3 1.3.9 1 1.3-.3.5.6.3 2-.3 1.4-.7 2.3-1.7 2.1-2.3-.2-.6.2-1.1 1-1.1.7 0 1.1.3.9.7-.2.3.5.6 1.5.6 1.5 0 1.7-.3.7-1.5s-.9-1.4.6-.8c1.2.4 1.7.1 1.7-1 0-1.3.3-1.3 1.5-.3 1.3 1.1 1.4 1 .9-.3-.5-1.5 3.1-4.4 4.9-3.9.4.1.2-.8-.4-2-1.1-2.1-1.1-2.2.4-1 1.3 1.1 1.5 1 1-.9-.4-1.5-.3-2 .5-1.5.8.4 1 .2.6-.7-.3-.8.2-1.7 1-2 1-.4 1.3-1.3.9-2.3-.5-1.3-.3-1.5.8-.9 1.2.8 1.2.6 0-.8-1-1.3-1.1-1.7-.1-1.7.9 0 .7-.7-.5-2-2-2.2-.8-2.8 1.5-.8 1.3 1.1 1.3 1.1.2-.2-.6-.7-1.2-2.8-1.2-4.5 0-2.3-.3-2.6-1-1.5-.7 1-1 1.1-1 .2 0-.7.7-1.5 1.6-1.9 1.2-.4 1-.9-1.3-2.4-1.5-1.1-2.2-1.9-1.5-1.9.6 0 1.2-.5 1.2-1.1 0-.5-.4-.7-1-.4-.5.3-1-.3-1-1.4 0-1.2-.7-2.1-1.6-2.1-.8 0-1.3-.3-1.1-.8.7-1-1.9-3.2-2.9-2.4-.5.4-.2-.1.5-1 1.1-1.5 1-1.7-.9-1.3-1.9.4-2 .2-.8-1.2.9-1.2.9-1.5.1-.9-.8.4-1.3.2-1.3-.4 0-.6-.5-.8-1.2-.4-.8.5-.7 0 .2-1.1.8-1 1.1-1.6.5-1.3-1 .6-2.9-.9-3.4-2.7-.2-.6-.6-.9-1-.8-.4.1-.7-.9-.7-2.2 0-1.3.4-2.1.8-1.9.4.3.8 0 .8-.5 0-.6-.8-1.1-1.7-1.2-1.1 0-1.3-.3-.5-.6.6-.2 1.2-.9 1.2-1.4 0-.6-.6-.7-1.2-.2-.7.4-.5-.6.6-2.1 1.5-2.3 1.6-3 .5-3.7-1.2-.7-1.2-.9 0-.9.8 0 1.1-.6.7-1.6-.3-.8-.2-1.3.2-1 1.3.8 3.5-1.1 3.9-3.4.2-1.5-.1-1.9-.9-1.4-.8.4-1 .3-.5-.2s1.3-1 1.8-1c.5-.1 1.4-.2 2-.3.5 0 .7-.6.4-1.1-.3-.6.4-1.4 1.7-1.9 1.3-.6 1.7-1 1-1-.7-.1-1-.6-.7-1.1.4-.6 1.1-.8 1.6-.5.5.4.9.1.9-.5s.6-.8 1.3-.4c.9.5.9.4 0-.6-1-1.1-.9-1.6.5-2.7.9-.8 1.2-1.2.5-.9-.8.5-.8 0 0-1.8.7-1.3 1.5-2.2 1.9-2 1.6 1 .7-.9-.9-2.2-1.6-1.2-1.6-1.3.7-.8 1.4.2 1.9.2 1.3-.2-.7-.3-1.3-1-1.3-1.5 0-.6.6-.7 1.3-.3.8.5.7.2-.2-.9-1.2-1.6-1.2-1.7.5-1.1 1.1.3 1.5.2.8-.3-.6-.4-1-2-1-3.5.1-1.4-.2-2.4-.7-2.1-.5.3-.8-.1-.6-.8.3-2.7-.1-4-1.1-3.4-1 .6-1.1.5-1.5-3.3-.3-3-1.4-4-2.5-2.2-.6.8-1 1-1 .4 0-.5.6-1.6 1.3-2.3 1-1.1.9-1.2-.2-.6s-1.3.4-.7-1c.6-1.6.4-1.6-1.1-.4-.9.8-1.4.9-1.1.4.4-.6.3-1.7-.3-2.5-.7-1.3-.9-1.3-1 0 0 .8-.7.1-1.4-1.5-1.1-2.2-1.4-2.5-1.5-1.1 0 2 0 2-1.6 0-.8-1-1.2-1.3-.8-.5.5 1 .3 1.2-.5.7-.7-.5-1-1.4-.8-2 .3-.7-.1-1.3-.9-1.3-.7 0-1.1.4-.8.9.3.4-.2.5-1 .2-.9-.3-1.4-1-1.1-1.4.9-1.4-1-2-2.5-.8zM91 140c0 .5-.2 1-.4 1-.3 0-.8-.5-1.1-1-.3-.6-.1-1 .4-1 .6 0 1.1.4 1.1 1zm3.9 14.4c-.3.3-1.1-.5-1.8-1.7-1.3-2.1-1.2-2.1.5-.5 1 1 1.6 2 1.3 2.2zM84 171.6c0 .8-.5 1.2-1 .9-.6-.4-.8-1.1-.5-1.6.9-1.4 1.5-1.1 1.5.7zm-6.3 10.9c0 .8-.4 1.2-.9.9-.5-.3-.6-1-.3-1.5.9-1.3 1.2-1.1 1.2.6zm33.3 32.1c0 .8-1.9 1.3-2.4.6-.3-.5.1-.9.9-.9s1.5.2 1.5.3z"/><path d="M89 89.1c0 .5.5.7 1 .4.6-.3 1-.8 1-1.1 0-.2-.4-.4-1-.4-.5 0-1 .5-1 1.1zm81.5.9c-.3.6.1.7.9.4 1.8-.7 2.1-1.4.7-1.4-.6 0-1.3.4-1.6 1zM272 94.4c0 .2.7.9 1.5 1.6.9.7 1.5.8 1.5.2 0-.5-.7-1.2-1.5-1.6-.8-.3-1.5-.4-1.5-.2zM52.5 123c-.3.6.1.7.9.4 1.8-.7 2.1-1.4.7-1.4-.6 0-1.3.4-1.6 1zm143 17c-.3.5-.1 1 .4 1 .6 0 1.1-.5 1.1-1 0-.6-.2-1-.4-1-.3 0-.8.4-1.1 1zm58.1 10.3c.3 1 .9 1.5 1.2 1.2.3-.3 0-1.1-.7-1.8-1-.9-1.1-.8-.5.6zm-76.2 10.8c-.4.8-.3 1 .4.5.7-.4 1.2-.2 1.2.3 0 1.4-1.7 1.4-2.5.1-.4-.6-1.1-.8-1.6-.4-.5.3-.6 1.1-.2 1.7.4.7 0 .6-1-.2-1.4-1.1-1.7-1.1-1.8 0 0 .8-.4.5-.9-.6-.8-2-.9-1.9-.9.1-.1 1.2-.8 2.7-1.6 3.4-1.5 1.2-1.6 1.1-1.9-1-.2-1.5-2.1-1.2-2.1.2-.1.7-.6 1.2-1.3 1.1-.6-.2-.9.4-.6 1.2.4.9 0 1.5-1 1.5-.9 0-1.5.6-1.3 1.2.1.7-.3 1.2-1 1.1-.6-.1-1.6 1.1-2.2 2.8-.7 2-1.5 2.8-2.3 2.3-.7-.4-1-.4-.6.1.4.4.4 1.3-.1 1.9-.4.6-1.1 2-1.5 3-.6 1.7-.5 1.7 1 .5 1.6-1.3 1.6-1.2.7.6-.5 1.1-.9 3.5-.8 5.3 0 2.4-.3 3.1-1.4 2.7-1.2-.5-1.2-.3 0 1.1.7.9 1.2 2.9 1.1 4.5-.2 1.7.1 2.9.8 2.9.6 0 .9.4.5.9-.3.5.2 1.6 1 2.4 1.8 1.8 2 3.1.3 2.1-.7-.4-.8-.3-.4.4.4.6 1.4.8 2.3.5 1.1-.4 1.4-.3.9.5-.4.7-.1 1.5.8 1.8.9.3 1.6 1.2 1.6 2s.9 1.4 2.1 1.4c1.1 0 1.7.4 1.4 1-.3.5.1 1 1 1 1 0 1.3.5.9 1.2-.5.9-.2.9.9-.1 1-.8 1.7-.9 1.7-.3 0 .6.8 1.1 1.8 1.1 3.8.1 5.1.5 4.6 1.3-.6.9-.5.9 4.9 1.2 2.1.1 4.1-.2 4.4-.7.4-.6.1-.7-.8-.2-.8.5-1.1.4-.6-.1.9-.9 1.4-1.1 4.8-1.3 1.3-.1 1.8-.5 1.3-1.4-.6-.9-.4-.9.8.1 1.2.9 1.8 1 2.3.2.4-.6 1.4-.9 2.2-.5 1.4.5 1.4.3.2-1.2-.7-1-1-1.5-.5-1.1 1.2 1 4.6-1 4.2-2.5-.1-.6-.1-.9.1-.5 1 1.7 2.5.7 2-1.2-.3-1.1-.1-1.8.4-1.4.5.3.9-.2.9-1 0-.9.5-1.6 1.1-1.6.5 0 .7.5.3 1.2-.4.6-.3.8.3.5.6-.4.8-1.8.5-3.2-.2-1.5 0-2.5.7-2.5s.9.5.5 1.2-.3.8.4.4c.6-.4.9-1.3.6-2.1-.4-.8-1-1.2-1.5-.9-.5.3-.6-.2-.3-1.1.5-1.3.9-1.3 2.2-.3 1.3 1.1 1.4 1.1.8-.1-.5-.8-.3-1.7.5-2.3 1.1-.7.9-.8-.5-.4-1.3.4-1.7.2-1.3-.8.3-.7.1-1.9-.4-2.5-.6-.8-.5-.8.3-.1 1.9 1.5 3.2 1.2 1.8-.5-1-1.2-1-1.5.1-1.5.8 0 .6-.5-.5-1.3-1.6-1.2-1.7-1.7-.6-3.8 1.2-2.2 1.2-2.3-.3-1-1.5 1.2-1.7 1-1.8-1.8-.2-5.2-.4-5.6-2.2-5.3-1.6.3-1.7 0-.6-2 1.1-2.1 1.1-2.2-.4-1-1.4 1.2-1.6 1.1-1.2-.7.4-2.4-.5-2.7-2.4-.9-1.1 1.1-1.2.9-.7-.9.4-1.2.2-2.4-.5-2.9-.8-.5-1-.3-.4.7.4.8-.2.4-1.4-.9-2.4-2.5-4-3-2.1-.7 1.1 1.3 1 1.4-.4.9-1.4-.5-2-1.6-1.8-3.5.1-.3-.6-.6-1.3-.6-1.2 0-1.2.3-.3 1.6.7.9.1.6-1.3-.6-1.9-1.8-2.8-2-3.7-1.1-.9.9-1.2.9-1.2 0 0-.7-.5-1.2-1.1-1.2-.5 0-.7.6-.3 1.2.4.7-.2.5-1.3-.5-1.6-1.4-2.3-1.5-2.9-.6zM157 178.4c0 .2-.7.7-1.6 1-.8.3-1.2.2-.9-.4.6-1 2.5-1.4 2.5-.6zm22.4 37.4c.3.5-.1.9-.9.9s-1.2-.4-.9-.9c.3-.4.7-.8.9-.8.2 0 .6.4.9.8z"/><path d="M167.6 164.7c-.6 1.4-.5 1.5.5.6.7-.7 1-1.5.7-1.8-.3-.3-.9.2-1.2 1.2zM326.5 189c-.3.6.1.7.9.4 1.8-.7 2.1-1.4.7-1.4-.6 0-1.3.4-1.6 1zm-.2 6.7c0 .9.4 1 1.4.2.7-.6 1.3-1.2 1.3-1.4 0-.1-.6-.2-1.3-.2-.8 0-1.4.6-1.4 1.4zm-58.7 6.1c-.3.5.1.9.9.9s1.2-.4.9-.9c-.3-.4-.7-.8-.9-.8-.2 0-.6.4-.9.8zm-96.3 14.7c0 .7.6 1.1 1.4.8.7-.3 1.3-.6 1.3-.8 0-.2-.6-.5-1.3-.8-.8-.3-1.4.1-1.4.8zm-69.8 14.6c.4.5 1.1.6 1.7.3.7-.4.8-.2.4.4-.5.9-1.3.9-2.7.2-1.4-.8-1.9-.7-1.9.1 0 .8-.4.8-1.5-.1-1.3-1.1-1.4-1-.8.5.5 1.4.3 1.7-.9 1.3-1.9-.8-5.1 2.8-4.1 4.5.4.8.1.7-1-.1-1.4-1.2-1.6-1.1-1.2.7.3 1.4-.1 2.1-1.2 2.1-1.2 0-1.3.3-.4 1.4.9 1 .9 1.6.1 2.1s-.8 1.1.1 2.1c1 1.2.9 1.3-.5.8-1.2-.5-1.5-.2-1 1 .3.9 1.1 1.3 1.8.9.6-.4.6 0-.2.9-1.5 1.9.3 6.8 2.5 6.8.8 0 1.1.4.8 1-.3.5.1 1 1 1s1.4.4 1.1.9c-.3.5.1 1.2 1 1.5.8.3 1.3 1 .9 1.5-.6 1.1 2.7.7 4.8-.5.9-.6.9-.4-.1.8-1.1 1.3-.9 1.5 1.3 1.5 1.4 0 2.2-.4 1.8-1-.3-.5 0-.7.8-.5.8.3 1.3 1.1 1.1 1.8-.2 1 0 1.1 1.1.2.8-.7 1.6-1 1.9-.7.3.3 1.1-.3 1.9-1.2 1.3-1.6 1.2-1.7-.3-.4-1.2.9-1.8 1-1.8.2 0-1.1 1.3-1.5 3.6-1.2.7.1 1.4-.8 1.7-1.9.3-1.3 1.1-1.8 2-1.4.8.3 1.7-.2 2.1-1.1.3-1 .2-1.4-.5-.9-.8.4-.7 0 0-1.5.7-1.1 1.6-2.1 2.1-2.1.6 0 1-.5 1-1.1 0-.5-.6-.7-1.2-.3-.7.4-.4-.3.7-1.5 1.6-1.9 1.7-2.4.5-3.1-1.3-.8-1.3-1 0-1s1.3-.1 0-1-1.3-1 0-1.1c1 0 .9-.3-.4-.8-1.1-.4-2.1-1.8-2.3-3.2-.2-1.3-.4-2.9-.5-3.5-.1-.6-1.1-1-2.2-.9-2.4.1-4.8-1.3-4.1-2.5.3-.5.1-1.1-.5-1.5-.5-.3-1 .2-1.1 1.2 0 1.6-.1 1.6-.9-.2-.6-1.3-.9-1.5-.9-.5-.1 1.2-.3 1.2-.9.2-.5-.7-1.8-1.4-3.1-1.7-1.2-.2-1.9 0-1.6.6zM98 262c0 .5-.2 1-.4 1-.3 0-.8-.5-1.1-1-.3-.6-.1-1 .4-1 .6 0 1.1.4 1.1 1z"/><path d="M111.5 234c.3.5.8 1 1.1 1 .2 0 .4-.5.4-1 0-.6-.5-1-1.1-1-.5 0-.7.4-.4 1zm201.5 8.1c0 .5.5.7 1 .4.6-.3 1-.8 1-1.1 0-.2-.4-.4-1-.4-.5 0-1 .5-1 1.1zm-4 6c0 .5.5.7 1 .4.6-.3 1-.8 1-1.1 0-.2-.4-.4-1-.4-.5 0-1 .5-1 1.1zm-154.4 14.1c.3.5 1 .6 1.5.3 1.3-.9 1.1-1.2-.6-1.2-.8 0-1.2.4-.9.9zm30.4 31.4c0 .8.5 1.2 1 .9.6-.4.8-1.1.5-1.6-.9-1.4-1.5-1.1-1.5.7zm57.5 1.3c-.3.5-.2 1.2.3 1.5.5.3.9-.1.9-.9 0-1.7-.3-1.9-1.2-.6zm-47.1 1.4c-.4.6-.4.9.1.5.4-.4 1.4-.3 2.2.4.7.6 1.5.9 1.8.7.2-.3-.4-1-1.5-1.7-1.5-.9-2.1-.9-2.6.1z"/></svg>