<svg xmlns="http://www.w3.org/2000/svg" width="97.56" height="97.531"><path d="M77.55 45.895a.774.774 0 00-1.09-.06l-1.5 1.353-8.17-8.1a.768.768 0 00-1.08 1.091l8.1 8.037-4.01 3.6-13.35-13.521 13.27-12.547a.767.767 0 00-1.05-1.117l-13.84 13.09a.755.755 0 00-.24.544.8.8 0 00.22.551l1.23 1.245-2.71 2.834-5.22-.555a.73.73 0 00-.62.217l-2.12 2.1-3.95-3.9 1.33-1.345a.8.8 0 00.22-.551.748.748 0 00-.24-.544L28.89 25.231a.766.766 0 10-1.05 1.116l9.33 8.832L23.5 48.591l-2.4-2.16a.778.778 0 00-1.09.061.766.766 0 00.06 1.084l7.21 6.47a.752.752 0 00.51.194.736.736 0 00.54-.224l1.31-1.323 7.18 7.081-1.32 1.338a.773.773 0 00.01 1.083l2.69 2.692 2.69 2.662 2.69 2.688 2.7 2.692a.757.757 0 00.54.225.774.774 0 00.54-.225l1.39-1.4 1.42 1.4a.766.766 0 00.54.222.757.757 0 00.54-.225l2.15-2.149.32.314a.756.756 0 001.08 0l2.15-2.146.32.318a.774.774 0 00.54.225.757.757 0 00.54-.225l2.15-2.152.32.319a.773.773 0 00.54.224.756.756 0 00.54-.224l2.7-2.692a.768.768 0 000-1.086l-4-4 7.22-7.662 1.4 1.417a.763.763 0 00.55.229.752.752 0 00.51-.2l7.21-6.466a.772.772 0 00.06-1.088zm-38.83.427a3.357 3.357 0 01-5.38 2.681l4.7-4.7a3.4 3.4 0 01.68 2.023zm.41-3.111l1.28-1.281.69.682-1.41 1.447a4.353 4.353 0 00-.56-.848zm-11.37 9.207l-3.11-2.8 13.64-13.387 2.82 2.662zm4.49-2.328a4.439 4.439 0 00.88.577c-.25.251-.5.514-.75.773-.31.314-.6.622-.89.918l-.76-.746zm5.67 10.763l1.61 1.589-.8.81-1.6-1.605zm3.51 5.071l-1.6-1.585.8-.81 1.61 1.585zm1.9.27l1.62 1.593-.83.825-1.6-1.6zm3.49 5.109l-1.61-1.6.83-.832 1.62 1.6zm14.54-5.5l-.31-.318-3.1-3.1-.95-.941a.761.761 0 00-1.08 0 .77.77 0 000 1.088l3.5 3.5-1.61 1.609-4.36-4.36a.761.761 0 00-1.08 0 .748.748 0 000 1.084l.94.945 2.55 2.555-1.6 1.609-3.42-3.418-.94-.942a.774.774 0 00-1.09 0 .765.765 0 000 1.084l1.77 1.765 1.74 1.736-1.62 1.608-18.12-17.876c.29-.3.59-.607.9-.926.46-.468.9-.924 1.3-1.329a4.24 4.24 0 00.58.037 4.9 4.9 0 004.9-4.893 4 4 0 00-.05-.6l1.99-2.032 2.07 2.055-7.24 7.186a.76.76 0 00-.23.588.774.774 0 00.29.559c.18.142 4.38 3.325 11.68-4.071l14.2 14.192zm-1.85-7.231L49.3 48.364a.715.715 0 00-.55-.224.764.764 0 00-.55.24c-4.71 5.011-7.86 5.165-9.28 4.835l9.39-9.315 3.68.394-.55.577a.768.768 0 101.11 1.061l4.41-4.615 9.69 9.687zm1.35-22.041a2.4 2.4 0 102.39-2.4 2.4 2.4 0 00-2.39 2.4zm3.26 0a.865.865 0 11-.87-.862.87.87 0 01.87.862zM48.78 1.294A47.468 47.468 0 111.31 48.762 47.526 47.526 0 0148.78 1.294m0-1.3a48.768 48.768 0 1048.77 48.769A48.772 48.772 0 0048.78-.007z" fill-rule="evenodd"/></svg>