<svg xmlns="http://www.w3.org/2000/svg" width="117" height="23"><g data-name="Group 141" transform="translate(-392 -3972)"><rect data-name="Rectangle 34" width="117" height="23" rx="11.5" transform="translate(392 3972)" fill="#fdcc4b"/><g data-name="Group 137"><path data-name="Path 125" d="M414.436 3983.807a.821.821 0 00-.456-.738l-1.107-.554 1.107-.554a.825.825 0 000-1.475l-6.251-3.125a1.639 1.639 0 00-1.458 0l-6.25 3.126a.825.825 0 000 1.475l1.107.554-1.107.554a.825.825 0 000 1.475l1.107.554-1.107.554a.825.825 0 000 1.475l6.251 3.126a1.639 1.639 0 001.458 0l6.251-3.126a.825.825 0 000-1.475l-1.108-.556 1.107-.554a.821.821 0 00.456-.736zm-14.109-2.456a.141.141 0 010-.252l6.251-3.125a.952.952 0 01.846 0l6.251 3.123a.141.141 0 010 .252l-6.251 3.127a.952.952 0 01-.846 0zm13.348 4.913a.141.141 0 010 .252l-6.251 3.125a.951.951 0 01-.846 0l-6.251-3.125a.141.141 0 010-.252l1.566-.783 4.379 2.19a1.639 1.639 0 001.458 0l4.379-2.19zm0-2.33l-6.251 3.125a.951.951 0 01-.846 0l-6.251-3.126a.141.141 0 010-.252l1.566-.784 4.379 2.19a1.639 1.639 0 001.458 0l4.379-2.19 1.566.783a.141.141 0 010 .252z" fill="#333"/></g><text transform="translate(420 3987)" fill="#333" font-size="12" font-family="RobotoCondensed-Regular, Roboto"><tspan x="0" y="0">Универсальный</tspan></text></g></svg>