<svg xmlns="http://www.w3.org/2000/svg" width="137" height="458"><defs><clipPath id="a"><path fill="none" d="M0 0h137v458H0z"/></clipPath></defs><g data-name="Repeat Grid 5" opacity=".059" clip-path="url(#a)"><circle data-name="Ellipse 43" cx="3" cy="3" r="3"/><circle data-name="Ellipse 43" cx="3" cy="3" r="3" transform="translate(16)"/><circle data-name="Ellipse 43" cx="3" cy="3" r="3" transform="translate(32)"/><circle data-name="Ellipse 43" cx="3" cy="3" r="3" transform="translate(48)"/><circle data-name="Ellipse 43" cx="3" cy="3" r="3" transform="translate(64)"/><circle data-name="Ellipse 43" cx="3" cy="3" r="3" transform="translate(80)"/><circle data-name="Ellipse 43" cx="3" cy="3" r="3" transform="translate(96)"/><circle data-name="Ellipse 43" cx="3" cy="3" r="3" transform="translate(112)"/><circle data-name="Ellipse 43" cx="3" cy="3" r="3" transform="translate(128)"/><circle data-name="Ellipse 43" cx="3" cy="3" r="3" transform="translate(0 16)"/><circle data-name="Ellipse 43" cx="3" cy="3" r="3" transform="translate(16 16)"/><circle data-name="Ellipse 43" cx="3" cy="3" r="3" transform="translate(32 16)"/><circle data-name="Ellipse 43" cx="3" cy="3" r="3" transform="translate(48 16)"/><circle data-name="Ellipse 43" cx="3" cy="3" r="3" transform="translate(64 16)"/><circle data-name="Ellipse 43" cx="3" cy="3" r="3" transform="translate(80 16)"/><circle data-name="Ellipse 43" cx="3" cy="3" r="3" transform="translate(96 16)"/><circle data-name="Ellipse 43" cx="3" cy="3" r="3" transform="translate(112 16)"/><circle data-name="Ellipse 43" cx="3" cy="3" r="3" transform="translate(128 16)"/><circle data-name="Ellipse 43" cx="3" cy="3" r="3" transform="translate(0 32)"/><circle data-name="Ellipse 43" cx="3" cy="3" r="3" transform="translate(16 32)"/><circle data-name="Ellipse 43" cx="3" cy="3" r="3" transform="translate(32 32)"/><circle data-name="Ellipse 43" cx="3" cy="3" r="3" transform="translate(48 32)"/><circle data-name="Ellipse 43" cx="3" cy="3" r="3" transform="translate(64 32)"/><circle data-name="Ellipse 43" cx="3" cy="3" r="3" transform="translate(80 32)"/><circle data-name="Ellipse 43" cx="3" cy="3" r="3" transform="translate(96 32)"/><circle data-name="Ellipse 43" cx="3" cy="3" r="3" transform="translate(112 32)"/><circle data-name="Ellipse 43" cx="3" cy="3" r="3" transform="translate(128 32)"/><circle data-name="Ellipse 43" cx="3" cy="3" r="3" transform="translate(0 48)"/><circle data-name="Ellipse 43" cx="3" cy="3" r="3" transform="translate(16 48)"/><circle data-name="Ellipse 43" cx="3" cy="3" r="3" transform="translate(32 48)"/><circle data-name="Ellipse 43" cx="3" cy="3" r="3" transform="translate(48 48)"/><circle data-name="Ellipse 43" cx="3" cy="3" r="3" transform="translate(64 48)"/><circle data-name="Ellipse 43" cx="3" cy="3" r="3" transform="translate(80 48)"/><circle data-name="Ellipse 43" cx="3" cy="3" r="3" transform="translate(96 48)"/><circle data-name="Ellipse 43" cx="3" cy="3" r="3" transform="translate(112 48)"/><circle data-name="Ellipse 43" cx="3" cy="3" r="3" transform="translate(128 48)"/><circle data-name="Ellipse 43" cx="3" cy="3" r="3" transform="translate(0 64)"/><circle data-name="Ellipse 43" cx="3" cy="3" r="3" transform="translate(16 64)"/><circle data-name="Ellipse 43" cx="3" cy="3" r="3" transform="translate(32 64)"/><circle data-name="Ellipse 43" cx="3" cy="3" r="3" transform="translate(48 64)"/><circle data-name="Ellipse 43" cx="3" cy="3" r="3" transform="translate(64 64)"/><circle data-name="Ellipse 43" cx="3" cy="3" r="3" transform="translate(80 64)"/><circle data-name="Ellipse 43" cx="3" cy="3" r="3" transform="translate(96 64)"/><circle data-name="Ellipse 43" cx="3" cy="3" r="3" transform="translate(112 64)"/><circle data-name="Ellipse 43" cx="3" cy="3" r="3" transform="translate(128 64)"/><circle data-name="Ellipse 43" cx="3" cy="3" r="3" transform="translate(0 80)"/><circle data-name="Ellipse 43" cx="3" cy="3" r="3" transform="translate(16 80)"/><circle data-name="Ellipse 43" cx="3" cy="3" r="3" transform="translate(32 80)"/><circle data-name="Ellipse 43" cx="3" cy="3" r="3" transform="translate(48 80)"/><circle data-name="Ellipse 43" cx="3" cy="3" r="3" transform="translate(64 80)"/><circle data-name="Ellipse 43" cx="3" cy="3" r="3" transform="translate(80 80)"/><circle data-name="Ellipse 43" cx="3" cy="3" r="3" transform="translate(96 80)"/><circle data-name="Ellipse 43" cx="3" cy="3" r="3" transform="translate(112 80)"/><circle data-name="Ellipse 43" cx="3" cy="3" r="3" transform="translate(128 80)"/><circle data-name="Ellipse 43" cx="3" cy="3" r="3" transform="translate(0 96)"/><circle data-name="Ellipse 43" cx="3" cy="3" r="3" transform="translate(16 96)"/><circle data-name="Ellipse 43" cx="3" cy="3" r="3" transform="translate(32 96)"/><circle data-name="Ellipse 43" cx="3" cy="3" r="3" transform="translate(48 96)"/><circle data-name="Ellipse 43" cx="3" cy="3" r="3" transform="translate(64 96)"/><circle data-name="Ellipse 43" cx="3" cy="3" r="3" transform="translate(80 96)"/><circle data-name="Ellipse 43" cx="3" cy="3" r="3" transform="translate(96 96)"/><circle data-name="Ellipse 43" cx="3" cy="3" r="3" transform="translate(112 96)"/><circle data-name="Ellipse 43" cx="3" cy="3" r="3" transform="translate(128 96)"/><circle data-name="Ellipse 43" cx="3" cy="3" r="3" transform="translate(0 112)"/><circle data-name="Ellipse 43" cx="3" cy="3" r="3" transform="translate(16 112)"/><circle data-name="Ellipse 43" cx="3" cy="3" r="3" transform="translate(32 112)"/><circle data-name="Ellipse 43" cx="3" cy="3" r="3" transform="translate(48 112)"/><circle data-name="Ellipse 43" cx="3" cy="3" r="3" transform="translate(64 112)"/><circle data-name="Ellipse 43" cx="3" cy="3" r="3" transform="translate(80 112)"/><circle data-name="Ellipse 43" cx="3" cy="3" r="3" transform="translate(96 112)"/><circle data-name="Ellipse 43" cx="3" cy="3" r="3" transform="translate(112 112)"/><circle data-name="Ellipse 43" cx="3" cy="3" r="3" transform="translate(128 112)"/><circle data-name="Ellipse 43" cx="3" cy="3" r="3" transform="translate(0 128)"/><circle data-name="Ellipse 43" cx="3" cy="3" r="3" transform="translate(16 128)"/><circle data-name="Ellipse 43" cx="3" cy="3" r="3" transform="translate(32 128)"/><circle data-name="Ellipse 43" cx="3" cy="3" r="3" transform="translate(48 128)"/><circle data-name="Ellipse 43" cx="3" cy="3" r="3" transform="translate(64 128)"/><circle data-name="Ellipse 43" cx="3" cy="3" r="3" transform="translate(80 128)"/><circle data-name="Ellipse 43" cx="3" cy="3" r="3" transform="translate(96 128)"/><circle data-name="Ellipse 43" cx="3" cy="3" r="3" transform="translate(112 128)"/><circle data-name="Ellipse 43" cx="3" cy="3" r="3" transform="translate(128 128)"/><circle data-name="Ellipse 43" cx="3" cy="3" r="3" transform="translate(0 144)"/><circle data-name="Ellipse 43" cx="3" cy="3" r="3" transform="translate(16 144)"/><circle data-name="Ellipse 43" cx="3" cy="3" r="3" transform="translate(32 144)"/><circle data-name="Ellipse 43" cx="3" cy="3" r="3" transform="translate(48 144)"/><circle data-name="Ellipse 43" cx="3" cy="3" r="3" transform="translate(64 144)"/><circle data-name="Ellipse 43" cx="3" cy="3" r="3" transform="translate(80 144)"/><circle data-name="Ellipse 43" cx="3" cy="3" r="3" transform="translate(96 144)"/><circle data-name="Ellipse 43" cx="3" cy="3" r="3" transform="translate(112 144)"/><circle data-name="Ellipse 43" cx="3" cy="3" r="3" transform="translate(128 144)"/><circle data-name="Ellipse 43" cx="3" cy="3" r="3" transform="translate(0 160)"/><circle data-name="Ellipse 43" cx="3" cy="3" r="3" transform="translate(16 160)"/><circle data-name="Ellipse 43" cx="3" cy="3" r="3" transform="translate(32 160)"/><circle data-name="Ellipse 43" cx="3" cy="3" r="3" transform="translate(48 160)"/><circle data-name="Ellipse 43" cx="3" cy="3" r="3" transform="translate(64 160)"/><circle data-name="Ellipse 43" cx="3" cy="3" r="3" transform="translate(80 160)"/><circle data-name="Ellipse 43" cx="3" cy="3" r="3" transform="translate(96 160)"/><circle data-name="Ellipse 43" cx="3" cy="3" r="3" transform="translate(112 160)"/><circle data-name="Ellipse 43" cx="3" cy="3" r="3" transform="translate(128 160)"/><circle data-name="Ellipse 43" cx="3" cy="3" r="3" transform="translate(0 176)"/><circle data-name="Ellipse 43" cx="3" cy="3" r="3" transform="translate(16 176)"/><circle data-name="Ellipse 43" cx="3" cy="3" r="3" transform="translate(32 176)"/><circle data-name="Ellipse 43" cx="3" cy="3" r="3" transform="translate(48 176)"/><circle data-name="Ellipse 43" cx="3" cy="3" r="3" transform="translate(64 176)"/><circle data-name="Ellipse 43" cx="3" cy="3" r="3" transform="translate(80 176)"/><circle data-name="Ellipse 43" cx="3" cy="3" r="3" transform="translate(96 176)"/><circle data-name="Ellipse 43" cx="3" cy="3" r="3" transform="translate(112 176)"/><circle data-name="Ellipse 43" cx="3" cy="3" r="3" transform="translate(128 176)"/><circle data-name="Ellipse 43" cx="3" cy="3" r="3" transform="translate(0 192)"/><circle data-name="Ellipse 43" cx="3" cy="3" r="3" transform="translate(16 192)"/><circle data-name="Ellipse 43" cx="3" cy="3" r="3" transform="translate(32 192)"/><circle data-name="Ellipse 43" cx="3" cy="3" r="3" transform="translate(48 192)"/><circle data-name="Ellipse 43" cx="3" cy="3" r="3" transform="translate(64 192)"/><circle data-name="Ellipse 43" cx="3" cy="3" r="3" transform="translate(80 192)"/><circle data-name="Ellipse 43" cx="3" cy="3" r="3" transform="translate(96 192)"/><circle data-name="Ellipse 43" cx="3" cy="3" r="3" transform="translate(112 192)"/><circle data-name="Ellipse 43" cx="3" cy="3" r="3" transform="translate(128 192)"/><circle data-name="Ellipse 43" cx="3" cy="3" r="3" transform="translate(0 208)"/><circle data-name="Ellipse 43" cx="3" cy="3" r="3" transform="translate(16 208)"/><circle data-name="Ellipse 43" cx="3" cy="3" r="3" transform="translate(32 208)"/><circle data-name="Ellipse 43" cx="3" cy="3" r="3" transform="translate(48 208)"/><circle data-name="Ellipse 43" cx="3" cy="3" r="3" transform="translate(64 208)"/><circle data-name="Ellipse 43" cx="3" cy="3" r="3" transform="translate(80 208)"/><circle data-name="Ellipse 43" cx="3" cy="3" r="3" transform="translate(96 208)"/><circle data-name="Ellipse 43" cx="3" cy="3" r="3" transform="translate(112 208)"/><circle data-name="Ellipse 43" cx="3" cy="3" r="3" transform="translate(128 208)"/><circle data-name="Ellipse 43" cx="3" cy="3" r="3" transform="translate(0 224)"/><circle data-name="Ellipse 43" cx="3" cy="3" r="3" transform="translate(16 224)"/><circle data-name="Ellipse 43" cx="3" cy="3" r="3" transform="translate(32 224)"/><circle data-name="Ellipse 43" cx="3" cy="3" r="3" transform="translate(48 224)"/><circle data-name="Ellipse 43" cx="3" cy="3" r="3" transform="translate(64 224)"/><circle data-name="Ellipse 43" cx="3" cy="3" r="3" transform="translate(80 224)"/><circle data-name="Ellipse 43" cx="3" cy="3" r="3" transform="translate(96 224)"/><circle data-name="Ellipse 43" cx="3" cy="3" r="3" transform="translate(112 224)"/><circle data-name="Ellipse 43" cx="3" cy="3" r="3" transform="translate(128 224)"/><circle data-name="Ellipse 43" cx="3" cy="3" r="3" transform="translate(0 240)"/><circle data-name="Ellipse 43" cx="3" cy="3" r="3" transform="translate(16 240)"/><circle data-name="Ellipse 43" cx="3" cy="3" r="3" transform="translate(32 240)"/><circle data-name="Ellipse 43" cx="3" cy="3" r="3" transform="translate(48 240)"/><circle data-name="Ellipse 43" cx="3" cy="3" r="3" transform="translate(64 240)"/><circle data-name="Ellipse 43" cx="3" cy="3" r="3" transform="translate(80 240)"/><circle data-name="Ellipse 43" cx="3" cy="3" r="3" transform="translate(96 240)"/><circle data-name="Ellipse 43" cx="3" cy="3" r="3" transform="translate(112 240)"/><circle data-name="Ellipse 43" cx="3" cy="3" r="3" transform="translate(128 240)"/><circle data-name="Ellipse 43" cx="3" cy="3" r="3" transform="translate(0 256)"/><circle data-name="Ellipse 43" cx="3" cy="3" r="3" transform="translate(16 256)"/><circle data-name="Ellipse 43" cx="3" cy="3" r="3" transform="translate(32 256)"/><circle data-name="Ellipse 43" cx="3" cy="3" r="3" transform="translate(48 256)"/><circle data-name="Ellipse 43" cx="3" cy="3" r="3" transform="translate(64 256)"/><circle data-name="Ellipse 43" cx="3" cy="3" r="3" transform="translate(80 256)"/><circle data-name="Ellipse 43" cx="3" cy="3" r="3" transform="translate(96 256)"/><circle data-name="Ellipse 43" cx="3" cy="3" r="3" transform="translate(112 256)"/><circle data-name="Ellipse 43" cx="3" cy="3" r="3" transform="translate(128 256)"/><circle data-name="Ellipse 43" cx="3" cy="3" r="3" transform="translate(0 272)"/><circle data-name="Ellipse 43" cx="3" cy="3" r="3" transform="translate(16 272)"/><circle data-name="Ellipse 43" cx="3" cy="3" r="3" transform="translate(32 272)"/><circle data-name="Ellipse 43" cx="3" cy="3" r="3" transform="translate(48 272)"/><circle data-name="Ellipse 43" cx="3" cy="3" r="3" transform="translate(64 272)"/><circle data-name="Ellipse 43" cx="3" cy="3" r="3" transform="translate(80 272)"/><circle data-name="Ellipse 43" cx="3" cy="3" r="3" transform="translate(96 272)"/><circle data-name="Ellipse 43" cx="3" cy="3" r="3" transform="translate(112 272)"/><circle data-name="Ellipse 43" cx="3" cy="3" r="3" transform="translate(128 272)"/><circle data-name="Ellipse 43" cx="3" cy="3" r="3" transform="translate(0 288)"/><circle data-name="Ellipse 43" cx="3" cy="3" r="3" transform="translate(16 288)"/><circle data-name="Ellipse 43" cx="3" cy="3" r="3" transform="translate(32 288)"/><circle data-name="Ellipse 43" cx="3" cy="3" r="3" transform="translate(48 288)"/><circle data-name="Ellipse 43" cx="3" cy="3" r="3" transform="translate(64 288)"/><circle data-name="Ellipse 43" cx="3" cy="3" r="3" transform="translate(80 288)"/><circle data-name="Ellipse 43" cx="3" cy="3" r="3" transform="translate(96 288)"/><circle data-name="Ellipse 43" cx="3" cy="3" r="3" transform="translate(112 288)"/><circle data-name="Ellipse 43" cx="3" cy="3" r="3" transform="translate(128 288)"/><circle data-name="Ellipse 43" cx="3" cy="3" r="3" transform="translate(0 304)"/><circle data-name="Ellipse 43" cx="3" cy="3" r="3" transform="translate(16 304)"/><circle data-name="Ellipse 43" cx="3" cy="3" r="3" transform="translate(32 304)"/><circle data-name="Ellipse 43" cx="3" cy="3" r="3" transform="translate(48 304)"/><circle data-name="Ellipse 43" cx="3" cy="3" r="3" transform="translate(64 304)"/><circle data-name="Ellipse 43" cx="3" cy="3" r="3" transform="translate(80 304)"/><circle data-name="Ellipse 43" cx="3" cy="3" r="3" transform="translate(96 304)"/><circle data-name="Ellipse 43" cx="3" cy="3" r="3" transform="translate(112 304)"/><circle data-name="Ellipse 43" cx="3" cy="3" r="3" transform="translate(128 304)"/><circle data-name="Ellipse 43" cx="3" cy="3" r="3" transform="translate(0 320)"/><circle data-name="Ellipse 43" cx="3" cy="3" r="3" transform="translate(16 320)"/><circle data-name="Ellipse 43" cx="3" cy="3" r="3" transform="translate(32 320)"/><circle data-name="Ellipse 43" cx="3" cy="3" r="3" transform="translate(48 320)"/><circle data-name="Ellipse 43" cx="3" cy="3" r="3" transform="translate(64 320)"/><circle data-name="Ellipse 43" cx="3" cy="3" r="3" transform="translate(80 320)"/><circle data-name="Ellipse 43" cx="3" cy="3" r="3" transform="translate(96 320)"/><circle data-name="Ellipse 43" cx="3" cy="3" r="3" transform="translate(112 320)"/><circle data-name="Ellipse 43" cx="3" cy="3" r="3" transform="translate(128 320)"/><circle data-name="Ellipse 43" cx="3" cy="3" r="3" transform="translate(0 336)"/><circle data-name="Ellipse 43" cx="3" cy="3" r="3" transform="translate(16 336)"/><circle data-name="Ellipse 43" cx="3" cy="3" r="3" transform="translate(32 336)"/><circle data-name="Ellipse 43" cx="3" cy="3" r="3" transform="translate(48 336)"/><circle data-name="Ellipse 43" cx="3" cy="3" r="3" transform="translate(64 336)"/><circle data-name="Ellipse 43" cx="3" cy="3" r="3" transform="translate(80 336)"/><circle data-name="Ellipse 43" cx="3" cy="3" r="3" transform="translate(96 336)"/><circle data-name="Ellipse 43" cx="3" cy="3" r="3" transform="translate(112 336)"/><circle data-name="Ellipse 43" cx="3" cy="3" r="3" transform="translate(128 336)"/><circle data-name="Ellipse 43" cx="3" cy="3" r="3" transform="translate(0 352)"/><circle data-name="Ellipse 43" cx="3" cy="3" r="3" transform="translate(16 352)"/><circle data-name="Ellipse 43" cx="3" cy="3" r="3" transform="translate(32 352)"/><circle data-name="Ellipse 43" cx="3" cy="3" r="3" transform="translate(48 352)"/><circle data-name="Ellipse 43" cx="3" cy="3" r="3" transform="translate(64 352)"/><circle data-name="Ellipse 43" cx="3" cy="3" r="3" transform="translate(80 352)"/><circle data-name="Ellipse 43" cx="3" cy="3" r="3" transform="translate(96 352)"/><circle data-name="Ellipse 43" cx="3" cy="3" r="3" transform="translate(112 352)"/><circle data-name="Ellipse 43" cx="3" cy="3" r="3" transform="translate(128 352)"/><circle data-name="Ellipse 43" cx="3" cy="3" r="3" transform="translate(0 368)"/><circle data-name="Ellipse 43" cx="3" cy="3" r="3" transform="translate(16 368)"/><circle data-name="Ellipse 43" cx="3" cy="3" r="3" transform="translate(32 368)"/><circle data-name="Ellipse 43" cx="3" cy="3" r="3" transform="translate(48 368)"/><circle data-name="Ellipse 43" cx="3" cy="3" r="3" transform="translate(64 368)"/><circle data-name="Ellipse 43" cx="3" cy="3" r="3" transform="translate(80 368)"/><circle data-name="Ellipse 43" cx="3" cy="3" r="3" transform="translate(96 368)"/><circle data-name="Ellipse 43" cx="3" cy="3" r="3" transform="translate(112 368)"/><circle data-name="Ellipse 43" cx="3" cy="3" r="3" transform="translate(128 368)"/><circle data-name="Ellipse 43" cx="3" cy="3" r="3" transform="translate(0 384)"/><circle data-name="Ellipse 43" cx="3" cy="3" r="3" transform="translate(16 384)"/><circle data-name="Ellipse 43" cx="3" cy="3" r="3" transform="translate(32 384)"/><circle data-name="Ellipse 43" cx="3" cy="3" r="3" transform="translate(48 384)"/><circle data-name="Ellipse 43" cx="3" cy="3" r="3" transform="translate(64 384)"/><circle data-name="Ellipse 43" cx="3" cy="3" r="3" transform="translate(80 384)"/><circle data-name="Ellipse 43" cx="3" cy="3" r="3" transform="translate(96 384)"/><circle data-name="Ellipse 43" cx="3" cy="3" r="3" transform="translate(112 384)"/><circle data-name="Ellipse 43" cx="3" cy="3" r="3" transform="translate(128 384)"/><circle data-name="Ellipse 43" cx="3" cy="3" r="3" transform="translate(0 400)"/><circle data-name="Ellipse 43" cx="3" cy="3" r="3" transform="translate(16 400)"/><circle data-name="Ellipse 43" cx="3" cy="3" r="3" transform="translate(32 400)"/><circle data-name="Ellipse 43" cx="3" cy="3" r="3" transform="translate(48 400)"/><circle data-name="Ellipse 43" cx="3" cy="3" r="3" transform="translate(64 400)"/><circle data-name="Ellipse 43" cx="3" cy="3" r="3" transform="translate(80 400)"/><circle data-name="Ellipse 43" cx="3" cy="3" r="3" transform="translate(96 400)"/><circle data-name="Ellipse 43" cx="3" cy="3" r="3" transform="translate(112 400)"/><circle data-name="Ellipse 43" cx="3" cy="3" r="3" transform="translate(128 400)"/><circle data-name="Ellipse 43" cx="3" cy="3" r="3" transform="translate(0 416)"/><circle data-name="Ellipse 43" cx="3" cy="3" r="3" transform="translate(16 416)"/><circle data-name="Ellipse 43" cx="3" cy="3" r="3" transform="translate(32 416)"/><circle data-name="Ellipse 43" cx="3" cy="3" r="3" transform="translate(48 416)"/><circle data-name="Ellipse 43" cx="3" cy="3" r="3" transform="translate(64 416)"/><circle data-name="Ellipse 43" cx="3" cy="3" r="3" transform="translate(80 416)"/><circle data-name="Ellipse 43" cx="3" cy="3" r="3" transform="translate(96 416)"/><circle data-name="Ellipse 43" cx="3" cy="3" r="3" transform="translate(112 416)"/><circle data-name="Ellipse 43" cx="3" cy="3" r="3" transform="translate(128 416)"/><circle data-name="Ellipse 43" cx="3" cy="3" r="3" transform="translate(0 432)"/><circle data-name="Ellipse 43" cx="3" cy="3" r="3" transform="translate(16 432)"/><circle data-name="Ellipse 43" cx="3" cy="3" r="3" transform="translate(32 432)"/><circle data-name="Ellipse 43" cx="3" cy="3" r="3" transform="translate(48 432)"/><circle data-name="Ellipse 43" cx="3" cy="3" r="3" transform="translate(64 432)"/><circle data-name="Ellipse 43" cx="3" cy="3" r="3" transform="translate(80 432)"/><circle data-name="Ellipse 43" cx="3" cy="3" r="3" transform="translate(96 432)"/><circle data-name="Ellipse 43" cx="3" cy="3" r="3" transform="translate(112 432)"/><circle data-name="Ellipse 43" cx="3" cy="3" r="3" transform="translate(128 432)"/><circle data-name="Ellipse 43" cx="3" cy="3" r="3" transform="translate(0 448)"/><circle data-name="Ellipse 43" cx="3" cy="3" r="3" transform="translate(16 448)"/><circle data-name="Ellipse 43" cx="3" cy="3" r="3" transform="translate(32 448)"/><circle data-name="Ellipse 43" cx="3" cy="3" r="3" transform="translate(48 448)"/><circle data-name="Ellipse 43" cx="3" cy="3" r="3" transform="translate(64 448)"/><circle data-name="Ellipse 43" cx="3" cy="3" r="3" transform="translate(80 448)"/><circle data-name="Ellipse 43" cx="3" cy="3" r="3" transform="translate(96 448)"/><circle data-name="Ellipse 43" cx="3" cy="3" r="3" transform="translate(112 448)"/><circle data-name="Ellipse 43" cx="3" cy="3" r="3" transform="translate(128 448)"/></g></svg>