<svg xmlns="http://www.w3.org/2000/svg" width="27" height="15"><path d="M25.81 3.445a3.887 3.887 0 00-2.92-1.246h-2.78V.673a.671.671 0 00-.66-.674H6.21a.671.671 0 00-.66.674v2.345H2.97a.673.673 0 000 1.346h3.25a.671.671 0 00.66-.673V1.346h11.91V11.9h-6.24a.317.317 0 00-.08.006 2.242 2.242 0 00-2.07-1.42 2.21 2.21 0 00-2.06 1.43.765.765 0 00-.15-.016H6.88V9.55a.672.672 0 00-.66-.675H2.97a.674.674 0 000 1.348h2.58v2.345a.671.671 0 00.66.673h2.02a2.217 2.217 0 004.34 0h7.95a2.217 2.217 0 004.34 0h1.48a.671.671 0 00.66-.673V6.975a5.114 5.114 0 00-1.19-3.53zM10.4 13.659a.915.915 0 11.9-.914.905.905 0 01-.9.914zm12.29 0a.915.915 0 11.9-.914.918.918 0 01-.9.914zm2.98-1.761h-.92a2.253 2.253 0 00-2.06-1.414 2.223 2.223 0 00-2.06 1.414h-.51V3.545h2.78c1.74 0 2.77 1.284 2.77 3.433v4.92zM11.38 7.881a.681.681 0 000 .954.673.673 0 00.47.2.656.656 0 00.47-.2l1.71-1.733.01-.006c.01-.017.02-.028.03-.045a.049.049 0 00.02-.028c.01-.011.01-.016.02-.028s.01-.022.02-.033.01-.017.02-.029.01-.022.01-.033a.035.035 0 00.01-.028.045.045 0 00.01-.034.135.135 0 01.02-.028v-.034c0-.01.01-.022.01-.034V6.7c0-.012.01-.017.01-.029v-.134a.035.035 0 00-.01-.029V6.47c0-.012-.01-.024-.01-.034v-.034a.135.135 0 00-.02-.028.046.046 0 00-.01-.034c0-.01-.01-.017-.01-.028s-.01-.022-.01-.033-.01-.017-.02-.028-.01-.022-.02-.034a.046.046 0 00-.02-.028.054.054 0 00-.02-.029c-.01-.017-.02-.028-.03-.044h-.01l-1.62-1.65a.657.657 0 00-.94 0 .681.681 0 000 .954l.49.5H.66a.674.674 0 000 1.347h11.29z" fill="#fd7532" fill-rule="evenodd"/></svg>