<svg xmlns="http://www.w3.org/2000/svg" width="71.116" height="67.641"><path data-name="Path 234" d="M18.542 42.918L1.53 26.333l23.517-3.417L35.562 1.608l10.514 21.308 23.517 3.417-17.015 16.585 4.019 23.426-21.038-11.06-21.029 11.06 4.016-23.425zm9.347-3.036l-7.667-7.475 10.6-1.54 4.741-9.6 4.738 9.6 10.6 1.54-7.665 7.475 1.804 10.562-9.481-4.985-9.482 4.985 1.812-10.558zm8.112 6.607l9.98 5.248-1.989-11.6 8.435-8.221-11.657-1.7-5.211-10.561-5.213 10.563-11.651 1.692 8.428 8.222-1.988 11.605 10.424-5.481.442.232zm0 9.829l21.536 11.326-4.2-24.472L71.114 25.84l-24.571-3.57L35.557.003 24.57 22.267 0 25.837l17.776 17.332-4.2 24.472 21.981-11.555.442.232z" fill="#fff"/></svg>