<svg xmlns="http://www.w3.org/2000/svg" viewBox="0 0 366.56 366.56"><path d="M295.312 179.832a6.92 6.92 0 00-2.552-2.552l-79.36-46-.4-.2-78.96-45.4a6.92 6.92 0 00-10.36 6v183.24a6.96 6.96 0 006.92 6.92 6.919 6.919 0 004-1.28l78.8-45.28 79.36-46a6.92 6.92 0 002.552-9.448z"/><path d="M183.28 0C82.057 0 0 82.057 0 183.28s82.057 183.28 183.28 183.28 183.28-82.057 183.28-183.28S284.503 0 183.28 0zm0 332.52c-82.423 0-149.24-66.817-149.24-149.24S100.857 34.04 183.28 34.04s149.24 66.817 149.24 149.24-66.817 149.24-149.24 149.24z"/></svg>