<svg xmlns="http://www.w3.org/2000/svg" width="61.065" height="48.893"><g data-name="Group 30" transform="translate(-397 -1056.107)"><circle data-name="Ellipse 3" cx="10" cy="10" r="10" transform="translate(397 1085)" fill="red" opacity=".5"/><g data-name="Group 25"><g data-name="Group 24"><path data-name="Path 38" d="M457.198 1082.107h-.867v-2.6a4.333 4.333 0 00-2.6-3.966v-13.367a.867.867 0 00-.52-.794 3.431 3.431 0 00.52-1.806 3.467 3.467 0 10-6.933 0 3.431 3.431 0 00.482 1.733h-30.43a3.431 3.431 0 00.482-1.733 3.467 3.467 0 10-6.933 0 3.431 3.431 0 00.52 1.806.867.867 0 00-.52.794v13.367a4.333 4.333 0 00-2.6 3.966v2.6h-.867a.867.867 0 00-.867.867v12.133a.867.867 0 00.867.867h.867v4.333a.867.867 0 00.867.867h3.466a.867.867 0 00.867-.867v-4.333h38.133v4.333a.867.867 0 00.867.867h3.466a.867.867 0 00.867-.867v-4.333h.867a.867.867 0 00.866-.867v-12.133a.867.867 0 00-.867-.867zm-6.933-24.267a1.733 1.733 0 11-1.733 1.733 1.733 1.733 0 011.733-1.733zm-36.4 0a1.733 1.733 0 11-1.733 1.733 1.733 1.733 0 011.733-1.733zm-1.733 5.2h39.866v12.134h-3.489a4.288 4.288 0 00.889-2.6v-1.734a4.339 4.339 0 00-4.333-4.333h-6.933a4.339 4.339 0 00-4.333 4.333v1.733a4.288 4.288 0 00.889 2.6h-5.246a4.288 4.288 0 00.889-2.6v-1.733a4.339 4.339 0 00-4.333-4.333h-6.933a4.339 4.339 0 00-4.333 4.333v1.733a4.288 4.288 0 00.889 2.6h-3.489zm35.533 7.8v1.733a2.6 2.6 0 01-2.6 2.6h-6.933a2.6 2.6 0 01-2.6-2.6v-1.733a2.6 2.6 0 012.6-2.6h6.933a2.6 2.6 0 012.6 2.6zm-19.067 0v1.733a2.6 2.6 0 01-2.6 2.6h-6.933a2.6 2.6 0 01-2.6-2.6v-1.733a2.6 2.6 0 012.6-2.6h6.933a2.6 2.6 0 012.6 2.6zm-19.066 8.667a2.6 2.6 0 012.6-2.6h39.866a2.6 2.6 0 012.6 2.6v2.6h-45.066zm1.733 19.933h-1.733v-3.466h1.733zm43.333 0h-1.733v-3.466h1.733zm1.733-5.2h-48.533v-10.4h48.534z" fill="#333"/></g></g><g data-name="Group 27"><g data-name="Group 26"><path data-name="Path 39" d="M412.025 1091.101h-2.649a.662.662 0 000 1.324h2.649a.662.662 0 000-1.324z" fill="#333"/></g></g><g data-name="Group 29"><g data-name="Group 28"><path data-name="Path 40" d="M454.754 1091.101h-27.812a.662.662 0 000 1.324h27.812a.662.662 0 000-1.324z" fill="#333"/></g></g></g></svg>