<svg xmlns="http://www.w3.org/2000/svg" width="84.964" height="84.907"><path data-name="Path 8" d="M9.228 17.875a6.591 6.591 0 11-1.931 4.659 6.554 6.554 0 011.931-4.659zm32.851 25.432h.8v-1.134h-.8zm0-6.586h.8v-1.133h-.8zm11.192 18.658h6.344V33.271a9.77 9.77 0 00-.727-3.733 9.529 9.529 0 00-2.1-3.131 9.625 9.625 0 00-3.136-2.108 9.73 9.73 0 00-3.728-.731h-1.681l-5.75 5.763-5.768-5.763h-1.683a9.68 9.68 0 00-9.71 9.707v22.108h7.448v29.526h.8V51.096h-.8v3.486h-6.642v-21.31a8.89 8.89 0 018.9-8.9h1.352l6.1 6.095 6.1-6.095h1.337a8.9 8.9 0 018.9 8.9v21.31h-6.634v-3.486h-.8v33.813h.8V55.381h1.081zM42.079 84.906h.8V61.019h-.8zm-5.443-81.68a8.286 8.286 0 110 11.711 8.266 8.266 0 010-11.711zm-.577 12.275a9.073 9.073 0 10-2.662-6.419 9.077 9.077 0 002.661 6.42zm27.116 69.4h.807V60.595h-5.317v.8h4.51v23.514zm7.5-42.072h.8v-1.133h-.8zm7.5 42.072h.807V61.392h5.988V43.509a7.921 7.921 0 00-.593-3.036 7.807 7.807 0 00-1.715-2.548 7.792 7.792 0 00-5.581-2.312h-11.82v.8h11.82a7.058 7.058 0 015.014 2.082 7.072 7.072 0 012.086 5.021v17.09h-6zm-7.5 0h.8V66.073h-.8zm-4.257-67.03a6.587 6.587 0 11-1.932 4.659 6.552 6.552 0 011.932-4.659zm-.571 9.892a7.4 7.4 0 10-2.166-5.232 7.363 7.363 0 002.162 5.236zM20.986 84.902h.807V61.393h4.512v-.8h-5.318zm-7.5-42.072h.807v-1.133h-.807zm-7.5 42.072h.806V60.596h-6V43.509a7.089 7.089 0 012.087-5.021 7.058 7.058 0 015.015-2.082h11.819v-.8H7.894a7.923 7.923 0 00-3.031.595 7.805 7.805 0 00-2.55 1.717 7.8 7.8 0 00-1.714 2.548 7.909 7.909 0 00-.594 3.035V61.39h5.988v23.519zm7.5 0h.807V66.074h-.807zM8.661 27.759a7.383 7.383 0 10-2.169-5.229 7.363 7.363 0 002.169 5.229z" fill="#25aee5"/></svg>