<svg xmlns="http://www.w3.org/2000/svg" width="75.018" height="84.478"><path data-name="Path 6" d="M10.865 56.857A73.794 73.794 0 01.828 21.171l-.02-1.021 1.021-.072A19.761 19.761 0 0020.09 1.805l.071-1.006h34.713l.07 1.01a19.748 19.748 0 0018.261 18.269l1.022.072-.021 1.026a74.116 74.116 0 01-36.148 62.048l-.549.327-.549-.327a73.935 73.935 0 01-26.095-26.368zm19.714-16.773l5.11 5.108 8.749-8.75-.566-.566-8.178 8.176-4.545-4.539zm-2.562-9.564a13.4 13.4 0 11-3.939 9.491 13.39 13.39 0 013.939-9.491zm-.571 19.561a14.236 14.236 0 1020.128-20.138 14.218 14.218 0 00-20.127 0 14.229 14.229 0 000 20.134zm-10.991 4.357a67.916 67.916 0 01-9.31-28.26l-.084-.875.845-.257A25.693 25.693 0 0025.132 7.601l.227-.781h24.3l.227.781a25.717 25.717 0 0017.241 17.445l.845.257-.084.875a68.379 68.379 0 01-29.781 49.9l-.6.4-.6-.4a68.057 68.057 0 01-20.455-21.635zm20.83 22.857l.224.145.224-.145A69.17 69.17 0 0068.79 25.012l.026-.341-.319-.081A24.939 24.939 0 0150.384 6.323l-.073-.3h-25.6l-.074.3a24.879 24.879 0 01-18.1 18.267l-.331.083.027.339a69.191 69.191 0 0031.058 52.281zm.043 7.075l.184.109.2-.117a74.848 74.848 0 0037.3-64.634v-.4h-.4A18.955 18.955 0 0155.68.399v-.4H19.318v.4A18.942 18.942 0 01.402 19.328H-.01v.4a74.877 74.877 0 0037.319 64.635z" fill="#25aee5"/></svg>