<svg xmlns="http://www.w3.org/2000/svg" width="64.734" height="41.836"><g data-name="Group 221" transform="translate(-393 -474.164)"><g data-name="Group 6"><g data-name="Group 5"><path data-name="Path 16" d="M453.426 490.669l-1.594-6.375a.964.964 0 00.763-.942v-1.028a4.052 4.052 0 00-4.047-4.047h-7.26v-2.12a1.994 1.994 0 00-1.992-1.992h-37.008a1.994 1.994 0 00-1.992 1.992v17.475a.964.964 0 001.927 0v-17.476a.064.064 0 01.064-.064h37a.064.064 0 01.064.064v17.475a.964.964 0 101.927 0v-1.092h11.383a3.153 3.153 0 012.995 2.184h-3a.964.964 0 00-.964.964v2.056a3.023 3.023 0 003.019 3.019h1.092v4.24h-2.515a6.1 6.1 0 00-11.536 0h-.464v-7.26a.964.964 0 00-1.927 0v7.26h-19.995a6.1 6.1 0 00-11.536 0h-5.542a.064.064 0 01-.064-.064v-2.12h4.176a.964.964 0 100-1.927h-9.248a.964.964 0 100 1.927h3.148v2.12a1.994 1.994 0 001.988 1.991h5.205v.064a6.103 6.103 0 1012.206 0v-.064h21.719v.064a6.103 6.103 0 1012.206 0v-.064h3.15a.964.964 0 00.964-.964v-10.279a5.083 5.083 0 00-4.312-5.017zm-12.138-10.467h7.26a2.123 2.123 0 012.12 2.12v.064h-9.38zm0 10.408v-6.3h8.563l1.574 6.3zm-27.69 20.559a4.176 4.176 0 114.176-4.176 4.181 4.181 0 01-4.176 4.176zm33.921 0a4.176 4.176 0 114.176-4.176 4.181 4.181 0 01-4.176 4.176zm8.288-12.335h-1.092a1.093 1.093 0 01-1.092-1.092v-1.092h2.184v2.184z" fill="#707070"/></g></g><g data-name="Group 8"><g data-name="Group 7"><path data-name="Path 17" d="M413.599 505.004a1.992 1.992 0 101.992 1.992 1.994 1.994 0 00-1.992-1.992z" fill="#707070"/></g></g><g data-name="Group 10"><g data-name="Group 9"><path data-name="Path 18" d="M447.52 505.004a1.992 1.992 0 101.992 1.992 1.994 1.994 0 00-1.992-1.992z" fill="#707070"/></g></g><g data-name="Group 12"><g data-name="Group 11"><path data-name="Path 19" d="M436.212 500.89h-14.39a.964.964 0 000 1.927h14.391a.964.964 0 000-1.927z" fill="#707070"/></g></g><g data-name="Group 14"><g data-name="Group 13"><path data-name="Path 20" d="M411.542 496.778h-12.334a.964.964 0 000 1.927h12.334a.964.964 0 000-1.927z" fill="#707070"/></g></g><g data-name="Group 16"><g data-name="Group 15"><path data-name="Path 21" d="M429.699 483.692a.964.964 0 00-1.363 0l-8.57 8.57-4.458-4.458a.964.964 0 00-1.363 1.363l5.14 5.14a.963.963 0 001.363 0l9.251-9.251a.964.964 0 000-1.364z" fill="#707070"/></g></g><circle data-name="Ellipse 2" cx="10" cy="10" r="10" transform="translate(393 496)" fill="red" opacity=".469"/></g></svg>