<svg xmlns="http://www.w3.org/2000/svg" width="521.12" height="521.12"><g data-name="Path 155" fill="none"><path d="M260.56 0c143.9 0 260.56 116.657 260.56 260.56S404.463 521.12 260.56 521.12 0 404.463 0 260.56 116.657 0 260.56 0z"/><path d="M260.56 80C160.999 80 80 160.999 80 260.56s80.999 180.56 180.56 180.56 180.56-80.999 180.56-180.56S360.121 80 260.56 80m0-80c143.903 0 260.56 116.657 260.56 260.56 0 143.903-116.657 260.56-260.56 260.56C116.657 521.12 0 404.463 0 260.56 0 116.657 116.657 0 260.56 0z" fill="#fdcc4b"/></g></svg>