<svg xmlns="http://www.w3.org/2000/svg" width="63.325" height="60.795"><g data-name="Group 31" transform="translate(-393 -1050.205)"><circle data-name="Ellipse 3" cx="10" cy="10" r="10" transform="translate(393 1091)" fill="red" opacity=".469"/><path data-name="Path 41" d="M447.612 1056.117c-.007-.03-.025-.054-.034-.082a.8.8 0 00-.058-.141.833.833 0 00-.1-.145.887.887 0 00-.1-.1.79.79 0 00-.143-.1.652.652 0 00-.31-.1.884.884 0 00-.11-.025h-4.38c-.221-3.029-1.629-5.219-3.442-5.219s-3.217 2.19-3.441 5.217h-1.812c-.226-3.027-1.626-5.217-3.442-5.217s-3.217 2.19-3.441 5.217h-1.812c-.224-3.027-1.631-5.217-3.441-5.217s-3.217 2.19-3.441 5.217h-1.813c-.224-3.027-1.628-5.217-3.441-5.217s-3.217 2.19-3.442 5.217h-4.384a.87.87 0 00-.869.869v45.214a.87.87 0 00.869.869h41.731a.87.87 0 00.869-.869v-2.609h7.831a.87.87 0 00.851-1.044zm-8.677-4.173c.628 0 1.5 1.332 1.7 3.478h-3.394c.19-2.146 1.066-3.478 1.694-3.478zm-8.695 0c.628 0 1.5 1.332 1.7 3.478h-3.394c.19-2.146 1.066-3.478 1.694-3.478zm-8.695 0c.628 0 1.5 1.332 1.7 3.478h-3.389c.185-2.146 1.062-3.478 1.69-3.478zm-8.695 0c.628 0 1.5 1.332 1.7 3.478h-3.394c.191-2.146 1.067-3.478 1.695-3.478zm-6.955 5.217h3.514c.224 3.027 1.629 5.217 3.441 5.217a.87.87 0 000-1.739c-.628 0-1.5-1.332-1.7-3.478h6.951c.227 3.027 1.629 5.217 3.441 5.217a.87.87 0 000-1.739c-.628 0-1.5-1.332-1.7-3.478h6.951c.227 3.027 1.629 5.217 3.441 5.217a.87.87 0 100-1.739c-.628 0-1.5-1.332-1.7-3.478h6.951c.227 3.027 1.629 5.217 3.441 5.217a.87.87 0 000-1.739c-.628 0-1.5-1.332-1.7-3.478h8.653v8.695h-40zm40 43.474h-40v-33.04h40zm1.739-3.478v-32.432l6.757 32.431zm0 0"/><path data-name="Path 42" d="M423.284 1081.506h-3.478a.87.87 0 00-.869.87v3.478a.87.87 0 00.869.87h3.478a.87.87 0 00.869-.87v-3.478a.87.87 0 00-.869-.87zm-.869 3.478h-1.739v-1.739h1.739zm0 0"/><path data-name="Path 43" d="M431.979 1081.506h-3.478a.87.87 0 00-.869.87v3.478a.87.87 0 00.869.87h3.478a.87.87 0 00.869-.87v-3.478a.87.87 0 00-.869-.87zm-.869 3.478h-1.739v-1.739h1.739zm0 0"/><path data-name="Path 44" d="M414.589 1081.506h-3.478a.87.87 0 00-.869.87v3.478a.87.87 0 00.869.87h3.478a.87.87 0 00.869-.87v-3.478a.87.87 0 00-.869-.87zm-.869 3.478h-1.739v-1.739h1.739zm0 0"/><path data-name="Path 45" d="M423.284 1090.201h-3.478a.87.87 0 00-.869.87v3.478a.869.869 0 00.869.869h3.478a.869.869 0 00.869-.869v-3.478a.87.87 0 00-.869-.87zm-.869 3.478h-1.739v-1.739h1.739zm0 0"/><path data-name="Path 46" d="M431.979 1090.201h-3.478a.87.87 0 00-.869.87v3.478a.869.869 0 00.869.869h3.478a.869.869 0 00.869-.869v-3.478a.87.87 0 00-.869-.87zm-.869 3.478h-1.739v-1.739h1.739zm0 0"/><path data-name="Path 47" d="M414.589 1090.201h-3.478a.87.87 0 00-.869.87v3.478a.869.869 0 00.869.869h3.478a.869.869 0 00.869-.869v-3.478a.87.87 0 00-.869-.87zm-.869 3.478h-1.739v-1.739h1.739zm0 0"/><path data-name="Path 48" d="M423.284 1072.811h-3.478a.87.87 0 00-.869.869v3.478a.87.87 0 00.869.869h3.478a.87.87 0 00.869-.869v-3.478a.87.87 0 00-.869-.869zm-.869 3.478h-1.739v-1.739h1.739zm0 0"/><path data-name="Path 49" d="M431.979 1072.811h-3.478a.87.87 0 00-.869.869v3.478a.87.87 0 00.869.869h3.478a.87.87 0 00.869-.869v-3.478a.87.87 0 00-.869-.869zm-.869 3.478h-1.739v-1.739h1.739zm0 0"/><path data-name="Path 50" d="M440.674 1081.506h-3.477a.87.87 0 00-.87.87v3.478a.87.87 0 00.87.87h3.478a.87.87 0 00.87-.87v-3.478a.87.87 0 00-.871-.87zm-.869 3.478h-1.739v-1.739h1.739zm0 0"/><path data-name="Path 51" d="M440.674 1090.201h-3.477a.87.87 0 00-.87.87v3.478a.87.87 0 00.87.869h3.478a.87.87 0 00.87-.869v-3.478a.87.87 0 00-.871-.87zm-.869 3.478h-1.739v-1.739h1.739zm0 0"/><path data-name="Path 52" d="M440.674 1072.811h-3.477a.87.87 0 00-.87.869v3.478a.87.87 0 00.87.869h3.478a.87.87 0 00.87-.869v-3.478a.87.87 0 00-.871-.869zm-.869 3.478h-1.739v-1.739h1.739zm0 0"/><path data-name="Path 53" d="M414.589 1072.811h-3.478a.87.87 0 00-.869.869v3.478a.87.87 0 00.869.869h3.478a.87.87 0 00.869-.869v-3.478a.87.87 0 00-.869-.869zm-.869 3.478h-1.739v-1.739h1.739zm0 0"/></g></svg>