<svg xmlns="http://www.w3.org/2000/svg" width="60.871" height="57.871"><g data-name="Group 32" transform="translate(-393 -1046.129)"><circle data-name="Ellipse 3" cx="10" cy="10" r="10" transform="translate(393 1084)" fill="red" opacity=".469"/><g data-name="Group 34"><g data-name="Group 33"><path data-name="Path 54" d="M451.228 1070.803c-1.557 0-2.644.694-2.644 1.687v3.03c-1.4-2.757-3.541-4.717-6.168-4.717h-24.673a.881.881 0 00-.881.881v5.294a5.287 5.287 0 10-9.2 3.54 2.571 2.571 0 00-1.378.592v-22.292a2.4 2.4 0 00-2.64-2.115 2.4 2.4 0 00-2.644 2.115v38.067a2.4 2.4 0 002.644 2.118 2.4 2.4 0 002.644-2.115v-5.816h42.3v6.243c0 .993 1.087 1.687 2.644 1.687s2.644-.694 2.644-1.687v-24.826c-.005-.993-1.092-1.686-2.648-1.686zm-46.7 26.083c-.009.072-.305.352-.881.352s-.873-.28-.881-.352v-38.068c.009-.072.3-.352.881-.352s.872.28.881.352zm14.1-24.321h23.788c3.323 0 5.857 4.949 6.142 9.693h-29.934zm-1.762 4.415v4.247a2.591 2.591 0 00-1.388-.7 5.268 5.268 0 001.383-3.548zm-5.287-3.534a3.525 3.525 0 11-3.525 3.525 3.525 3.525 0 013.52-3.525zm37.005 15.857h-42.297v-5.29a.882.882 0 00.812-.879.866.866 0 01.848-.881h7.117a.866.866 0 01.848.881.881.881 0 00.881.881h31.791zm3.525 7.776a2.584 2.584 0 01-1.762 0v-24.36a2.584 2.584 0 011.762 0z"/></g></g><g data-name="Group 36"><g data-name="Group 35"><path data-name="Path 55" d="M416.099 1065.515l3.2-3.842a.881.881 0 00-.677-1.445h-5.285v1.762h3.406l-3.2 3.842a.882.882 0 00.677 1.445h5.287v-1.762z"/></g></g><g data-name="Group 38"><g data-name="Group 37"><path data-name="Path 56" d="M425.712 1061.109l5.062-6.509a.881.881 0 00-.7-1.422h-7.044v1.762h5.248l-5.062 6.509a.881.881 0 00.7 1.422h7.049v-1.762h-5.248z"/></g></g><g data-name="Group 40"><g data-name="Group 39"><path data-name="Path 57" d="M437.128 1056.703l6.873-9.164a.881.881 0 00-.7-1.41h-7.931v1.762h6.168l-6.873 9.164a.881.881 0 00.7 1.41h8.812v-1.762z"/></g></g></g></svg>